<svg xmlns="http://www.w3.org/2000/svg" width="512" height="337.46" viewBox="0 0 512 337.46">
  <g id="deal" transform="translate(0 -87.27)">
    <g id="Group_758" data-name="Group 758">
      <path id="Path_2733" data-name="Path 2733" d="M512,174.37a35.977,35.977,0,0,0-7.353-22.154l-40.568-51.908A34.885,34.885,0,0,0,436.613,87.27,33.821,33.821,0,0,0,418.671,92.3l-39.556,24.61c-4.16,2.653-11.292,4.474-18.181,4.427A32.958,32.958,0,0,1,347,118.6L308.259,99.835a46.658,46.658,0,0,0-20.217-4.253c-10.059.047-20.246,2.519-28.432,8.192l-4.52,3.171c-3.613-1.8-9.134-4.55-15.388-7.662-7.5-3.677-16.319-5.16-25.227-5.189a60.361,60.361,0,0,0-23.156,4.247L164.935,109.6c-4.294,1.862-11.124,3.078-17.908,3.048-6.784.029-13.6-1.187-17.9-3.048L102.723,98.335A38.436,38.436,0,0,0,87.654,95.4,45.89,45.89,0,0,0,70.508,98.76a38.985,38.985,0,0,0-14.463,9.954L7.965,162.56a31.221,31.221,0,0,0,3.048,44.629l44.85,38.264-21.276,22.2a31.7,31.7,0,0,0,1.088,44.89l4.316,4.1a31.65,31.65,0,0,0,14.068,7.621,31.343,31.343,0,0,0,5.9,38.067l-.011-.006,4.329,4.119a32.108,32.108,0,0,0,34.465,6.237,31.366,31.366,0,0,0,8.82,15.359l4.329,4.119a32.04,32.04,0,0,0,39.7,3.41,31.478,31.478,0,0,0,8.3,13.631l4.329,4.119a32.082,32.082,0,0,0,45.111-1.07l18.8-19.636,25.547,23.644a32.061,32.061,0,0,0,45.077-1.623l4.078-4.369a31.463,31.463,0,0,0,7.151-12.927l9.9,9.134a32.109,32.109,0,0,0,45.107-1.664l4.055-4.364a31.354,31.354,0,0,0,8.133-17.529,31.231,31.231,0,0,0,31.317-8.988l4.067-4.364a31.6,31.6,0,0,0,8.5-21.608,32.414,32.414,0,0,0-.873-7.121,31.618,31.618,0,0,0,19.135-9.687l4.078-4.369a31.74,31.74,0,0,0-1.658-44.891l-7.627-7.045,68.838-76.11A36.24,36.24,0,0,0,512,174.37ZM62.014,308.065a14.476,14.476,0,0,1-10-3.956l-4.323-4.1a14.432,14.432,0,0,1-.5-20.4l43.576-45.473a14.624,14.624,0,0,1,20.514-.488l4.305,4.107s4.457,6.591,4.468,10.46a14.36,14.36,0,0,1-2.577,8.163c-.145.145-47.032,49.01-47.032,49.01A14.674,14.674,0,0,1,62.014,308.065Zm34.8,45.357a14.63,14.63,0,0,1-20.5.483l-4.329-4.114-.011-.006a14.476,14.476,0,0,1-.49-20.4s58.086-60.465,58.575-61.048a14.546,14.546,0,0,1,20.048-.1l4.329,4.119a14.452,14.452,0,0,1,.488,20.409Zm47.607,25.708a14.606,14.606,0,0,1-20.5.485l-4.341-4.114a14.341,14.341,0,0,1-1.263-19.438l40.452-42.221a14.5,14.5,0,0,1,19.694.2l4.341,4.119a14.445,14.445,0,0,1,.488,20.4Zm76.862-4.456-24.546,25.618a14.615,14.615,0,0,1-20.5.483l-4.329-4.114a14.446,14.446,0,0,1-.488-20.4l24.535-25.617a14.63,14.63,0,0,1,20.514-.483l4.341,4.114a14.455,14.455,0,0,1,.475,20.4Zm213.238-69.491A14.291,14.291,0,0,1,430.66,315l-4.067,4.364a14.621,14.621,0,0,1-20.5.746l-68.535-63.381-11.851,12.689,73.358,67.959a14.439,14.439,0,0,1,.75,20.41l-4.055,4.364a14.615,14.615,0,0,1-20.485.751l-68.553-63.38-11.839,12.689,60.838,56.26a14.418,14.418,0,0,1,.594,20.2l-4.067,4.364a14.636,14.636,0,0,1-20.507.756l-60.716-56.056h-.011l-.011-.011L259.191,350.43l.012.011.227.215,30.41,28.066a14.287,14.287,0,0,1,.261,19.764l-4.067,4.369a14.587,14.587,0,0,1-20.462.74L239.1,379.078a31.258,31.258,0,0,0-6.271-37.333l-4.341-4.119a31.9,31.9,0,0,0-22-8.739c-.611,0-1.227.14-1.826.175,0-.145.034-.3.034-.442.011-8.349-9.861-23-9.861-23l-4.329-4.107a31.788,31.788,0,0,0-16.057-8.18,31.29,31.29,0,0,0-7.976-33.5l-4.329-4.119a31.958,31.958,0,0,0-22.009-8.75c-.919,0-1.826.186-2.74.268a31.606,31.606,0,0,0-9.762-22v-.006l-4.317-4.1A32.068,32.068,0,0,0,78.2,222.19L67.917,232.924,22.351,194.06A13.969,13.969,0,0,1,21,174.094l48.079-53.845a21.938,21.938,0,0,1,8.035-5.423,28.611,28.611,0,0,1,10.565-2.077,21.087,21.087,0,0,1,8.215,1.542l26.4,11.263c7.441,3.136,16.08,4.422,24.762,4.45,8.692-.029,17.32-1.315,24.762-4.45L198.193,114.3c4.067-1.774,10.2-2.874,16.307-2.851,6.749-.041,13.509,1.356,17.43,3.357,2.49,1.239,4.852,2.415,7.045,3.514l-26.908,18.915a31.08,31.08,0,0,0-7.092,44.117l-.011-.012,3.554,4.776A34.735,34.735,0,0,0,236.31,199.72a33.749,33.749,0,0,0,17.384-4.736l16.092-9.664a26.5,26.5,0,0,1,13.363-3.252c6.022-.035,12.09,1.746,15.738,4.427l44.519,31.917A444.652,444.652,0,0,1,378.4,246.961L429.924,294.6A14.356,14.356,0,0,1,434.523,305.183Zm55.515-118.037-68.646,75.906-31.167-28.81a458.6,458.6,0,0,0-36.658-29.91L309.06,172.415c-7.546-5.346-16.785-7.657-25.919-7.691a43.821,43.821,0,0,0-22.364,5.742L244.7,180.13a16.329,16.329,0,0,1-8.4,2.246,17.354,17.354,0,0,1-13.817-6.6L218.941,171l-.012-.012a13.788,13.788,0,0,1,3.159-19.63l47.579-33.43c4.114-2.978,11.433-5.067,18.385-5.015a29.472,29.472,0,0,1,12.6,2.508l38.735,18.763a50.038,50.038,0,0,0,21.555,4.486c9.634-.047,19.373-2.141,27.4-7.069l39.568-24.615a16.445,16.445,0,0,1,8.716-2.391,17.554,17.554,0,0,1,13.724,6.359l40.568,51.908a18.886,18.886,0,0,1,3.694,11.514A19.246,19.246,0,0,1,490.038,187.146Z" fill="#05f"/>
    </g>
  </g>
</svg>
