<svg id="revenue" xmlns="http://www.w3.org/2000/svg" width="480" height="480" viewBox="0 0 480 480">
  <path id="Path_2729" data-name="Path 2729" d="M72,320c-35.785,0-72,10.992-72,32v96c0,21.008,36.215,32,72,32s72-10.992,72-32V352C144,330.992,107.785,320,72,320Zm0,16c36.375,0,56,11.359,56,16s-19.625,16-56,16-56-11.359-56-16S35.625,336,72,336Zm0,128c-36.375,0-56-11.359-56-16V436.8A126.879,126.879,0,0,0,72,448a126.879,126.879,0,0,0,56-11.2V448C128,452.641,108.375,464,72,464Zm0-32c-36.375,0-56-11.359-56-16V404.8A126.879,126.879,0,0,0,72,416a126.879,126.879,0,0,0,56-11.2V416C128,420.641,108.375,432,72,432Zm0-32c-36.375,0-56-11.359-56-16V372.8A126.879,126.879,0,0,0,72,384a126.879,126.879,0,0,0,56-11.2V384C128,388.641,108.375,400,72,400Zm0,0" fill="#05f"/>
  <path id="Path_2730" data-name="Path 2730" d="M240,256c-35.785,0-72,10.992-72,32V448c0,21.008,36.215,32,72,32s72-10.992,72-32V288C312,266.992,275.785,256,240,256Zm0,16c36.375,0,56,11.359,56,16s-19.625,16-56,16-56-11.359-56-16S203.625,272,240,272Zm0,192c-36.375,0-56-11.359-56-16V436.8A126.879,126.879,0,0,0,240,448a126.879,126.879,0,0,0,56-11.2V448C296,452.641,276.375,464,240,464Zm0-32c-36.375,0-56-11.359-56-16V404.8A126.879,126.879,0,0,0,240,416a126.879,126.879,0,0,0,56-11.2V416C296,420.641,276.375,432,240,432Zm0-32c-36.375,0-56-11.359-56-16V372.8A126.879,126.879,0,0,0,240,384a126.879,126.879,0,0,0,56-11.2V384C296,388.641,276.375,400,240,400Zm0-32c-36.375,0-56-11.359-56-16V340.8A126.879,126.879,0,0,0,240,352a126.879,126.879,0,0,0,56-11.2V352C296,356.641,276.375,368,240,368Zm0-32c-36.375,0-56-11.359-56-16V308.8A126.879,126.879,0,0,0,240,320a126.879,126.879,0,0,0,56-11.2V320C296,324.641,276.375,336,240,336Zm0,0" fill="#05f"/>
  <path id="Path_2731" data-name="Path 2731" d="M408,160c-35.785,0-72,10.992-72,32V448c0,21.008,36.215,32,72,32s72-10.992,72-32V192C480,170.992,443.785,160,408,160Zm0,16c36.375,0,56,11.359,56,16s-19.625,16-56,16-56-11.359-56-16S371.625,176,408,176Zm0,288c-36.375,0-56-11.359-56-16V436.8A126.879,126.879,0,0,0,408,448a126.879,126.879,0,0,0,56-11.2V448C464,452.641,444.375,464,408,464Zm0-32c-36.375,0-56-11.359-56-16V404.8A126.879,126.879,0,0,0,408,416a126.879,126.879,0,0,0,56-11.2V416C464,420.641,444.375,432,408,432Zm0-32c-36.375,0-56-11.359-56-16V372.8A126.879,126.879,0,0,0,408,384a126.879,126.879,0,0,0,56-11.2V384C464,388.641,444.375,400,408,400Zm0-32c-36.375,0-56-11.359-56-16V340.8A126.879,126.879,0,0,0,408,352a126.879,126.879,0,0,0,56-11.2V352C464,356.641,444.375,368,408,368Zm0-32c-36.375,0-56-11.359-56-16V308.8A126.879,126.879,0,0,0,408,320a126.879,126.879,0,0,0,56-11.2V320C464,324.641,444.375,336,408,336Zm0-32c-36.375,0-56-11.359-56-16V276.8A126.879,126.879,0,0,0,408,288a126.879,126.879,0,0,0,56-11.2V288C464,292.641,444.375,304,408,304Zm0-32c-36.375,0-56-11.359-56-16V244.8A126.879,126.879,0,0,0,408,256a126.879,126.879,0,0,0,56-11.2V256C464,260.641,444.375,272,408,272Zm0-32c-36.375,0-56-11.359-56-16V212.8A126.879,126.879,0,0,0,408,224a126.879,126.879,0,0,0,56-11.2V224C464,228.641,444.375,240,408,240Zm0,0" fill="#05f"/>
  <path id="Path_2732" data-name="Path 2732" d="M392,0V16h60.688l-152,152h-167.7L2.726,281.977l10.547,12.047L139.007,184h168.3L464,27.313V88h16V0Zm0,0" fill="#05f"/>
</svg>
