<svg id="technology" xmlns="http://www.w3.org/2000/svg" width="496" height="496" viewBox="0 0 496 496">
  <g id="Group_757" data-name="Group 757">
    <g id="Group_756" data-name="Group 756">
      <path id="Path_2728" data-name="Path 2728" d="M456,128H376a48,48,0,0,0-96,0H175.848a80,80,0,1,0-127.7,0H40A40.045,40.045,0,0,0,0,168V408a40.045,40.045,0,0,0,40,40h88v32H96v16H400V480H368V448h88a40.045,40.045,0,0,0,40-40V168A40.045,40.045,0,0,0,456,128ZM328,96a32,32,0,1,1-32,32A32.032,32.032,0,0,1,328,96Zm-45.2,48a48.014,48.014,0,0,0,9.952,16.472L226.016,233.88a63.374,63.374,0,0,0-54.128-6.592l-27.056-74.416A79.922,79.922,0,0,0,160,143.848V144ZM240,288a48,48,0,1,1-48-48A48.048,48.048,0,0,1,240,288ZM48,80a64,64,0,1,1,64,64A64.075,64.075,0,0,1,48,80ZM352,480H144V448H352Zm128-72a24.029,24.029,0,0,1-24,24H40a24.029,24.029,0,0,1-24-24v-8H480Zm0-24H16V168a24.029,24.029,0,0,1,24-24H64v-.152a78.971,78.971,0,0,0,65.656,14.12l27.736,76.272a64.037,64.037,0,1,0,81.008,9.808l67.016-73.72a47.713,47.713,0,0,0,51.064-3.776l47.776,41.808A31.564,31.564,0,0,0,400,224a32.3,32.3,0,1,0,15.352-27.2l-47.728-41.76A48.012,48.012,0,0,0,373.2,144H456a24.029,24.029,0,0,1,24,24ZM416,224a16,16,0,1,1,16,16A16.016,16.016,0,0,1,416,224Z" fill="#05f"/>
      <rect id="Rectangle_795" data-name="Rectangle 795" width="16" height="16" transform="translate(448 352)" fill="#05f"/>
      <rect id="Rectangle_796" data-name="Rectangle 796" width="64" height="16" transform="translate(368 352)" fill="#05f"/>
      <rect id="Rectangle_797" data-name="Rectangle 797" width="96" height="16" transform="translate(368 320)" fill="#05f"/>
    </g>
  </g>
</svg>
