<svg xmlns="http://www.w3.org/2000/svg" width="445" height="297" viewBox="0 0 445 297">
  <g id="About_us" data-name="About us" transform="translate(-19640 13363)">
    <rect id="Rectangle_398" data-name="Rectangle 398" width="445" height="297" transform="translate(19640 -13363)" fill="none"/>
    <g id="Group_701" data-name="Group 701" transform="translate(19693.004 -13363)">
      <g id="XMLID_3_" transform="translate(-0.004 0)">
        <path id="XMLID_4_" d="M208.6,91.271c11.856,10.195,37.985,27.639,71.74,19.257,8.911-4.833-.832-17.142-4.531-21.22-9.213-10.195-24.618-21.825-37.607-28.923C211.62,45.736,179,65.672,208.6,91.271Z" transform="translate(-67.683 -52.538)" fill="#ff8c00" fill-rule="evenodd" opacity="0.38"/>
        <path id="XMLID_5_" d="M342.929,338.714s32.245-46.669-5.362-87.146c0,0,33.831-45.687,12.309-97.567S286.9,106.5,253.9,117.074,177.851,122.36,144.85,81.052C111.7,39.67,73.337,48.43,58.686,67.762c-14.575,19.332-18.426,58.9-2.341,98.473,16.16,39.571,6.947,65.095-6.947,84.426-13.819,19.333-15.33,73.175,17.671,88.052Z" transform="translate(-29.31 -51.608)" fill="#ff8c00" fill-rule="evenodd" opacity="0.38"/>
        <path id="XMLID_6_" d="M27.912,431.9H362.223a2.177,2.177,0,0,1,2.114,2.19h0a2.177,2.177,0,0,1-2.114,2.19h-7.175a1.193,1.193,0,0,0-1.208,1.208h0a1.193,1.193,0,0,0,1.208,1.208h2.643a1.515,1.515,0,0,1,1.51,1.51h0a1.515,1.515,0,0,1-1.51,1.51H32.745a1.515,1.515,0,0,1-1.51-1.51h0a1.515,1.515,0,0,1,1.51-1.51h2.039a1.193,1.193,0,0,0,1.208-1.208h0a1.193,1.193,0,0,0-1.208-1.208H27.912a2.128,2.128,0,0,1-2.114-2.19h0a2.177,2.177,0,0,1,2.114-2.19Zm1.133,9.817a1.485,1.485,0,0,0,1.435-1.435v-.151a1.389,1.389,0,0,0-1.435-1.435h0a1.485,1.485,0,0,0-1.435,1.435v.151A1.485,1.485,0,0,0,29.045,441.717Z" transform="translate(-25.796 -144.718)" fill="#ff8c00" fill-rule="evenodd"/>
      </g>
      <g id="XMLID_9_" transform="translate(209.676 8.902)">
        <path id="XMLID_10_" d="M363.487,413.215s6.872,5.966,9.364,6.495c2.492.454,7.929.983,9.062,1.586s2.265,3.474,2.341,4c.151.529.454,2.417-1.208,2.417H352.31c-1.284,0-1.51-.68-1.51-1.737a4.287,4.287,0,0,1,.756-2.114v-5.89a2.2,2.2,0,0,1,2.19-2.417c2.568-.151,5.437,1.284,7.1-1.435C361.6,412.913,361.9,412.007,363.487,413.215Z" transform="translate(-315.05 -148.906)" fill="#01142e" fill-rule="evenodd"/>
        <path id="XMLID_11_" d="M366.61,413.215s6.57,5.739,9.213,6.419a4.831,4.831,0,0,1-3.323,1.51c-.983-.076-8-3.323-8.684-4.153-.6-.832,0-2.643,0-2.643h0c.076-.076.076-.151.151-.227C364.721,412.913,365.022,412.007,366.61,413.215Z" transform="translate(-318.173 -148.906)" fill="#01142e" fill-rule="evenodd"/>
        <path id="XMLID_12_" d="M383.749,427.5c.3.68.529,1.284.6,1.51.151.529.454,2.417-1.208,2.417H352.41c-1.284,0-1.51-.68-1.51-1.737a4.287,4.287,0,0,1,.756-2.114h32.093Z" transform="translate(-315.075 -152.543)" fill="#002049" fill-rule="evenodd"/>
        <path id="XMLID_13_" d="M384.42,176.956c-1.133-6.419-9.213-26.506-15.481-37.456,0,0-2.265,3.172-5.739,2.341l5.588,33.227C371.809,176.73,383.212,172.878,384.42,176.956Z" transform="translate(-318.086 -82.03)" fill="#d1d8e4" fill-rule="evenodd"/>
        <path id="XMLID_14_" d="M367.5,163.254l2.341,13.9c1.586.832,5.513.151,8.987-.076L371.049,148l-2.417,3.172Z" transform="translate(-319.139 -84.111)" fill="#949dae" fill-rule="evenodd"/>
        <path id="XMLID_15_" d="M365.925,226.7l2.039,4.229.529,6.494a49.338,49.338,0,0,1,2.643,4.682c.378,1.057,1.737,9.892,1.888,11.478s-7.023,73.477-8,86.39a191.667,191.667,0,0,0,.3,28.243c.151,1.284-5.966,3.4-8.156,3.625a26.176,26.176,0,0,1-6.192-.756H350.9c-.832-.227-.907-1.284-.907-1.284l-.6-22.73h0c.076-3.4.076-12.838-.076-16.765-.151-4.153-2.114-75.969-2.114-75.969l5.739-25.675Z" transform="translate(-314.166 -103.38)" fill="#949dae" fill-rule="evenodd"/>
        <path id="XMLID_16_" d="M365.95,406.6c.151,3.172.3,5.286.378,5.739.151,1.284-5.966,3.4-8.156,3.625a26.177,26.177,0,0,1-6.192-.756H351.9c-.832-.227-.907-1.284-.907-1.284v-.454Z" transform="translate(-315.097 -147.426)" fill="#7a8296" fill-rule="evenodd"/>
        <path id="XMLID_17_" d="M367.987,232.576l.529,6.343a49.352,49.352,0,0,1,2.643,4.682c.378.983,1.435,7.854,1.812,10.572l-12.234-4.455s-1.812-1.058-3.172,2.794c-.983,2.643-6.117,26.355-9.213,40.628-.529-18.8-1.059-37.456-1.059-37.456l4.153-18.8L366.1,232.5A8.354,8.354,0,0,0,367.987,232.576Z" transform="translate(-314.19 -104.8)" fill="#7a8296" fill-rule="evenodd"/>
        <path id="XMLID_18_" d="M320.712,227.2l-.907,3.1s-2.945,1.963-3.172,2.945c-.151.983-1.059,3.172-1.359,4.606s1.208,4.909.756,5.966-3.02,53.919-3.02,60.187a106.5,106.5,0,0,1-.454,10.8h0l-1.964,54.372a2.009,2.009,0,0,0,1.737,2.265c2.039.453,9.893.151,11.327-.151a9.462,9.462,0,0,0,2.114-.983c.907-.832.68-14.273.832-16.387.151-2.039,4.3-43.724,5.437-50.747s10.648-45.461,12.385-52.257c1.661-6.8,5.588-19.559,5.588-19.559Z" transform="translate(-305.201 -103.502)" fill="#949dae" fill-rule="evenodd"/>
        <path id="XMLID_19_" d="M310.67,410.9l-.076,1.435a2.009,2.009,0,0,0,1.737,2.265c2.039.453,9.892.151,11.327-.151a9.466,9.466,0,0,0,2.114-.983c.6-.529.68-5.815.756-10.27Z" transform="translate(-305.202 -146.589)" fill="#7a8296" fill-rule="evenodd"/>
        <path id="XMLID_20_" d="M316.757,239.151c0,.151-.076.227-.076.3-.3,1.435,1.208,4.909.756,5.966-.151.378-.68,8.156-1.133,18.048,9.364-5.966,22.655-14.424,24.694-15.33,3.247-1.435,3.7.378,3.7.378l1.284,3.4c1.208-4.833,3.323-12.007,4.531-15.934-2.568-.378-6.343-1.058-7.476-1.812S327.631,236.583,316.757,239.151Z" transform="translate(-306.607 -105.182)" fill="#7a8296" fill-rule="evenodd"/>
        <path id="XMLID_21_" d="M367.313,237.411a79.157,79.157,0,0,1-24.618,1.812c-13.215-1.208,9.817-9.137,16.085-6.947C364.972,234.467,367.313,237.411,367.313,237.411Z" transform="translate(-312.081 -104.651)" fill="#122344" fill-rule="evenodd"/>
        <path id="XMLID_22_" d="M329.805,134.376l-15.405,5.21s4.153,6.192,2.19,24.014c0,0,4.38,20.993,4.38,23.788s-2.341,14.877-2.341,16.689c0,1.661,19.181,13.215,38.287,6.494,5.739-2.039,4.229-4.984,3.927-6.646-2.568-12.083-2.265-26.582-2.794-30.056-.6-3.776,3.021-10.572,3.021-10.572l-3.776-24.618-10.648-4.38Z" transform="translate(-306.138 -80.757)" fill="#122344" fill-rule="evenodd"/>
        <path id="XMLID_23_" d="M350.429,146.98l6.343,45.536-3.247,9.288L346.2,191.533l1.133-44.555,1.812-.983Z" transform="translate(-313.924 -83.618)" fill="#ff8c00" fill-rule="evenodd"/>
        <path id="XMLID_24_" d="M350.523,141.2l-.68,3.549h-3.171L343.5,140.3l3.247-3.4s2.568,1.359,2.719,1.888S350.523,141.2,350.523,141.2Z" transform="translate(-313.263 -81.393)" fill="#ff8c00" fill-rule="evenodd"/>
        <path id="XMLID_25_" d="M336.6,119.7h13.366v14.8H344.68l-8.08-3.1Z" transform="translate(-311.574 -77.182)" fill="#d77f68" fill-rule="evenodd"/>
        <path id="XMLID_26_" d="M336.159,132.5v.68l9.666,4.455-4.3,5.664-6.721-9.365Z" transform="translate(-311.133 -80.316)" fill="#06152d" fill-rule="evenodd"/>
        <path id="XMLID_27_" d="M349.4,137.611l3.7-4.379V132.4l1.888,1.435-1.812,9.364Z" transform="translate(-314.708 -80.291)" fill="#06152d" fill-rule="evenodd"/>
        <g id="XMLID_28_" transform="translate(15.207 30.433)">
          <path id="XMLID_29_" d="M362.482,103.8a.454.454,0,0,1,.3.076h0a4.193,4.193,0,0,1,3.247,3.926,4.116,4.116,0,1,1-8.231.076,4.287,4.287,0,0,1,1.51-3.247c-.151,1.208.076,2.719,1.586,2.869v-2.341a1.435,1.435,0,0,1,1.586-1.359Z" transform="translate(-331.971 -103.719)" fill="#d77f68" fill-rule="evenodd"/>
          <path id="XMLID_30_" d="M327.149,103.692a.454.454,0,0,0-.3.076h0A4.046,4.046,0,0,0,323.6,107.7a4.117,4.117,0,1,0,8.231.227,4.049,4.049,0,0,0-1.51-3.247c.076,1.208-.076,2.719-1.661,2.87l.076-2.341a1.613,1.613,0,0,0-1.585-1.511Z" transform="translate(-323.598 -103.69)" fill="#d77f68" fill-rule="evenodd"/>
        </g>
        <path id="XMLID_31_" d="M341.546,117.679c-7.627,0-14.046-9.44-14.046-16.916V90.946A14.117,14.117,0,0,1,341.546,76.9h0a14.117,14.117,0,0,1,14.046,14.046v9.666C355.592,108.768,350,117.679,341.546,117.679Z" transform="translate(-309.346 -66.703)" fill="#e6ad83" fill-rule="evenodd"/>
        <g id="XMLID_32_" transform="translate(22.653 26.268)">
          <path id="XMLID_33_" d="M338.245,98.574a.576.576,0,0,1-.454,1.058,3.9,3.9,0,0,0-3.474.227.6.6,0,1,1-.68-.983A5.325,5.325,0,0,1,338.245,98.574Z" transform="translate(-333.379 -98.182)" fill="#06152d" fill-rule="evenodd"/>
          <path id="XMLID_34_" d="M356.663,98.907a.61.61,0,1,1-.6,1.058,3.9,3.9,0,0,0-3.474-.076.687.687,0,0,1-.832-.227.607.607,0,0,1,.227-.832A5.311,5.311,0,0,1,356.663,98.907Z" transform="translate(-337.902 -98.214)" fill="#06152d" fill-rule="evenodd"/>
        </g>
        <path id="XMLID_35_" d="M346.125,109.576a11.071,11.071,0,0,1,.68,2.19,1.908,1.908,0,0,1-2.039.151c-.3-.227.076-1.435.378-2.19C345.521,108.67,345.748,108.594,346.125,109.576Z" transform="translate(-313.547 -74.534)" fill="#ebbf9e" fill-rule="evenodd"/>
        <g id="XMLID_36_" transform="translate(29.255 40.102)">
          <path id="XMLID_37_" d="M348.09,117.029a2.945,2.945,0,1,1-5.89,0,.516.516,0,0,1,.529-.529h4.833a.516.516,0,0,1,.528.529Z" transform="translate(-342.199 -116.499)" fill="#06152d" fill-rule="evenodd"/>
          <path id="XMLID_38_" d="M343.3,116.5h4.229v.529a.487.487,0,0,1-.454.454h-3.246a.487.487,0,0,1-.454-.454V116.5Z" transform="translate(-342.469 -116.5)" fill="#fff" fill-rule="evenodd"/>
          <path id="XMLID_39_" d="M347.529,119.61a2.92,2.92,0,0,1-4.229,0,2.92,2.92,0,0,1,4.229,0Z" transform="translate(-342.469 -117.042)" fill="#d26070" fill-rule="evenodd"/>
        </g>
        <g id="XMLID_40_" transform="translate(23.667 31.266)">
          <path id="XMLID_41_" d="M336.461,108.123a1.661,1.661,0,1,0-1.661-1.661A1.661,1.661,0,0,0,336.461,108.123Z" transform="translate(-334.8 -104.8)" fill="#06152d" fill-rule="evenodd"/>
          <path id="XMLID_42_" d="M354.656,108.123a1.661,1.661,0,1,0-1.661-1.661A1.63,1.63,0,0,0,354.656,108.123Z" transform="translate(-339.251 -104.8)" fill="#06152d" fill-rule="evenodd"/>
        </g>
        <path id="XMLID_43_" d="M343.73,216.029c0,3.4-1.888,4.153-1.888,4.153-2.19,1.737-26.884,9.44-27.563,9.062s-.983-2.341-.983-2.341c1.888-12.913,2.19-24.694,4.909-37.381a1.366,1.366,0,0,1,.3-2.114c0-.832-2.417-22.806-2.417-22.806,2.644-15.178-1.962-24.768-1.962-24.768s11.328-4.758,11.932-4.833a1.573,1.573,0,0,1,1.133.454s7.853,27.864,8.231,29.827c.378,1.888.3,13.819.529,15.858C336.1,183.18,343.73,216.029,343.73,216.029Z" transform="translate(-305.866 -80.928)" fill="#d1d8e4" fill-rule="evenodd"/>
        <path id="XMLID_44_" d="M335.458,154.576c1.964,7.1,4,14.424,4.229,15.33.227,1.284.3,7.325.378,11.629h-.454l-8.911-14.8.832-11.855,2.417-.378Z" transform="translate(-310.129 -85.702)" fill="#a9b0c2" fill-rule="evenodd"/>
        <path id="XMLID_45_" d="M326.129,136.052a27.909,27.909,0,0,1,2.87-1.058,1.57,1.57,0,0,1,1.133.454s3.549,12.536,5.966,21.371l-10.5-9.439Z" transform="translate(-308.88 -80.922)" fill="#949dae" fill-rule="evenodd"/>
        <path id="XMLID_46_" d="M319.4,169.636l2.115-12.536,8.231,25.071-8.987,2.19Z" transform="translate(-307.362 -86.339)" fill="#949dae" fill-rule="evenodd"/>
        <path id="XMLID_47_" d="M316.9,217.2c.529-4.229,1.208-8.533,2.114-12.913a1.366,1.366,0,0,1,.3-2.114c0-.227-.227-2.265-.529-4.984l17.9-1.586v.3c.076.756,1.208,5.89,2.568,12.007Z" transform="translate(-306.75 -95.766)" fill="#949dae" fill-rule="evenodd"/>
        <path id="XMLID_48_" d="M357.6,134.576a5.833,5.833,0,0,1,.756-.076c.3.076,8.987,3.7,9.213,3.776.227.151.378.227.756,2.114.378,1.963,3.172,20.388,3.323,21.069a38.217,38.217,0,0,1,.454,5.21c.076,5.362-2.341,13.669-2.341,17.067,0,4.682,1.133,9.893,1.586,14.122a.68.68,0,0,0,.076.378c.378,4.833,6.721,16.991,6.268,25-.076,1.208-2.568,2.643-3.247,3.172s-.983.529-2.417-.076-8.611-7.4-8.611-7.4a6.285,6.285,0,0,1-1.359-4.153c.076-2.568.3-39.8.3-41.684s1.057-7.552,1.208-8.684-5.21-29.527-5.21-29.527Z" transform="translate(-316.715 -80.805)" fill="#d1d8e4" fill-rule="evenodd"/>
        <path id="XMLID_49_" d="M363.384,181.586v-3.625c0-1.888,1.057-7.552,1.208-8.684.076-.529-1.208-7.778-2.492-14.877h.907l5.211,12.007-4.078,15.179Z" transform="translate(-317.817 -85.678)" fill="#a9b0c2" fill-rule="evenodd"/>
        <path id="XMLID_50_" d="M357.6,134.576a5.833,5.833,0,0,1,.756-.076c.076,0,1.359.529,2.87,1.133l3.172,7.7-2.266,12.46c-1.51-8.76-3.851-20.993-3.851-20.993Z" transform="translate(-316.715 -80.805)" fill="#949dae" fill-rule="evenodd"/>
        <path id="XMLID_51_" d="M372.005,192.8a39.615,39.615,0,0,0-.756,5.286,44.872,44.872,0,0,0,.378,5.437l-7.929-.756c0-3.4,0-6.646.076-9.288Z" transform="translate(-318.207 -95.08)" fill="#949dae" fill-rule="evenodd"/>
        <path id="XMLID_52_" d="M322.432,416.249s-.227-3.549-2.417-3.549h-4.153c-1.435,0-2.794,2.19-3.172,3.776a2.478,2.478,0,0,0-1.661,1.737c-.3,1.359-.983,6.57-1.058,7.1s-.454,2.417,1.661,2.417h15.179c1.359,0,1.208-.983,1.208-1.586a9.6,9.6,0,0,0-.983-3.776C326.283,421.309,322.432,416.249,322.432,416.249Z" transform="translate(-305.033 -148.919)" fill="#01142e" fill-rule="evenodd"/>
        <path id="XMLID_53_" d="M323.342,416.249s-.227-3.549-2.417-3.549h-4.153c-1.435,0-2.794,2.19-3.172,3.776l1.737,3.625a3.151,3.151,0,0,0,2.265.832h4.833a1.426,1.426,0,0,0,1.208-1.435C323.568,418.29,323.342,416.249,323.342,416.249Z" transform="translate(-305.943 -148.919)" fill="#01142e" fill-rule="evenodd"/>
        <path id="XMLID_54_" d="M310.155,428.7a4.262,4.262,0,0,1-.076.529c-.076.529-.454,2.417,1.661,2.417H326.92c1.359,0,1.208-.983,1.208-1.586,0-.227-.076-.756-.151-1.359H310.155Z" transform="translate(-305.064 -152.837)" fill="#002049" fill-rule="evenodd"/>
        <path id="XMLID_55_" d="M325.54,179.385l28.092-3.7,5.135,9.288-37.909,9.289s-8.987,2.794-11.4-4.153-5.966-35.946-5.966-35.946a12.741,12.741,0,0,1,8.231-12.762,12.329,12.329,0,0,1,5.286,8.307c1.133,5.966,4.833,28.621,4.833,28.621A2.5,2.5,0,0,1,325.54,179.385Z" transform="translate(-303.459 -82.495)" fill="#d1d8e4" fill-rule="evenodd"/>
        <path id="XMLID_56_" d="M331.549,191.333l8.684-1.133,21.674,1.51,2.87,5.135-23.334,5.739L328,191.786l3.1-1.059A4.19,4.19,0,0,1,331.549,191.333Z" transform="translate(-309.468 -94.443)" fill="#949dae" fill-rule="evenodd"/>
        <path id="XMLID_57_" d="M363.241,102.238l-1.361-5.513s-4.38-3.172-2.794-7.627,1.888-4,1.888-4,5.815,2.643,3.247,14.424Z" transform="translate(-316.994 -68.706)" fill="#06152d" fill-rule="evenodd"/>
        <path id="XMLID_58_" d="M326.97,102.239l1.359-5.513s4.38-3.172,2.794-7.627-1.888-4-1.888-4-5.815,2.643-3.247,14.424Z" transform="translate(-308.816 -68.707)" fill="#06152d" fill-rule="evenodd"/>
        <path id="XMLID_59_" d="M325.857,89.149s-4.833.983-5.06-2.568,3.1-6.494,3.1-6.494-.983-6.343.756-9.364,5.513-.227,5.513-.227.6-3.474,4-2.643c0,0,.6-6.419,7.7-3.851,7.023,2.568,6.645,6.646,6.645,6.646s4.229-1.359,4.38,4c0,0,3.172.68,4.606,5.437,1.51,4.758-1.888,10.27-2.719,10.874s-3.172-1.51-3.927-3.851c0,0-1.208-.3-.983-2.265,0,0-5.966,3.7-8.231-.68,0,0-2.568,1.661-3.7-.68,0,0-6.268,6.721-9.742,1.963C324.573,80.691,325.857,89.149,325.857,89.149Z" transform="translate(-307.702 -63.395)" fill="#06152d" fill-rule="evenodd"/>
        <path id="XMLID_60_" d="M348.065,187.434l-10.044.151s-6.646-1.284-7.627-1.284a11.351,11.351,0,0,0-3.1.983l.529,3.474s5.211,2.568,6.419,3.172a4.287,4.287,0,0,0,4.078.151l9.515,1.284Z" transform="translate(-309.295 -93.489)" fill="#ebbf9e" fill-rule="evenodd"/>
        <path id="XMLID_61_" d="M353.135,187.8l-1.284.076L348,195.125l5.06.68Z" transform="translate(-314.365 -93.855)" fill="#d7766d" fill-rule="evenodd"/>
        <path id="XMLID_62_" d="M354.6,186.395l-.907,9.213a1.02,1.02,0,0,0,.832,1.059c.907.3,22.127-.227,22.127-.227s5.588-1.208,5.588-7.023a13.824,13.824,0,0,0-.151-1.586,5.4,5.4,0,0,0-5.362-3.927l-9.667,1.207-11.628.68S354.678,185.867,354.6,186.395Z" transform="translate(-315.757 -92.903)" fill="#d1d8e4" fill-rule="evenodd"/>
      </g>
      <g id="XMLID_63_" transform="translate(38.453 8.197)">
        <path id="XMLID_64_" d="M129.8,413.92s-6.872,6.041-9.364,6.57c-2.492.454-8,.983-9.137,1.661-1.208.68-2.265,3.474-2.341,4.078-.151.529-.454,2.417,1.208,2.417h30.886c1.284,0,1.586-.756,1.586-1.812a4.288,4.288,0,0,0-.756-2.114v-5.966a2.2,2.2,0,0,0-2.19-2.417c-2.643-.151-5.437,1.359-7.1-1.435-.907-1.208-1.208-2.19-2.794-.983Z" transform="translate(-84.585 -148.378)" fill="#111" fill-rule="evenodd"/>
        <path id="XMLID_65_" d="M133.613,413.918s-6.645,5.815-9.213,6.494a4.967,4.967,0,0,0,3.323,1.51c.983-.076,8.08-3.323,8.76-4.229.68-.832,0-2.643,0-2.643h0c-.076-.076-.076-.151-.151-.227-.832-1.133-1.133-2.114-2.719-.907Z" transform="translate(-88.397 -148.376)" fill="#111" fill-rule="evenodd"/>
        <path id="XMLID_66_" d="M109.361,428.4c-.3.68-.529,1.284-.6,1.51-.151.529-.454,2.417,1.208,2.417h30.887c1.284,0,1.586-.756,1.586-1.813a4.287,4.287,0,0,0-.756-2.114Z" transform="translate(-84.534 -152.059)" fill="#1c1c1c" fill-rule="evenodd"/>
        <path id="XMLID_67_" d="M123.014,137.2s-7.25,2.039-8.307,5.588a187.61,187.61,0,0,0-5.437,22.881c-.6,3.172-7.4-8.684-10.5-15.1a70.683,70.683,0,0,1-11.478,2.643c-2.492.3,9.817,30.131,16.614,35.19,6.57,4.984,14.273-.983,21.069-24.845.076,0,4.38-15.179-1.963-26.355Z" transform="translate(-79.232 -80.762)" fill="#303030" fill-rule="evenodd"/>
        <path id="XMLID_68_" d="M99.625,156.487a15.1,15.1,0,0,1-.756-1.586,70.684,70.684,0,0,1-11.478,2.643c-2.492.3,9.817,30.131,16.614,35.19,6.419,4.833,13.819-.6,20.54-22.881-.983-3.247-1.737-5.437-1.737-5.437s-4.076,13.442-7.323,19.407c-3.172,5.966-9.364,5.739-13.442.454S88.3,161.773,92,161.018a11.925,11.925,0,0,0,7.627-4.531Z" transform="translate(-79.254 -85.096)" fill="#232323" fill-rule="evenodd"/>
        <path id="XMLID_69_" d="M130.54,225.3l-2.114,4.3-.529,6.57s-2.265,3.625-2.719,4.758c-.378,1.059,1.133,9.591.983,11.252s4.153,74.685,5.135,87.825a213.486,213.486,0,0,1-.227,28.545c-.151,1.284,6.041,3.474,8.231,3.625a26.744,26.744,0,0,0,6.268-.756h.076c.832-.227.907-1.284.907-1.284l.6-23.032h0c-.076-3.474-.076-12.989.076-16.991.151-4.153,2.114-76.875,2.114-76.875L143.6,227.263Z" transform="translate(-88.571 -102.332)" fill="#1c1c1c" fill-rule="evenodd"/>
        <path id="XMLID_70_" d="M143.8,378.154h.151a26.74,26.74,0,0,0,6.268-.756h.076c.832-.227.907-1.284.907-1.284l.6-23.032h0c-.076-3.474-.076-12.989.076-16.991.076-3.172,1.284-46.442,1.812-66.605L145.31,249.7c-1.888,3.851,1.963,10.195,1.586,19.936-.983,23.788.378,66-.227,92.583-.227,7.854-.68,12.46-2.87,15.934Z" transform="translate(-93.146 -108.306)" fill="#111" fill-rule="evenodd"/>
        <path id="XMLID_71_" d="M171.277,225.7l.983,3.1s3.021,2.039,3.172,3.021c.227.983,1.058,3.172,1.359,4.682.3,1.435,3.474,6.8,3.927,7.929.454,1.058-2.417,16.84-2.417,23.259,0,4.682,1.435,46.518,1.208,46.82l1.963,55.051a2.009,2.009,0,0,1-1.737,2.265c-2.039.453-10.044.151-11.478-.151a9.469,9.469,0,0,1-2.114-.983c-.983-.832-.68-14.424-.832-16.538-.227-2.114-4.38-44.253-5.513-51.351-.6-4-4-18.124-7.1-30.962-2.417-9.893-6.494-19.936-7.25-22.957-1.737-6.872-3.851-18.8-3.851-18.8Z" transform="translate(-92.607 -102.43)" fill="#1c1c1c" fill-rule="evenodd"/>
        <path id="XMLID_72_" d="M127.7,236.088a78.47,78.47,0,0,0,24.92,1.812c13.366-1.208-9.893-9.213-16.236-7.023C129.965,233.067,127.7,236.088,127.7,236.088Z" transform="translate(-89.205 -103.605)" fill="#ff9f21" fill-rule="evenodd"/>
        <path id="XMLID_73_" d="M160.086,131.876l15.632,5.286s-4.229,6.268-2.19,24.316c0,0-4.38,21.22-4.38,24.09s2.417,15.1,2.417,16.916-24.921,13.819-45.536,3.7a3.112,3.112,0,0,1-.529-1.737c-.076-1.284,14.2-23.561,14.8-27.412s-11.629-15.858-11.629-15.858l3.851-24.92,10.8-4.455Z" transform="translate(-88.665 -79.44)" fill="#fff" fill-rule="evenodd"/>
        <path id="XMLID_74_" d="M151.112,131.8h.076v.68l3.776,4.455,9.817-4.531v-.529h.151l1.208,1.284L159.495,143.2l-4.531-6.268-5.512,5.286-.151-9.137Z" transform="translate(-94.493 -79.44)" fill="#d0d9e6" fill-rule="evenodd"/>
        <path id="XMLID_75_" d="M152.1,143.283l-6.8,34.283,2.643,22.2,9.666-12.536-2.341-43.95-1.888-.983Z" transform="translate(-93.514 -82.01)" fill="#ff8c00" fill-rule="evenodd"/>
        <path id="XMLID_76_" d="M151.5,137.647l1.737,4.909,3.7.076,2.039-4.758-3.247-3.474C153.237,135.684,153.161,136.59,151.5,137.647Z" transform="translate(-95.032 -80.076)" fill="#ba2b27" fill-rule="evenodd"/>
        <path id="XMLID_77_" d="M166.822,110.8,149,112.461l.529,15.179,6.721,2.869,6.8-3.549Z" transform="translate(-94.42 -74.298)" fill="#f2856e" fill-rule="evenodd"/>
        <path id="XMLID_78_" d="M154.517,134.283l-5.058-7.022-1.058,2.945.756,10.119,5.362-6.041,4.3,5.739,6.872-9.515-1.661-4.3Z" transform="translate(-94.273 -78.071)" fill="#fff" fill-rule="evenodd"/>
        <path id="XMLID_79_" d="M193.461,235.989a11.108,11.108,0,0,1-4.078,10.119s-2.945-11.328-2.039-14.348,2.114-2.568,2.114-2.568Z" transform="translate(-103.765 -103.279)" fill="#fcb187" fill-rule="evenodd"/>
        <path id="XMLID_80_" d="M189.032,232l-.832,2.568s1.737,4.606,3.927,5.89a16.122,16.122,0,0,0,2.341,1.284l2.114-4.455Z" transform="translate(-104.017 -103.972)" fill="#d0d9e6" fill-rule="evenodd"/>
        <path id="XMLID_81_" d="M190.775,138.9s5.664,1.208,7.552,6.721C200.139,151.131,209.5,182.7,209.5,182.7c-2.945,14.424-4.606,19.785-10.648,33.6-2.568,4.758-10.119-6.494-10.8-7.1h0l7.476-21.674-6.947-24.316c.076,0-4.078-13.14,2.19-24.316Z" transform="translate(-103.798 -81.175)" fill="#303030" fill-rule="evenodd"/>
        <path id="XMLID_82_" d="M181.252,227.679c.68-.378-2.794-17.444-2.039-19.785a35.7,35.7,0,0,1,1.284-5.588l-3.247-14.877a1.321,1.321,0,0,0-.3-2.114c0-.832,2.417-23.108,2.417-23.108-2.643-15.405,1.964-25.071,1.964-25.071-5.211-2.19-9.591-4.606-15.1-5.135-2.417,5.739-15.556,39.193-16.085,45.159-.151,1.359-.68,15.858-1.058,26.582-.227,5.135.378,9.062,3.1,12.385,8.382,10.195,27.412,12.46,29.074,11.554Z" transform="translate(-94.426 -79.489)" fill="#303030" fill-rule="evenodd"/>
        <path id="XMLID_83_" d="M184.209,239.994a23.235,23.235,0,0,0,4.455,1.058c.68-.378-2.794-17.444-2.039-19.785a35.7,35.7,0,0,1,1.284-5.588L184.662,200.8a1.321,1.321,0,0,0-.3-2.114c0-.227.227-2.417.529-5.437-1.737-3.851-3.021-6.646-3.021-6.646-2.492,12.685-2.568,12.61-2.568,12.61s1.661,5.135,1.059,7.476c-.529,2.341,2.568,20.313,3.549,27.337a21.048,21.048,0,0,1,.3,5.966Z" transform="translate(-101.839 -92.86)" fill="#232323" fill-rule="evenodd"/>
        <path id="XMLID_84_" d="M185.145,192.39c0-.832,2.417-23.108,2.417-23.108a58.188,58.188,0,0,1-.832-8.382l-4.53,19.936Z" transform="translate(-102.548 -86.564)" fill="#232323" fill-rule="evenodd"/>
        <path id="XMLID_85_" d="M141.988,131.7c0-.3-10.346,3.927-10.572,4.078s-.378.227-.832,2.19c-.378,1.963-3.247,20.615-3.323,21.3a17.407,17.407,0,0,0,.227,4.531,46.977,46.977,0,0,1,.756,6.268c-.076.378.227,11.932-.983,20.163-1.284,9.137-3.625,18.879-6.192,31.641-1.435,7.1,16.463-1.435,19.936-7.627,3.1-5.664,1.586-9.288,1.888-12.838.907-10.648,2.19-24.392,2.039-25.6-.227-4.909-3.172-42.742-2.945-44.1Z" transform="translate(-87.56 -79.41)" fill="#303030" fill-rule="evenodd"/>
        <path id="XMLID_86_" d="M175.14,417.025s.3-3.625,2.568-3.625h4.531c1.51,0,3.021,2.265,3.474,3.851a2.573,2.573,0,0,1,1.812,1.813c.3,1.434,1.058,6.646,1.133,7.174s.529,2.417-1.812,2.417H170.382c-1.435,0-1.284-.983-1.284-1.586a8.268,8.268,0,0,1,1.133-3.851c.68-1.058,4.909-6.192,4.909-6.192Z" transform="translate(-99.339 -148.386)" fill="#111" fill-rule="evenodd"/>
        <path id="XMLID_87_" d="M177.081,417.025s.3-3.625,2.568-3.625h4.531c1.51,0,3.021,2.265,3.474,3.851l-1.812,3.625a3.546,3.546,0,0,1-2.417.832h-5.211s-1.359-.227-1.284-1.435a25.659,25.659,0,0,1,.151-3.247Z" transform="translate(-101.281 -148.386)" fill="#111" fill-rule="evenodd"/>
        <path id="XMLID_88_" d="M188.482,429.7a4.254,4.254,0,0,0,.076.529c.076.529.529,2.417-1.812,2.417H170.282c-1.435,0-1.284-.983-1.284-1.586a6.959,6.959,0,0,1,.227-1.359h19.256Z" transform="translate(-99.315 -152.377)" fill="#1c1c1c" fill-rule="evenodd"/>
        <path id="XMLID_89_" d="M87,153.564c3.549.907,5.437,1.133,7.929-1.208,2.568-2.341,1.284-.378,2.794,1.737,2.341,3.247-5.437,5.739-8.987,4.909Z" transform="translate(-79.24 -84.213)" fill="#d0d9e6" fill-rule="evenodd"/>
        <path id="XMLID_90_" d="M81.312,143.647c-3.625-6.8-5.664-10.043-4-10.27s3.851,3.927,3.851,3.927-2.568-6.721-.907-6.947c1.661-.151,3.776,6.419,3.776,6.419s-1.812-5.437-1.737-7.4c.076-.6.983-1.058,1.284-.68,1.51,1.586,3.247,7.023,3.247,7.023s-1.812-4.984-1.661-6.872c0-.454.454-.832.756-.756,1.359.3,3.4,7.627,3.4,7.627l3.851,5.89-3.927,4.3Z" transform="translate(-76.724 -78.525)" fill="#fcb187" fill-rule="evenodd"/>
        <path id="XMLID_91_" d="M82.2,145.116c3.4,6.117,3.851,6.268,5.664,6.8s6.419-.6,8-4.682,2.643-7.551,3.474-9.137-.983-1.661-2.265-.3a49.482,49.482,0,0,0-3.549,4.833S86.5,139.905,82.2,145.116Z" transform="translate(-78.065 -80.673)" fill="#fcb187" fill-rule="evenodd"/>
        <path id="XMLID_92_" d="M84.2,148.067c2.114,3.549,2.643,3.776,4.153,4.229,1.812.529,6.419-.6,8-4.682s2.643-7.551,3.474-9.137a1.276,1.276,0,0,0,.151-.378c-.076,0-.076.076-.151.076-.529.151-2.643,5.739-3.625,7.929a8.84,8.84,0,0,1-6.57,4.3c-1.661-.151-3.625-.151-5.437-2.341Z" transform="translate(-78.554 -80.981)" fill="#f2856e" fill-rule="evenodd"/>
        <path id="XMLID_93_" d="M144,132.558l-6.8,4.681,5.815,2.945-5.512,4.833,10.119,28.091.983-.832-2.8-40.777Z" transform="translate(-91.531 -79.366)" fill="#232323" fill-rule="evenodd"/>
        <path id="XMLID_94_" d="M166.885,130.9l7.25,7.7-7.325,2.19,4.078,4.153L150.8,173.189Z" transform="translate(-94.86 -79.219)" fill="#232323" fill-rule="evenodd"/>
        <path id="XMLID_95_" d="M152.607,196.321c.529,0,.907-.68.907-1.51s-.378-1.51-.907-1.51-.907.68-.907,1.51C151.776,195.642,152.154,196.321,152.607,196.321Z" transform="translate(-95.081 -94.497)" fill="#d0d9e6" fill-rule="evenodd"/>
        <path id="XMLID_96_" d="M151.975,208.4c.529,0,.907.68.832,1.51,0,.832-.454,1.435-.983,1.435s-.907-.68-.832-1.51C150.992,209,151.446,208.322,151.975,208.4Z" transform="translate(-94.903 -98.192)" fill="#d0d9e6" fill-rule="evenodd"/>
        <path id="XMLID_97_" d="M158.366,169.287c-9.288,17.369-6.57,7.627-8.231,31.566l-1.435,18.5.378-18.5c.68-23.108-1.058-15.254,7.7-32.321a.88.88,0,0,1,1.208-.378.78.78,0,0,1,.378,1.133Z" transform="translate(-94.346 -88.306)" fill="#232323" fill-rule="evenodd"/>
        <path id="XMLID_98_" d="M139.346,97.692a.454.454,0,0,0-.3.076h0a4.2,4.2,0,1,0,3.474.832c.076,1.208-.076,2.719-1.661,2.87V99.053c.076-.907-.832-1.359-1.51-1.359Z" transform="translate(-91.185 -71.083)" fill="#f2856e" fill-rule="evenodd"/>
        <path id="XMLID_99_" d="M175.179,97.692a.454.454,0,0,1,.3.076h0a4.124,4.124,0,1,1-4.984,4.078,4.2,4.2,0,0,1,1.51-3.322c-.076,1.208.076,2.719,1.661,2.87l-.076-2.417c0-.832.907-1.284,1.586-1.284Z" transform="translate(-99.681 -71.083)" fill="#f2856e" fill-rule="evenodd"/>
        <path id="XMLID_100_" d="M154.1,111.807c7.7,0,14.2-9.591,14.2-17.067V84.7a14.229,14.229,0,0,0-14.2-14.2h0a14.229,14.229,0,0,0-14.2,14.2v9.817C139.9,102.745,145.488,111.807,154.1,111.807Z" transform="translate(-92.192 -64.431)" fill="#fcb187" fill-rule="evenodd"/>
        <path id="XMLID_101_" d="M164.819,92.557a.576.576,0,1,0,.454,1.058,3.9,3.9,0,0,1,3.474.227.607.607,0,0,0,.832-.227.626.626,0,0,0-.227-.832,5.038,5.038,0,0,0-4.531-.227Z" transform="translate(-98.232 -69.724)" fill="#111"/>
        <path id="XMLID_102_" d="M146.188,92.807a.61.61,0,0,0,.6,1.058,3.9,3.9,0,0,1,3.474-.076.61.61,0,1,0,.6-1.058,5.308,5.308,0,0,0-4.682.076Z" transform="translate(-93.647 -69.747)" fill="#111"/>
        <path id="XMLID_103_" d="M157.975,103.68a7.864,7.864,0,0,0-.68,2.265c.076.3,1.661.6,2.039.227.3-.227-.076-1.435-.378-2.265-.454-1.133-.68-1.208-.983-.227Z" transform="translate(-96.447 -72.388)" fill="#ffc3a1" fill-rule="evenodd"/>
        <path id="XMLID_104_" d="M155.088,115.541a2.289,2.289,0,0,0,2.341,2.265,2.339,2.339,0,0,0,2.341-2.265.487.487,0,0,0-.454-.454h-3.775a.4.4,0,0,0-.454.454Z" transform="translate(-95.901 -75.339)" fill="#111" fill-rule="evenodd"/>
        <path id="XMLID_105_" d="M159.821,113H156.5v.378a.357.357,0,0,0,.378.378h2.568a.357.357,0,0,0,.378-.378Z" transform="translate(-96.254 -74.837)" fill="#fff" fill-rule="evenodd"/>
        <path id="XMLID_106_" d="M155.9,117.559a2.22,2.22,0,0,0,1.661.68,2.4,2.4,0,0,0,1.661-.68,2.205,2.205,0,0,0-3.323,0Z" transform="translate(-96.109 -75.77)" fill="#fa6676" fill-rule="evenodd"/>
        <path id="XMLID_107_" d="M139.384,96.365l1.359-5.588s4.455-3.247,2.87-7.7C142.027,78.543,141.725,79,141.725,79s-5.891,2.643-3.249,14.65Z" transform="translate(-91.676 -66.508)" fill="#232323" fill-rule="evenodd"/>
        <path id="XMLID_108_" d="M175.917,96.365l-1.359-5.588s-4.455-3.247-2.87-7.7c1.586-4.531,1.888-4.078,1.888-4.078s5.89,2.643,3.247,14.65Z" transform="translate(-99.89 -66.508)" fill="#232323" fill-rule="evenodd"/>
        <path id="XMLID_109_" d="M167.157,100.164a1.569,1.569,0,0,0-.907.378,1.213,1.213,0,0,0-.378.832.5.5,0,0,1-.454.529.516.516,0,0,1-.529-.529,2.173,2.173,0,0,1,.68-1.586,2.355,2.355,0,0,1,1.586-.68,2.174,2.174,0,0,1,1.586.68,2.355,2.355,0,0,1,.68,1.586.516.516,0,0,1-.529.529.5.5,0,0,1-.454-.529,1.213,1.213,0,0,0-.378-.832,1.2,1.2,0,0,0-.907-.378Z" transform="translate(-98.304 -71.439)" fill="#111" fill-rule="evenodd"/>
        <path id="XMLID_110_" d="M148.787,100.159a1.3,1.3,0,0,0-1.208,1.208.5.5,0,0,1-.454.529.516.516,0,0,1-.529-.529,2.173,2.173,0,0,1,.68-1.586,2.355,2.355,0,0,1,1.586-.68,2.173,2.173,0,0,1,1.586.68,2.294,2.294,0,0,1,.6,1.586.5.5,0,0,1-.454.529.516.516,0,0,1-.529-.529,1.213,1.213,0,0,0-.378-.832,1.2,1.2,0,0,0-.907-.378Z" transform="translate(-93.829 -71.434)" fill="#111" fill-rule="evenodd"/>
        <path id="XMLID_111_" d="M153.452,114.561c2.114,0,3.1-2.568,3.1-3.474s-.454-1.208-.983-1.208h-4.228c-.529,0-.983.378-.983,1.208.076.907,1.058,3.474,3.1,3.474Zm0-8c7.1,0,6.041,7.1,8.76,4.758a12.8,12.8,0,0,0,4.3-8.911V94.7l1.359,1.359.378,3.549a18.694,18.694,0,0,0-.454,4.078c0,12.158-9.893,17.218-14.424,17.293-4.682-.076-14.424-5.06-14.424-17.293a17.847,17.847,0,0,0-.454-4.078l.378-3.549,1.359-1.359v7.7a12.8,12.8,0,0,0,4.3,8.911c2.87,2.341,1.812-4.758,8.911-4.758Z" transform="translate(-91.848 -70.356)" fill="#232323" fill-rule="evenodd"/>
        <path id="XMLID_114_" d="M157.06,96.58a11.729,11.729,0,0,1-2.719.6,11.717,11.717,0,0,1-2.719-.6,22.991,22.991,0,0,0-10.044-.227c-.832.151-.907,1.737-.151,1.888a.815.815,0,0,1,.6.529c.227.6.756,3.247,1.661,4.229,1.812,1.963,7.25,1.963,8.609-1.208a14.637,14.637,0,0,1,1.435-3.172,1.133,1.133,0,0,1,1.359,0,19.7,19.7,0,0,1,1.435,3.172c1.359,3.1,6.8,3.1,8.609,1.208.983-.983,1.435-3.625,1.661-4.229a1.01,1.01,0,0,1,.6-.529c.756-.151.68-1.737-.151-1.888a24.835,24.835,0,0,0-10.195.227Zm-5.135,1.359c.529.832-.227,3.1-.756,3.927-1.284,2.039-4.3,2.114-6.343,1.058-.832-.378-1.208-1.737-1.435-2.568s-.529-2.568.454-3.1c1.51-.832,7.25-.68,8.08.68Zm5.513,3.927c-.454-.832-1.208-3.172-.756-3.927.832-1.359,6.645-1.51,8.08-.6.983.529.6,2.265.378,3.1s-.6,2.114-1.435,2.568c-1.963.983-4.984.907-6.268-1.133Z" transform="translate(-92.436 -70.649)" fill="#111" fill-rule="evenodd"/>
        <path id="XMLID_118_" d="M164.836,79.107c6.872,7.25,8.307-6.721-.454-12.385-7.174-4.682-19.559-1.359-19.559-1.359,5.664-6.192-12.309-2.492-8.684,11.4,1.435,5.513,6.872,9.817,15.33,6.494s11.478.151,12.234.151c.68,0,1.359-1.888,1.133-4.3Z" transform="translate(-91.151 -62.465)" fill="#303030" fill-rule="evenodd"/>
        <path id="XMLID_119_" d="M94.7,144.133c.151-.227-.454-1.058-.756-1.133-2.643.68-5.89,2.492-6.646,5.286v.151c.454-1.586,2.87-3.4,4.909-4.078a4.408,4.408,0,0,1,2.492-.227Z" transform="translate(-79.31 -82.182)" fill="#f2856e" fill-rule="evenodd"/>
        <path id="XMLID_120_" d="M90.431,139.3c.3-.529-1.737-.907-3.7-.3a6.823,6.823,0,0,0-4.531,4.834v.151c.529-1.737,3.172-3.7,5.362-4.455a8.857,8.857,0,0,1,2.87-.227Z" transform="translate(-78.065 -81.124)" fill="#f2856e" fill-rule="evenodd"/>
      </g>
      <g id="XMLID_121_" transform="translate(136.277 22.999)">
        <path id="XMLID_122_" d="M257.187,140.974a12.666,12.666,0,1,0-8.977-3.71A12.687,12.687,0,0,0,257.187,140.974Z" transform="translate(-215.626 -90.275)" fill="#06152d" fill-rule="evenodd"/>
        <path id="XMLID_123_" d="M240.187,148.774a12.666,12.666,0,1,0-8.977-3.71,12.687,12.687,0,0,0,8.977,3.71Z" transform="translate(-211.464 -92.185)" fill="#06152d" fill-rule="evenodd"/>
        <path id="XMLID_124_" d="M276.5,155.388l3.549-5.588s3.851,1.208,5.513,3.625,9.515,18.5,11.78,23.863,2.492,7.476.378,13.442c-2.039,6.041-7.325,14.65-8.307,16.16a14.56,14.56,0,0,1-2.643,3.021c-.529.454-4.153-.68-4.153-.68l.529-4.833s.832.832,1.737-.3,6.343-17.822,6.494-18.577c.227-.756-.227-1.586-.756-2.643s-11.932-16.916-11.932-16.916Z" transform="translate(-223.461 -98.648)" fill="#e6ad83" fill-rule="evenodd"/>
        <path id="XMLID_125_" d="M298.238,179.432l.076.151-6.494,7.4c-.756-1.133-1.737-2.492-2.719-3.851l6.041-4.532Z" transform="translate(-226.546 -105.699)" fill="#d77f68" fill-rule="evenodd"/>
        <path id="XMLID_126_" d="M286.9,152.8a19.026,19.026,0,0,1,2.492,3.549c1.208,2.114,7.854,15.934,7.854,15.934a.848.848,0,0,1-.227.832c-.3.3-7.476,6.041-7.476,6.041s-.68.529-1.208.076c-.529-.529-4.229-6.8-4.229-6.8S281.617,155.745,286.9,152.8Z" transform="translate(-225.179 -99.382)" fill="#ff8c00" fill-rule="evenodd"/>
        <path id="XMLID_127_" d="M228.946,155.388,225.4,149.8s-3.851,1.208-5.513,3.625-9.515,18.5-11.781,23.863-2.492,7.476-.378,13.442c2.039,6.041,7.325,14.65,8.307,16.16a14.561,14.561,0,0,0,2.643,3.021c.529.454,4.153-.68,4.153-.68L222.3,204.4s-.832.832-1.737-.3-6.343-17.822-6.494-18.577c-.227-.756.227-1.586.756-2.643s11.932-16.916,11.932-16.916Z" transform="translate(-206.264 -98.648)" fill="#e6ad83" fill-rule="evenodd"/>
        <path id="XMLID_128_" d="M217.843,186.964c.756-1.133,1.737-2.492,2.719-3.851l-6.117-5.513-2.945,1.661Z" transform="translate(-207.546 -105.454)" fill="#d77f68" fill-rule="evenodd"/>
        <path id="XMLID_129_" d="M221.636,152.8a19.029,19.029,0,0,0-2.492,3.549c-1.208,2.114-7.854,15.934-7.854,15.934a.848.848,0,0,0,.227.832c.3.3,7.476,6.041,7.476,6.041s.68.529,1.208.076c.529-.529,4.229-6.8,4.229-6.8S226.922,155.745,221.636,152.8Z" transform="translate(-207.487 -99.382)" fill="#ff8c00" fill-rule="evenodd"/>
        <path id="XMLID_130_" d="M247.976,82.393a20.032,20.032,0,0,0-13.442,9.817c-3.625,6.268-1.737,13.97.227,20.087H265.42c1.058-7.174,3.7-16.991,2.19-20.615-1.812-4.3-5.664-3.247-5.664-3.247S260.813,80.354,247.976,82.393Z" transform="translate(-212.683 -82.063)" fill="#06152d" fill-rule="evenodd"/>
        <path id="XMLID_131_" d="M269.242,209.444H230.2c4.984-10.8,4-17.218,2.265-29.6-2.265-4.455-4-12.46-2.794-18.2a92.515,92.515,0,0,0,1.359-14.046s11.328-2.492,12.385-3.021c.983-.529,1.133-2.643,1.133-2.643l5.286-1.133,5.286,1.133s.076,2.114,1.133,2.643c.983.529,12.385,3.021,12.385,3.021A92.515,92.515,0,0,0,270,161.642c1.208,5.739-.529,13.819-2.794,18.2C265.315,192.226,264.258,198.72,269.242,209.444Z" transform="translate(-211.898 -96.443)" fill="#d77f68" fill-rule="evenodd"/>
        <g id="XMLID_132_" transform="translate(3.222 120.929)">
          <g id="XMLID_133_" transform="translate(0)">
            <path id="XMLID_134_" d="M236.494,286.528c2.265-14.273,4.455-19.785,5.06-24.467l-14.2-19.861c.6,5.135-5.966,41.76-6.117,42.591-5.286,29.451-2.039,66.228-3.172,79.9-.076,1.284-2.114,11.781-2.114,11.781l-1.058,4.3.151,1.737,4.833,1.133,4.531-3.247s1.058-11.252.756-13.366a19.094,19.094,0,0,0-.6-3.323l-.378-.529C228.036,337.8,234.228,300.876,236.494,286.528Z" transform="translate(-211.598 -242.2)" fill="#e6ad83" fill-rule="evenodd"/>
            <path id="XMLID_135_" d="M214.887,415.689a24.361,24.361,0,0,1-1.435,3.323,37.559,37.559,0,0,0-2.643,3.4c-.3.68-.832,2.719,1.435,2.719h8.08c2.114,0,3.927-.68,4-2.643,0-1.963.151-9.062.454-10.572s1.059-3.247.68-4.758a20.6,20.6,0,0,0-1.812-4.38,2.877,2.877,0,0,0-.454-.378l.227,1.359a3.829,3.829,0,0,1,.151.983c.227,2.19-.6,12.158-.6,12.989s-.907,1.359-2.492,1.812-4.909.832-6.117-.378c0,0-.227-.151-.076-.6C214.283,418.105,214.887,415.689,214.887,415.689Z" transform="translate(-210.531 -281.421)" fill="#283766" fill-rule="evenodd"/>
          </g>
          <g id="XMLID_136_" transform="translate(39.547)">
            <path id="XMLID_137_" d="M267.884,286.528c-2.266-14.272-4.455-19.785-4.984-24.467L277.1,242.2c-.6,5.135,5.966,41.76,6.117,42.591,5.286,29.451,2.039,66.228,3.172,79.9.076,1.284,2.114,11.781,2.114,11.781l1.058,4.3-.151,1.737-4.833,1.132-4.532-3.247s-1.058-11.252-.756-13.366a19.088,19.088,0,0,1,.6-3.323l.378-.529C276.266,337.8,270.15,300.876,267.884,286.528Z" transform="translate(-262.9 -242.2)" fill="#e6ad83" fill-rule="evenodd"/>
            <path id="XMLID_138_" d="M293.234,415.689a24.357,24.357,0,0,0,1.435,3.323,37.564,37.564,0,0,1,2.643,3.4c.3.68.832,2.719-1.435,2.719H287.8c-2.115,0-3.927-.68-4-2.643,0-1.963-.151-9.062-.454-10.572s-1.059-3.247-.681-4.758a20.605,20.605,0,0,1,1.812-4.38,2.879,2.879,0,0,1,.454-.378l-.227,1.359a3.83,3.83,0,0,0-.151.983c-.227,2.19.6,12.158.6,12.989s.907,1.359,2.492,1.812,4.909.832,6.117-.378c0,0,.227-.151.076-.6C293.838,418.105,293.234,415.689,293.234,415.689Z" transform="translate(-267.71 -281.421)" fill="#283766" fill-rule="evenodd"/>
          </g>
        </g>
        <g id="XMLID_139_" transform="translate(12.032 153.174)">
          <path id="XMLID_140_" d="M238.279,298.158c.529-3.247,1.059-6.041,1.51-8.458-6.57.756-12.309,1.435-16.01,1.888-.454,2.794-.832,4.606-.832,4.758-.227,1.435-.529,2.945-.756,4.38a90.206,90.206,0,0,0,14.877,4.682C237.6,302.613,237.977,300.2,238.279,298.158Z" transform="translate(-222.192 -286.075)" fill="#d77f68" fill-rule="evenodd"/>
          <path id="XMLID_141_" d="M268.888,296.983c-.68-4.078-1.284-7.476-1.888-10.346,5.739-.68,11.1-1.284,15.405-1.737.983,5.739,1.737,10.044,1.812,10.27.529,3.1.983,6.268,1.359,9.44A77.233,77.233,0,0,1,270.4,306.5C269.794,302.8,269.265,299.55,268.888,296.983Z" transform="translate(-233.167 -284.9)" fill="#d77f68" fill-rule="evenodd"/>
        </g>
        <path id="XMLID_142_" d="M226.733,226.783l-7.551,44.63-.983,5.815s.227,1.51,2.643,2.114a164.75,164.75,0,0,0,26.28,2.492,164.838,164.838,0,0,0,26.28-2.492c2.492-.6,2.643-2.114,2.643-2.114l-.983-5.815-7.627-44.63-3.247-10.044c.227-1.586-.68-4.3-1.059-4.3S247.047,211,247.047,211s-15.632,1.435-16.085,1.435c-.378,0-1.284,2.643-1.058,4.3Z" transform="translate(-209.187 -113.632)" fill="#122344" fill-rule="evenodd"/>
        <path id="XMLID_143_" d="M229.354,226.783l-.454,2.794,7.854-3.776,1.51-5.06,2.492-1.661-1.888-2.87a69.055,69.055,0,0,1,22.278,0l-1.963,2.87L261,221.572l2.945,4.682,7.7,44.328s1.435,4.833-2.643,9.817c3.474-.454,6.117-.832,7.1-1.058,2.492-.6,2.643-2.114,2.643-2.114l-.983-5.815-7.627-44.63-3.247-10.044c.227-1.586-.68-4.3-1.058-4.3S249.742,211,249.742,211s-15.632,1.435-16.085,1.435c-.378,0-1.284,2.643-1.058,4.3Z" transform="translate(-211.806 -113.632)" fill="#06152d" fill-rule="evenodd"/>
        <path id="XMLID_144_" d="M254.686,124.7h0a5.3,5.3,0,0,1,5.286,5.286V140.18a5.3,5.3,0,0,1-5.286,5.286h0a5.3,5.3,0,0,1-5.286-5.286V129.986a5.254,5.254,0,0,1,5.286-5.286Z" transform="translate(-216.825 -92.502)" fill="#d77f68" fill-rule="evenodd"/>
        <path id="XMLID_145_" d="M281.955,221.561a45.048,45.048,0,0,0-4.38-4.53c-1.057-.679-4.456-1.059-5.966-1.134s-3.172,3.474-3.625,4.078c-.378.529,1.586.68,2.794-1.058,0,0-1.586,7.1-1.661,7.476s.454.68.907.378a2.3,2.3,0,0,0,.529-.378,4.636,4.636,0,0,0-.378,1.133c-.151.454.983.907,2.039-.378l-.227.756s-.076.3.227.3a3,3,0,0,0,2.114-1.812,16.775,16.775,0,0,0,.983-3.172,5.023,5.023,0,0,1,1.359-.6,4.822,4.822,0,0,0,1.058,3.172,5.249,5.249,0,0,0,7.023.454Z" transform="translate(-221.364 -114.829)" fill="#e6ad83" fill-rule="evenodd"/>
        <path id="XMLID_146_" d="M268.3,220.919a3.011,3.011,0,0,0,2.568-1.435,2.1,2.1,0,0,1,1.435-.907,2.256,2.256,0,0,0-1.51.151,24.3,24.3,0,0,0-2.492,2.19Zm1.51,6.57,2.417-7.023-1.586,6.57c-.151.151-.378.227-.529.378-.076,0-.227.076-.3.076Zm.983,1.058a1.95,1.95,0,0,0,1.435-.907c.3-.68,1.435-5.135,1.435-5.135l-2.869,6.041Zm5.966-5.362a4.823,4.823,0,0,0,1.059,3.172,5.127,5.127,0,0,0,5.437,1.284Z" transform="translate(-221.453 -115.471)" fill="#d77f68" fill-rule="evenodd"/>
        <path id="XMLID_151_" d="M288.19,225.594l-.151-6.494a11.711,11.711,0,0,1-.907,2.039c-.907,1.133-1.737.3-1.737.3A24.94,24.94,0,0,1,288.19,225.594Z" transform="translate(-225.636 -115.615)" fill="#d77f68" fill-rule="evenodd"/>
        <path id="XMLID_152_" d="M254.88,145.628a7.528,7.528,0,0,1-12.385,0c-.454-.454-1.208-.151-2.945.454s-5.286,1.133-9.062,1.964a9.6,9.6,0,0,0-5.588,3.021c1.737,1.812,1.359,19.71,4,27.035,1.133,3.1,2.341,6.117,2.417,6.8.151,1.208-.3,8.382.076,9.44s.454,1.737,1.51,2.265c.983.529,4.078,0,7.023-.454,2.945-.378,8.76-.378,8.76-.378s5.815,0,8.76.378,6.041.907,7.023.454c.983-.529,1.058-1.133,1.51-2.265.378-1.059-.076-8.231.076-9.44.076-.6,1.208-3.4,2.265-6.419,2.719-7.476,2.568-25.826,4.153-27.488a9.954,9.954,0,0,0-5.588-3.021c-3.851-.756-7.4-1.284-9.062-1.963C256.164,145.477,255.333,145.175,254.88,145.628Z" transform="translate(-210.827 -97.572)" fill="#ff8c00" fill-rule="evenodd"/>
        <path id="XMLID_153_" d="M228.351,173.679a41.508,41.508,0,0,0,1.435,6.721c.227.68.529,1.359.756,2.039a2.7,2.7,0,0,1,2.114-.983h27.109a4.3,4.3,0,0,1,2.568,1.208c.68.68,2.945,3.1,4.606,4.833v-.227c.076-.6,1.208-3.4,2.265-6.419a35.6,35.6,0,0,0,1.586-7.1l-.151-.68L268.677,154.8l-1.058,14.424s-.68,3.172-3.4,3.172h-32.4s-1.737.378-2.19-1.812c-.454-2.114-1.435-7.929-1.435-7.929Z" transform="translate(-211.635 -99.872)" fill="#d97a2d" fill-rule="evenodd"/>
        <path id="XMLID_154_" d="M244.4,146.08s.454-.076.6,1.661c.68,9.213,7.325,9.062,8.533,3.474,1.133,5.588,7.854,5.664,8.533-3.474.151-1.737.6-1.661.6-1.661-1.737-.6-2.568-.907-2.945-.454a7.528,7.528,0,0,1-12.385,0C246.968,145.174,246.137,145.476,244.4,146.08Z" transform="translate(-215.602 -97.571)" fill="#fff" fill-rule="evenodd"/>
        <g id="XMLID_155_" transform="translate(21.623 25.696)">
          <path id="XMLID_156_" d="M272.2,116.3a.571.571,0,0,1,.3.076h0A3.945,3.945,0,0,1,275.527,120a3.814,3.814,0,1,1-7.627.076,3.761,3.761,0,0,1,1.435-3.021c-.076,1.133.076,2.492,1.51,2.643v-2.19C270.769,116.677,271.6,116.3,272.2,116.3Z" transform="translate(-242.978 -116.141)" fill="#d7766d" fill-rule="evenodd"/>
          <path id="XMLID_157_" d="M238.226,116.1a.571.571,0,0,0-.3.076h0a3.777,3.777,0,1,0,4.531,3.776,3.931,3.931,0,0,0-1.359-3.021c.076,1.133-.076,2.492-1.51,2.643l.076-2.19a1.3,1.3,0,0,0-1.434-1.284Z" transform="translate(-234.902 -116.092)" fill="#d7766d" fill-rule="evenodd"/>
        </g>
        <path id="XMLID_158_" d="M252.189,129.158c-7.1,0-12.989-8.76-12.989-15.632v-9.137A13.037,13.037,0,0,1,252.189,91.4h0a13.037,13.037,0,0,1,12.989,12.989v8.987C265.178,120.927,260.042,129.158,252.189,129.158Z" transform="translate(-214.328 -84.349)" fill="#e6ad83" fill-rule="evenodd"/>
        <circle id="XMLID_159_" cx="1.812" cy="1.812" r="1.812" transform="translate(43.449 32.047)" fill="#d7766d"/>
        <circle id="XMLID_160_" cx="1.812" cy="1.812" r="1.812" transform="translate(28.572 32.349)" fill="#d7766d"/>
        <path id="XMLID_161_" d="M249.811,111.98a.576.576,0,0,1-.454,1.058,3.541,3.541,0,0,0-3.172.227.545.545,0,1,1-.6-.907A4.428,4.428,0,0,1,249.811,111.98Z" transform="translate(-215.802 -89.297)" fill="#06152d" fill-rule="evenodd"/>
        <path id="XMLID_162_" d="M266.788,112.218a.558.558,0,0,1-.529.983,3.676,3.676,0,0,0-3.247-.076.558.558,0,1,1-.529-.983A4.813,4.813,0,0,1,266.788,112.218Z" transform="translate(-219.941 -89.309)" fill="#06152d" fill-rule="evenodd"/>
        <path id="XMLID_163_" d="M257.96,122.389a10.686,10.686,0,0,1,.6,2.114c-.076.3-1.51.378-1.888-.076-.227-.3.076-1.284.3-1.963C257.431,121.557,257.658,121.482,257.96,122.389Z" transform="translate(-218.589 -91.777)" fill="#ebbf9e" fill-rule="evenodd"/>
        <g id="XMLID_164_" transform="translate(34.915 35.218)">
          <path id="XMLID_165_" d="M258.39,129.229a2.945,2.945,0,1,1-5.89,0,.516.516,0,0,1,.529-.529h4.833a.516.516,0,0,1,.528.529Z" transform="translate(-252.499 -128.699)" fill="#fff" fill-rule="evenodd"/>
        </g>
        <path id="XMLID_166_" d="M272.141,114.238l-1.361-5.513s-4.38-3.172-2.794-7.627,1.888-4,1.888-4,5.815,2.643,3.247,14.424Z" transform="translate(-221.291 -85.74)" fill="#06152d" fill-rule="evenodd"/>
        <path id="XMLID_167_" d="M238.67,114.239l1.359-5.513s4.38-3.172,2.794-7.627-1.888-4-1.888-4-5.815,2.643-3.247,14.424Z" transform="translate(-213.798 -85.741)" fill="#06152d" fill-rule="evenodd"/>
        <path id="XMLID_168_" d="M241.263,102.137,239.3,107.8a30.839,30.839,0,0,0,11.328-6.419c5.06-4.682,6.343-3.4,6.872-1.888s3.021,7.929,6.947,8.307c3.927.454,3.247-9.666-2.719-13.97s-16.916-3.474-19.332-.6C239.9,96.095,241.263,102.137,241.263,102.137Z" transform="translate(-214.353 -84.212)" fill="#06152d" fill-rule="evenodd"/>
        <path id="XMLID_169_" d="M225.483,221.562a45.085,45.085,0,0,1,4.38-4.531c1.057-.68,4.455-1.057,5.966-1.133s3.172,3.474,3.625,4.078c.378.529-1.586.68-2.794-1.059,0,0,1.586,7.1,1.661,7.476s-.454.68-.907.378a2.3,2.3,0,0,1-.529-.378,4.631,4.631,0,0,1,.378,1.133c.151.454-.983.907-2.039-.378l.227.756s.076.3-.227.3a3,3,0,0,1-2.114-1.812,16.773,16.773,0,0,1-.983-3.172,5.023,5.023,0,0,0-1.359-.6,4.822,4.822,0,0,1-1.058,3.172,5.249,5.249,0,0,1-7.023.454Z" transform="translate(-210.277 -114.831)" fill="#e6ad83" fill-rule="evenodd"/>
        <path id="XMLID_170_" d="M239.67,220.916a3.011,3.011,0,0,1-2.568-1.435,2.1,2.1,0,0,0-1.435-.907,2.046,2.046,0,0,1,1.435.151,14.719,14.719,0,0,1,2.568,2.19Zm-1.435,6.57-2.417-7.023,1.586,6.57c.151.151.378.227.529.378.076,0,.151.076.3.076Zm-1.058,1.058a1.95,1.95,0,0,1-1.435-.907c-.3-.68-1.435-5.135-1.435-5.135l2.87,6.041Zm-5.89-5.362a4.822,4.822,0,0,1-1.059,3.172,5.127,5.127,0,0,1-5.437,1.284Z" transform="translate(-210.796 -115.467)" fill="#d77f68" fill-rule="evenodd"/>
        <path id="XMLID_175_" d="M223.7,225.594l.151-6.494a11.718,11.718,0,0,0,.907,2.039c.907,1.133,1.737.3,1.737.3A39.867,39.867,0,0,0,223.7,225.594Z" transform="translate(-210.533 -115.615)" fill="#d77f68" fill-rule="evenodd"/>
        <g id="XMLID_176_" transform="translate(28.967 27.287)">
          <path id="XMLID_177_" d="M246.868,121.14a1.515,1.515,0,0,1-1.51-1.51v-.3l-.151-.076a1.893,1.893,0,0,1-.529-.3.142.142,0,0,1,0-.227c.076-.076.227-.076.227,0a1.893,1.893,0,0,0,.529.3h0a.882.882,0,0,1-.454-.454.169.169,0,0,1,.3-.151.62.62,0,0,0,.378.378h0a1.647,1.647,0,0,1-.3-.378c0-.076,0-.227.151-.227.076,0,.227,0,.227.151a.241.241,0,0,0,.227.227,1.537,1.537,0,0,1,2.341,1.284A1.316,1.316,0,0,1,246.868,121.14Z" transform="translate(-244.621 -118.193)" fill="#06152d" fill-rule="evenodd"/>
          <path id="XMLID_178_" d="M264.73,121.14a1.515,1.515,0,0,0,1.51-1.51v-.3l.151-.076a1.893,1.893,0,0,0,.529-.3.16.16,0,0,0-.227-.227,1.893,1.893,0,0,1-.529.3h0a.882.882,0,0,0,.454-.454.169.169,0,0,0-.3-.151.62.62,0,0,1-.378.378h0a1.646,1.646,0,0,0,.3-.378c0-.076,0-.227-.151-.227-.076,0-.227,0-.227.151a.241.241,0,0,1-.227.227,1.537,1.537,0,0,0-2.341,1.284A1.317,1.317,0,0,0,264.73,121.14Z" transform="translate(-249.192 -118.193)" fill="#06152d" fill-rule="evenodd"/>
        </g>
      </g>
    </g>
  </g>
</svg>
