<svg xmlns="http://www.w3.org/2000/svg" width="445" height="700" viewBox="0 0 445 700">
  <g id="Carreer" transform="translate(-19524 13076)">
    <rect id="Rectangle_398" data-name="Rectangle 398" width="445" height="700" transform="translate(19524 -13076)" fill="none"/>
    <g id="Group_700" data-name="Group 700" transform="translate(6301.914 -7299.5)">
      <path id="Path_1920" data-name="Path 1920" d="M293.617,230.111c60.784-22.558,122.549-2.619,164.447,40.83s129.82-29.99,176.458,13.386c31.819,29.61,17.248,105.711-26.391,138.685-59.307,44.809-239.685,22.076-278.7,14.454-44.956-8.792-77.813-35.447-91.169-67.792C206.091,291.715,266.758,240.088,293.617,230.111Z" transform="translate(12993 -5758.453)" fill="#e7f3fe"/>
      <g id="Group_671" data-name="Group 671" transform="translate(13394.903 -5551.5)">
        <path id="Path_1921" data-name="Path 1921" d="M1509.864,181.009a50.578,50.578,0,0,0,.322-5.6c0-.995-.029-1.99-.088-2.97l-9.26-3a40.485,40.485,0,0,0-3.277-11.089l6.144-7.549a49.98,49.98,0,0,0-4.857-7.066l-9.26,3.014a41.425,41.425,0,0,0-9.158-7.051l.527-9.728a50.862,50.862,0,0,0-8.075-2.867l-5.72,7.885a40.67,40.67,0,0,0-6.847-.571,41.778,41.778,0,0,0-4.71.263l-5.3-8.178a48.416,48.416,0,0,0-8.222,2.428l.015,9.743a41.151,41.151,0,0,0-9.524,6.554l-9.085-3.511a50.351,50.351,0,0,0-5.237,6.8l5.735,7.871a40.762,40.762,0,0,0-3.862,10.9l-9.407,2.5a50.548,50.548,0,0,0-.322,5.6c0,.995.029,1.99.088,2.97l9.26,3a40.481,40.481,0,0,0,3.277,11.089L1416.881,200a49.981,49.981,0,0,0,4.857,7.066l9.26-3.014a41.428,41.428,0,0,0,9.158,7.051l-.527,9.728a50.86,50.86,0,0,0,8.075,2.867l5.72-7.885a40.668,40.668,0,0,0,6.846.571,41.774,41.774,0,0,0,4.711-.263l5.3,8.178a48.412,48.412,0,0,0,8.222-2.428l-.015-9.743a41.153,41.153,0,0,0,9.524-6.554l9.085,3.511a50.353,50.353,0,0,0,5.237-6.8l-5.735-7.87a40.762,40.762,0,0,0,3.862-10.9Zm-49.578,13.971a19.574,19.574,0,1,1,19.574-19.574,19.574,19.574,0,0,1-19.574,19.574Z" transform="translate(-1410.4 -126.5)" fill="#ff8c00"/>
        <g id="Group_668" data-name="Group 668" transform="translate(75.859 37.161)">
          <path id="Path_1922" data-name="Path 1922" d="M1929.667,414.589a.731.731,0,0,1-.556-1.2,33.1,33.1,0,0,0,7.622-21.125,32.738,32.738,0,0,0-1.8-10.767.736.736,0,0,1,1.39-.483,34.611,34.611,0,0,1-6.086,33.311A.83.83,0,0,1,1929.667,414.589Z" transform="translate(-1928.942 -380.52)" fill="#fff"/>
        </g>
        <g id="Group_669" data-name="Group 669" transform="translate(61.365 16.392)">
          <path id="Path_1923" data-name="Path 1923" d="M1842.248,247.19a.723.723,0,0,1-.5-.2,32.77,32.77,0,0,0-11.381-7.007.731.731,0,1,1,.5-1.375,34.337,34.337,0,0,1,11.879,7.315.738.738,0,0,1,.029,1.039A.68.68,0,0,1,1842.248,247.19Z" transform="translate(-1829.866 -238.552)" fill="#fff"/>
        </g>
        <g id="Group_670" data-name="Group 670" transform="translate(41.567 14.381)">
          <path id="Path_1924" data-name="Path 1924" d="M1695.261,227.3a.718.718,0,0,1-.7-.556.729.729,0,0,1,.527-.892,34.278,34.278,0,0,1,8.47-1.053.731.731,0,0,1,0,1.463,32.92,32.92,0,0,0-8.119,1.009A.736.736,0,0,1,1695.261,227.3Z" transform="translate(-1694.535 -224.8)" fill="#fff"/>
        </g>
      </g>
      <g id="Group_675" data-name="Group 675" transform="translate(13268.185 -5410.84)">
        <path id="Path_1925" data-name="Path 1925" d="M613.089,1125.758a34.054,34.054,0,0,0,.219-3.877c0-.688-.029-1.375-.059-2.063l-6.408-2.077a28.251,28.251,0,0,0-2.268-7.68l4.257-5.237a35.037,35.037,0,0,0-3.365-4.9l-6.408,2.092a28.694,28.694,0,0,0-6.349-4.886l.366-6.744a34.38,34.38,0,0,0-5.6-1.99l-3.965,5.471a28.135,28.135,0,0,0-4.74-.395,26.733,26.733,0,0,0-3.262.19L571.835,1088a33.983,33.983,0,0,0-5.691,1.682l.015,6.744a28.579,28.579,0,0,0-6.6,4.535l-6.291-2.428a36.665,36.665,0,0,0-3.628,4.711l3.964,5.457a28.44,28.44,0,0,0-2.677,7.549l-6.51,1.726a34.054,34.054,0,0,0-.219,3.877c0,.688.029,1.375.059,2.063l6.408,2.077a28.251,28.251,0,0,0,2.268,7.68l-4.257,5.237a35.052,35.052,0,0,0,3.365,4.9l6.408-2.092a28.7,28.7,0,0,0,6.349,4.886l-.366,6.744a34.381,34.381,0,0,0,5.6,1.99l3.964-5.471a28.263,28.263,0,0,0,4.74.4,26.781,26.781,0,0,0,3.262-.19l3.672,5.661a34.007,34.007,0,0,0,5.691-1.682l-.015-6.744a28.58,28.58,0,0,0,6.6-4.535l6.291,2.428a36.659,36.659,0,0,0,3.628-4.71l-3.964-5.457a28.439,28.439,0,0,0,2.677-7.549Zm-34.335,9.67a13.561,13.561,0,1,1,13.561-13.561A13.561,13.561,0,0,1,578.754,1135.428Z" transform="translate(-544.2 -1088)" fill="#ff8c00"/>
        <g id="Group_672" data-name="Group 672" transform="translate(52.32 25.516)">
          <path id="Path_1926" data-name="Path 1926" d="M902.567,1286.468a.731.731,0,0,1-.556-1.2,22.7,22.7,0,0,0,4.008-21.871.736.736,0,0,1,1.39-.483,24.109,24.109,0,0,1-4.257,23.275A.79.79,0,0,1,902.567,1286.468Z" transform="translate(-901.842 -1262.42)" fill="#fff"/>
        </g>
        <g id="Group_673" data-name="Group 673" transform="translate(42.288 11.126)">
          <path id="Path_1927" data-name="Path 1927" d="M842.064,1170.5a.722.722,0,0,1-.5-.2,22.68,22.68,0,0,0-7.8-4.813.731.731,0,1,1,.5-1.375,24.084,24.084,0,0,1,8.309,5.12.737.737,0,0,1,.029,1.039A.756.756,0,0,1,842.064,1170.5Z" transform="translate(-833.267 -1164.052)" fill="#fff"/>
        </g>
        <g id="Group_674" data-name="Group 674" transform="translate(28.576 9.743)">
          <path id="Path_1928" data-name="Path 1928" d="M740.261,1156.78a.718.718,0,0,1-.7-.556.728.728,0,0,1,.527-.892,24.426,24.426,0,0,1,5.925-.732.732.732,0,0,1,0,1.463,22.788,22.788,0,0,0-5.563.689A1.017,1.017,0,0,1,740.261,1156.78Z" transform="translate(-739.535 -1154.6)" fill="#fff"/>
        </g>
      </g>
      <path id="Path_1929" data-name="Path 1929" d="M2024.658,608.072c0-.38-.015-.761-.029-1.127l4.8-3.862a25.782,25.782,0,0,0-1.741-5.515l-6.2-.468a20.513,20.513,0,0,0-5.369-5.691l-.015-6.188a25.5,25.5,0,0,0-5.5-2.121l-4.242,4.564c-.732-.073-1.478-.117-2.224-.117a20.54,20.54,0,0,0-5.4.717l-4.857-3.848a25.293,25.293,0,0,0-5.135,2.984l.922,6.13a20.519,20.519,0,0,0-4.33,6.32l-6.042,1.4a25.569,25.569,0,0,0-.892,5.822l5.325,3.087a20.63,20.63,0,0,0,2.282,7.534l-2.662,5.588a25.176,25.176,0,0,0,3.921,4.257l5.705-2.238a20.2,20.2,0,0,0,7.534,2.984l2.692,5.544c.322.015.644.015.965.015a25.227,25.227,0,0,0,4.725-.439l1.814-5.866a20.418,20.418,0,0,0,7.081-4.111l6,1.346a26.063,26.063,0,0,0,3.2-4.725l-3.482-5.106A21.323,21.323,0,0,0,2024.658,608.072Zm-20.759,9.055a8.646,8.646,0,1,1,8.646-8.646A8.646,8.646,0,0,1,2003.9,617.128Z" transform="translate(11499.597 -6067.803)" fill="#ff8c00"/>
      <g id="Group_677" data-name="Group 677" transform="translate(13591.55 -5527.391)" opacity="0.8">
        <path id="Path_1930" data-name="Path 1930" d="M2767.239,309.148h-7.431a5.22,5.22,0,0,1-5.208-5.208v-7.432a5.22,5.22,0,0,1,5.208-5.208h7.431a5.22,5.22,0,0,1,5.208,5.208v7.432A5.22,5.22,0,0,1,2767.239,309.148Zm-7.431-15.785a3.166,3.166,0,0,0-3.16,3.16v7.432a3.165,3.165,0,0,0,3.16,3.16h7.431a3.166,3.166,0,0,0,3.16-3.16v-7.432a3.166,3.166,0,0,0-3.16-3.16Z" transform="translate(-2754.6 -291.3)" fill="#ff8c00"/>
      </g>
      <g id="Group_678" data-name="Group 678" transform="translate(13556.57 -5527.391)" opacity="0.8">
        <path id="Path_1931" data-name="Path 1931" d="M2528.139,309.148h-7.432a5.22,5.22,0,0,1-5.208-5.208v-7.432a5.22,5.22,0,0,1,5.208-5.208h7.431a5.219,5.219,0,0,1,5.208,5.208v7.432a5.2,5.2,0,0,1-5.208,5.208Zm-7.432-15.785a3.166,3.166,0,0,0-3.16,3.16v7.432a3.166,3.166,0,0,0,3.16,3.16h7.432a3.165,3.165,0,0,0,3.16-3.16v-7.432a3.165,3.165,0,0,0-3.16-3.16Z" transform="translate(-2515.5 -291.3)" fill="#ff8c00"/>
      </g>
      <g id="Group_679" data-name="Group 679" transform="translate(13559.739 -5529.558)">
        <path id="Path_1932" data-name="Path 1932" d="M2543.383,292.17h-.044a.885.885,0,0,1-.658-.336l-5.34-6.964a.876.876,0,0,1,1.39-1.068l4.711,6.144,12.3-13.181a.88.88,0,0,1,1.287,1.2l-13.005,13.942A.86.86,0,0,1,2543.383,292.17Z" transform="translate(-2537.159 -276.486)" fill="#f37168"/>
      </g>
      <path id="Path_1933" data-name="Path 1933" d="M813.141,1702.76c-30.429-1.492-133.931,1.039-165.4,2.019s-68.011-1.3-87-4.652-128.693.278-123.7,9.29,48.876,4.023,98.66,7.651,161.755-.453,187.005,0,48.423-.907,80.958-2.721S830.769,1703.623,813.141,1702.76Z" transform="translate(12815.61 -7020.368)" fill="#cce2ff"/>
      <path id="Path_2031" data-name="Path 2031" d="M0,0H63.593V104.248H0Z" transform="translate(13254.17 -5505.989)" fill="#ff8c00"/>
      <rect id="Rectangle_331" data-name="Rectangle 331" width="58.18" height="98.148" transform="translate(13257.505 -5503.867)" fill="#fff"/>
      <g id="Group_681" data-name="Group 681" transform="translate(13274.899 -5493.848)">
        <path id="Path_1934" data-name="Path 1934" d="M590.1,684.817c2.194-4.711,5.9-6.217,11.981-6.217,7.242,0,11.016,2.619,12.069,6.452C601.189,685.227,590.1,684.817,590.1,684.817Z" transform="translate(-590.1 -655.484)" fill="#9bd6e8"/>
        <path id="Path_1935" data-name="Path 1935" d="M601.33,520.792c-3.072.863-2.926,2.589-3.95,4.184s-3.248,2.662-3.511,3.73.688,3.292-.439,4.535-1.507,1.873-1.068,3.116,1.419,3.2,1.507,3.467a4.974,4.974,0,0,0,2.838,2.4,32.464,32.464,0,0,1,5.779,1.331c1.419.629,6-.79,8.529-.7s4.272-1.785,4.082-3.028,1.872-3.73,1.872-5.866c0-2.3-2.662-3.994-3.379-5.515s.088-4.184-2.575-5.764c-1.682-.995-2.838-.907-4.184-1.361A10.093,10.093,0,0,0,601.33,520.792Z" transform="translate(-591.88 -520.585)" fill="#3a384d"/>
        <path id="Path_1936" data-name="Path 1936" d="M658.345,615.088c-.688,1.024-1.2,1.068-1.96,0-.6-.849-1.785-2.78-1.785-3.76v-9.743a1.792,1.792,0,0,1,1.785-1.785h1.96a1.792,1.792,0,0,1,1.785,1.785v9.758C660.13,612.323,658.974,614.181,658.345,615.088Z" transform="translate(-645.164 -588.211)" fill="#f09959"/>
        <path id="Path_1937" data-name="Path 1937" d="M658.345,599.8h-1.96a1.792,1.792,0,0,0-1.785,1.785v8.7c2.194.7,4.2-.688,5.515-2.253v-6.452a1.77,1.77,0,0,0-1.77-1.785Z" transform="translate(-645.164 -588.211)" fill="#e38540"/>
        <ellipse id="Ellipse_43" data-name="Ellipse 43" cx="5.91" cy="8.061" rx="5.91" ry="8.061" transform="translate(6.305 3.63)" fill="#f09959"/>
        <path id="Path_1938" data-name="Path 1938" d="M638.446,538.211c-3.73,6.305-9.246,5.691-9.246,5.691s.132-8.353,4.506-8.792,6.949,1.317,7.841,4.213a7.14,7.14,0,0,1,0,4.813,7.752,7.752,0,0,1-2.136-2.882A21.628,21.628,0,0,1,638.446,538.211Z" transform="translate(-623.48 -532.928)" fill="#3a384d"/>
        <ellipse id="Ellipse_44" data-name="Ellipse 44" cx="1.551" cy="2.326" rx="1.551" ry="2.326" transform="matrix(0.903, -0.429, 0.429, 0.903, 3.099, 10.799)" fill="#f09959"/>
        <ellipse id="Ellipse_45" data-name="Ellipse 45" cx="1.551" cy="2.326" rx="1.551" ry="2.326" transform="matrix(-0.903, -0.429, 0.429, -0.903, 19.053, 15.008)" fill="#f09959"/>
        <path id="Path_1939" data-name="Path 1939" d="M662.747,630.4a2.564,2.564,0,0,1-4.447,0Z" transform="translate(-648.323 -614.335)" fill="#fff"/>
      </g>
      <path id="Path_1940" data-name="Path 1940" d="M624.463,788.182H609.541a1.741,1.741,0,1,1,0-3.482h14.922a1.745,1.745,0,0,1,1.741,1.741A1.764,1.764,0,0,1,624.463,788.182Z" transform="translate(12669.689 -6239.91)" fill="#ff8c00"/>
      <path id="Path_1941" data-name="Path 1941" d="M611.134,824.582H590.741a1.741,1.741,0,1,1,0-3.482h20.393a1.741,1.741,0,0,1,0,3.482Z" transform="translate(12685.739 -6270.985)" fill="#ff8c00"/>
      <path id="Path_1942" data-name="Path 1942" d="M544.817,964.219H495.209a1.009,1.009,0,1,1,0-2.019h49.608a1.009,1.009,0,1,1,0,2.019Z" transform="translate(12766.67 -6391.444)" fill="#ff8c00"/>
      <path id="Path_1943" data-name="Path 1943" d="M544.817,996.219H495.209a1.009,1.009,0,1,1,0-2.019h49.608a1.009,1.009,0,1,1,0,2.019Z" transform="translate(12766.67 -6418.762)" fill="#ff8c00"/>
      <path id="Path_1944" data-name="Path 1944" d="M544.817,1028.219H495.209a1.009,1.009,0,1,1,0-2.019h49.608a1.009,1.009,0,1,1,0,2.019Z" transform="translate(12766.67 -6446.081)" fill="#ff8c00"/>
      <g id="Group_682" data-name="Group 682" transform="translate(13267.015 -5499.874)">
        <path id="Path_1945" data-name="Path 1945" d="M573.739,515.929H538a1.8,1.8,0,0,1-1.8-1.8V481.2a1.8,1.8,0,0,1,1.8-1.8h35.725a1.8,1.8,0,0,1,1.8,1.8v32.93A1.8,1.8,0,0,1,573.739,515.929ZM538,480.863a.34.34,0,0,0-.336.336v32.93a.34.34,0,0,0,.336.336h35.725a.34.34,0,0,0,.336-.336V481.2a.34.34,0,0,0-.336-.336Z" transform="translate(-536.2 -479.4)" fill="#ff8c00"/>
      </g>
      <g id="Group_683" data-name="Group 683" transform="translate(13270.628 -5441.868)">
        <path id="Path_1946" data-name="Path 1946" d="M564.25,875.9l1.024,2.092,2.311.336-1.668,1.638.395,2.3-2.063-1.083-2.077,1.083.4-2.3-1.668-1.638,2.311-.336Z" transform="translate(-560.9 -875.9)" fill="#ff8c00"/>
        <path id="Path_1947" data-name="Path 1947" d="M622.15,875.9l1.039,2.092,2.311.336-1.682,1.638.4,2.3-2.063-1.083-2.077,1.083.395-2.3-1.668-1.638,2.311-.336Z" transform="translate(-610.33 -875.9)" fill="#ff8c00"/>
        <path id="Path_1948" data-name="Path 1948" d="M680.05,875.9l1.039,2.092,2.311.336-1.682,1.638.395,2.3-2.063-1.083-2.063,1.083.395-2.3-1.682-1.638,2.311-.336Z" transform="translate(-659.759 -875.9)" fill="#ff8c00"/>
        <path id="Path_1949" data-name="Path 1949" d="M737.95,875.9l1.039,2.092,2.311.336-1.668,1.638.4,2.3-2.077-1.083-2.063,1.083.395-2.3-1.682-1.638,2.311-.336Z" transform="translate(-709.189 -875.9)" fill="#ff8c00"/>
      </g>
      <path id="Path_2032" data-name="Path 2032" d="M0,0H63.593V104.248H0Z" transform="translate(13395.956 -5505.989)" fill="#ff8c00"/>
      <rect id="Rectangle_333" data-name="Rectangle 333" width="58.18" height="98.148" transform="translate(13399.292 -5503.867)" fill="#fff"/>
      <g id="Group_686" data-name="Group 686" transform="translate(13416.686 -5493.203)">
        <path id="Path_1950" data-name="Path 1950" d="M1578.2,596.9c0,4.667,2.809,12.2,9.436,11.967s8.1-7.417,8.353-9.45S1578.2,596.9,1578.2,596.9Z" transform="translate(-1575.435 -586.382)" fill="#7a4e34"/>
        <path id="Path_1951" data-name="Path 1951" d="M1559.3,684.817c2.194-4.711,5.9-6.217,11.981-6.217,7.241,0,11.016,2.619,12.069,6.452C1570.389,685.227,1559.3,684.817,1559.3,684.817Z" transform="translate(-1559.3 -656.13)" fill="#d54a41"/>
        <path id="Path_1952" data-name="Path 1952" d="M1627.645,615.088c-.688,1.024-1.2,1.068-1.96,0-.6-.849-1.785-2.78-1.785-3.76v-9.743a1.792,1.792,0,0,1,1.785-1.785h1.96a1.792,1.792,0,0,1,1.785,1.785v9.758C1629.415,612.323,1628.26,614.181,1627.645,615.088Z" transform="translate(-1614.449 -588.857)" fill="#f09959"/>
        <path id="Path_1953" data-name="Path 1953" d="M1627.645,599.8h-1.96a1.792,1.792,0,0,0-1.785,1.785v8.7c2.194.7,4.2-.688,5.515-2.253v-6.452A1.789,1.789,0,0,0,1627.645,599.8Z" transform="translate(-1614.449 -588.857)" fill="#e38540"/>
        <ellipse id="Ellipse_46" data-name="Ellipse 46" cx="5.91" cy="8.061" rx="5.91" ry="8.061" transform="translate(6.305 2.984)" fill="#f09959"/>
        <path id="Path_1954" data-name="Path 1954" d="M1590.786,529.93c-.7,2.472-2.238,2.443-4.389,3.262s-3.174,1.638-3.877,3.218c-.892,2.019.41,7.914.41,7.914s-5.427-4.067-4.813-10.46,4.4-8.865,7.944-8.865,4.9,2.165,4.9,2.165a5.341,5.341,0,0,1,3.672,2.121c2.4,2.853,1.668,9.758,0,12.23s-2.78,3.248-2.736,3.145,1.551-5.793.746-9.319A22.251,22.251,0,0,0,1590.786,529.93Z" transform="translate(-1575.323 -525)" fill="#7a4e34"/>
        <path id="Path_1955" data-name="Path 1955" d="M1632.047,630.4a2.564,2.564,0,0,1-4.447,0Z" transform="translate(-1617.608 -614.981)" fill="#fff"/>
      </g>
      <path id="Path_1956" data-name="Path 1956" d="M1593.663,788.182h-14.922a1.741,1.741,0,1,1,0-3.482h14.922a1.745,1.745,0,0,1,1.741,1.741A1.764,1.764,0,0,1,1593.663,788.182Z" transform="translate(11842.275 -6239.91)" fill="#ff8c00"/>
      <path id="Path_1957" data-name="Path 1957" d="M1580.434,824.582h-20.393a1.741,1.741,0,1,1,0-3.482h20.393a1.741,1.741,0,1,1,0,3.482Z" transform="translate(11858.239 -6270.985)" fill="#ff8c00"/>
      <path id="Path_1958" data-name="Path 1958" d="M1514.017,964.219h-49.608a1.009,1.009,0,0,1,0-2.019h49.608a1.009,1.009,0,1,1,0,2.019Z" transform="translate(11939.257 -6391.444)" fill="#ff8c00"/>
      <path id="Path_1959" data-name="Path 1959" d="M1514.017,996.219h-49.608a1.009,1.009,0,0,1,0-2.019h49.608a1.009,1.009,0,1,1,0,2.019Z" transform="translate(11939.257 -6418.762)" fill="#ff8c00"/>
      <path id="Path_1960" data-name="Path 1960" d="M1514.017,1028.219h-49.608a1.009,1.009,0,0,1,0-2.019h49.608a1.009,1.009,0,1,1,0,2.019Z" transform="translate(11939.257 -6446.081)" fill="#ff8c00"/>
      <g id="Group_687" data-name="Group 687" transform="translate(13408.815 -5499.874)">
        <path id="Path_1961" data-name="Path 1961" d="M1543.024,515.929H1507.3a1.8,1.8,0,0,1-1.8-1.8V481.2a1.8,1.8,0,0,1,1.8-1.8h35.725a1.8,1.8,0,0,1,1.8,1.8v32.93A1.817,1.817,0,0,1,1543.024,515.929Zm-35.739-35.066a.34.34,0,0,0-.336.336v32.93a.34.34,0,0,0,.336.336h35.739a.34.34,0,0,0,.337-.336V481.2a.34.34,0,0,0-.337-.336Z" transform="translate(-1505.5 -479.4)" fill="#ff8c00"/>
      </g>
      <g id="Group_688" data-name="Group 688" transform="translate(13412.414 -5441.868)">
        <path id="Path_1962" data-name="Path 1962" d="M1533.45,875.9l1.039,2.092,2.311.336-1.682,1.638.4,2.3-2.063-1.083-2.077,1.083.395-2.3-1.668-1.638,2.311-.336Z" transform="translate(-1530.1 -875.9)" fill="#ff8c00"/>
        <path id="Path_1963" data-name="Path 1963" d="M1591.35,875.9l1.039,2.092,2.311.336-1.682,1.638.4,2.3-2.063-1.083-2.063,1.083.4-2.3L1588,878.328l2.311-.336Z" transform="translate(-1579.53 -875.9)" fill="#ff8c00"/>
        <path id="Path_1964" data-name="Path 1964" d="M1649.25,875.9l1.039,2.092,2.312.336-1.668,1.638.4,2.3-2.077-1.083-2.063,1.083.395-2.3-1.682-1.638,2.311-.336Z" transform="translate(-1628.959 -875.9)" fill="#ff8c00"/>
        <path id="Path_1965" data-name="Path 1965" d="M1707.15,875.9l1.039,2.092,2.312.336-1.668,1.638.4,2.3-2.077-1.083-2.063,1.083.4-2.3-1.682-1.638,2.326-.336Z" transform="translate(-1678.389 -875.9)" fill="#ff8c00"/>
      </g>
      <path id="Path_1966" data-name="Path 1966" d="M880.771,543.014H780.4L787.5,440.2h96.889Z" transform="translate(12522.339 -5945.808)" fill="#99bbeb" opacity="0.2"/>
      <rect id="Rectangle_334" data-name="Rectangle 334" width="86.868" height="142.386" transform="translate(13313.287 -5525.05)" fill="#ff8c00"/>
      <rect id="Rectangle_335" data-name="Rectangle 335" width="79.466" height="134.048" transform="translate(13317.836 -5522.154)" fill="#fff"/>
      <g id="Group_691" data-name="Group 691" transform="translate(13340.599 -5510.237)">
        <path id="Path_1967" data-name="Path 1967" d="M1095.088,424.8c-.058-.161-1.448-8.148-1.609-11.25s4.989-3.555,4.989-3.555,4.213-2.268,7.271-1.112a12.4,12.4,0,0,1,6.51,5.559c1.39,2.443-1.214,10.05-1.214,10.05Z" transform="translate(-1085.534 -408.556)" fill="#2e2d3d"/>
        <path id="Path_1968" data-name="Path 1968" d="M1039.2,625.579c-.015-.132.351-3.277.366-3.394.7-6.612,8.865-8.485,17-8.485,9.568,0,16.048,1.756,17.087,8.631.029.2.585,3.35.556,3.57C1056.474,626.135,1039.2,625.579,1039.2,625.579Z" transform="translate(-1039.197 -583.689)" fill="#d5e1e8"/>
        <path id="Path_1969" data-name="Path 1969" d="M1132.732,526.976c-.951,1.4-1.638,1.463-2.677,0-.819-1.156-3.555-3.8-3.555-5.135l1.126-13.313a2.441,2.441,0,0,1,2.428-2.428h2.677a2.441,2.441,0,0,1,2.428,2.428l.527,13.313C1135.687,523.187,1133.581,525.732,1132.732,526.976Z" transform="translate(-1113.728 -491.83)" fill="#f09959"/>
        <path id="Path_1970" data-name="Path 1970" d="M1133.586,506.1h-2.677a2.441,2.441,0,0,0-2.428,2.428l-.98,11.82c3,.951,7.051-.98,8.836-3.131l-.336-8.69a2.419,2.419,0,0,0-2.414-2.428Z" transform="translate(-1114.582 -491.83)" fill="#e38540"/>
        <path id="Path_1971" data-name="Path 1971" d="M1097.3,618.949l4.286,7.914s2.3-1.887,2.516-1.521-.41,5.032-.41,5.032a44.328,44.328,0,0,0,5.325-.146c.219-.219-1.039-5.062-.512-5.062s2.077,1.4,2.077,1.4l4.784-7.622-1.053-.249-7.827,4.213-8.383-4.125Z" transform="translate(-1088.8 -587.958)" fill="#bdccd4"/>
        <path id="Path_1972" data-name="Path 1972" d="M1130.8,638.47l3.175,2.136-.98,5.661,4.286-.249-1.068-5.15,2.633-2.4-1.229-1.17h-5.574Z" transform="translate(-1117.399 -603.836)" fill="#d54a41"/>
        <path id="Path_1973" data-name="Path 1973" d="M1105.135,591.666l-3.935,3.745s4.009,7.124,4.228,7.124,3.394-3.935,3.394-3.935l2.033-.029,3.219,3.379,3.73-6.612L1114,591.3s-3.248,6.291-3.847,6.437-.6.219-1.068-.146S1105.135,591.666,1105.135,591.666Z" transform="translate(-1092.129 -564.566)" fill="#d5e1e8"/>
        <ellipse id="Ellipse_47" data-name="Ellipse 47" cx="8.075" cy="11.001" rx="8.075" ry="11.001" transform="translate(9.597 3.4)" fill="#f09959"/>
        <ellipse id="Ellipse_48" data-name="Ellipse 48" cx="2.121" cy="3.189" rx="2.121" ry="3.189" transform="matrix(0.903, -0.429, 0.429, 0.903, 5.216, 13.184)" fill="#f09959"/>
        <ellipse id="Ellipse_49" data-name="Ellipse 49" cx="2.121" cy="3.189" rx="2.121" ry="3.189" transform="matrix(-0.903, -0.429, 0.429, -0.903, 27.012, 18.938)" fill="#f09959"/>
        <path id="Path_1974" data-name="Path 1974" d="M1142.668,537.9s-1.609,2.6-3.584,2.6-3.584-2.6-3.584-2.6Z" transform="translate(-1121.412 -518.978)" fill="#fff"/>
        <path id="Path_1975" data-name="Path 1975" d="M1107.886,429.528c3.321-2.326,4.828-1.946,7.315,1.887s5.486,3.891,5.486,3.891l.4-3.965s-3.716-7.2-8.7-6.247-7.827,5.427-7.827,5.427-.249,8.412.453,8.7.775-2.721,1.273-3.321-.5-3.5.161-4.828S1107.886,429.528,1107.886,429.528Z" transform="translate(-1094.953 -422.602)" fill="#2e2d3d"/>
        <path id="Path_1976" data-name="Path 1976" d="M1200.8,485.4c1.156,1.273.717,6.32,1.331,6.261s.834-4.828.658-5.325S1200.8,485.4,1200.8,485.4Z" transform="translate(-1177.159 -474.158)" fill="#2e2d3d"/>
      </g>
      <path id="Path_1977" data-name="Path 1977" d="M1052.455,786.14H1015.37a2.37,2.37,0,0,1,0-4.74h37.085a2.37,2.37,0,0,1,0,4.74Z" transform="translate(12323.767 -6237.093)" fill="#ff8c00"/>
      <path id="Path_1978" data-name="Path 1978" d="M1074.824,835.94H1046.97a2.37,2.37,0,0,1,0-4.74h27.854a2.37,2.37,0,1,1,0,4.74Z" transform="translate(12296.79 -6279.608)" fill="#ff8c00"/>
      <path id="Path_1979" data-name="Path 1979" d="M984.138,1026.65H916.375a1.375,1.375,0,0,1,0-2.75h67.748a1.375,1.375,0,0,1,.015,2.75Z" transform="translate(12407.43 -6444.117)" fill="#ff8c00"/>
      <path id="Path_1980" data-name="Path 1980" d="M984.138,1070.35H916.375a1.375,1.375,0,0,1,0-2.75h67.748a1.375,1.375,0,0,1,.015,2.75Z" transform="translate(12407.43 -6481.424)" fill="#ff8c00"/>
      <path id="Path_1981" data-name="Path 1981" d="M984.138,1114.05H916.375a1.375,1.375,0,0,1,0-2.75h67.748a1.375,1.375,0,0,1,.015,2.75Z" transform="translate(12407.43 -6518.731)" fill="#ff8c00"/>
      <g id="Group_692" data-name="Group 692" transform="translate(13331.09 -5516.448)">
        <path id="Path_1982" data-name="Path 1982" d="M1025.2,415.459h-48.8a2.2,2.2,0,0,1-2.194-2.194v-44.97a2.2,2.2,0,0,1,2.194-2.194h48.8a2.2,2.2,0,0,1,2.194,2.194v44.97A2.2,2.2,0,0,1,1025.2,415.459Zm-48.8-47.882a.734.734,0,0,0-.731.731v44.97a.734.734,0,0,0,.731.731h48.8a.734.734,0,0,0,.731-.731V368.294a.734.734,0,0,0-.731-.731h-48.8Z" transform="translate(-974.2 -366.1)" fill="#ff8c00"/>
      </g>
      <g id="Group_693" data-name="Group 693" transform="translate(13329.876 -5437.48)">
        <path id="Path_1983" data-name="Path 1983" d="M970.479,905.9l1.4,2.853,3.16.468-2.282,2.224.541,3.145-2.823-1.478-2.823,1.478.527-3.145-2.282-2.224,3.16-.468Z" transform="translate(-965.9 -905.9)" fill="#ff8c00"/>
        <path id="Path_1984" data-name="Path 1984" d="M1049.579,905.9l1.4,2.853,3.16.468-2.282,2.224.541,3.145-2.823-1.478-2.823,1.478.527-3.145L1045,909.221l3.16-.468Z" transform="translate(-1033.428 -905.9)" fill="#ff8c00"/>
        <path id="Path_1985" data-name="Path 1985" d="M1128.679,905.9l1.4,2.853,3.16.468-2.282,2.224.541,3.145-2.823-1.478-2.823,1.478.527-3.145-2.282-2.224,3.16-.468Z" transform="translate(-1100.956 -905.9)" fill="#ff8c00"/>
        <path id="Path_1986" data-name="Path 1986" d="M1207.779,905.9l1.4,2.853,3.16.468-2.282,2.224.541,3.145-2.823-1.478-2.823,1.478.541-3.145-2.3-2.224,3.16-.468Z" transform="translate(-1168.485 -905.9)" fill="#ff8c00"/>
        <path id="Path_1987" data-name="Path 1987" d="M1288.164,905.9l1.419,2.853,3.16.468-2.282,2.224.541,3.145-2.838-1.478-2.823,1.478.541-3.145-2.282-2.224,3.16-.468Z" transform="translate(-1237.123 -905.9)" fill="#ff8c00"/>
      </g>
      <path id="Path_1988" data-name="Path 1988" d="M1742.289,1224.442H1630.814a1.212,1.212,0,0,1-1.214-1.214v-1.814a1.212,1.212,0,0,1,1.214-1.214h111.475a1.211,1.211,0,0,1,1.214,1.214v1.814a1.211,1.211,0,0,1-1.214,1.214Z" transform="translate(11797.371 -6611.7)" fill="#2e5b9a"/>
      <path id="Path_1989" data-name="Path 1989" d="M2507.341,785.971c1.507,5.325-2.18,10.811-6.247,11.967s-6.963-2.472-8.47-7.8.556-10.577,4.623-11.733S2505.834,780.646,2507.341,785.971Z" transform="translate(11061.021 -6234.349)" fill="#f09959"/>
      <path id="Path_1990" data-name="Path 1990" d="M2412.911,1536.7s10.416,16.18,11.82,16.882,4.93.878,3.6,3.511-1.843,13.006-3.072,13.532-11.776,1.755-10.2,0,2.56-.878,3.35-4.038,1.917-9.143.424-10.372-10.635-12.3-10.635-12.3Z" transform="translate(11132.674 -6881.898)" fill="#f09959"/>
      <path id="Path_1991" data-name="Path 1991" d="M1958.425,1584.2s-12.654,20.861-15.01,22.734-10.08,4.7-3.745,5.164,9.377-2.107,13.356-3.277,8.909-1.873,7.037-4.93-1.1-9.7,2.94-13.927S1958.425,1584.2,1958.425,1584.2Z" transform="translate(11534.742 -6922.449)" fill="#f09959"/>
      <path id="Path_1992" data-name="Path 1992" d="M2115.286,1253.408s-31.336-.819-43.771,9.377c-7.271,11.016-24.855,43.522-26.216,47.106.936.936,6.218,2.633,8.558,2.4,6.92-8.251,16.063-15.375,19.691-21.841,4.477-7.973,5.866-11.952,13.122-12.654,7.271-.7,23.685-3.043,28.6-3.043S2115.286,1253.408,2115.286,1253.408Z" transform="translate(11442.483 -6640.037)" fill="#6791c9"/>
      <path id="Path_1993" data-name="Path 1993" d="M2632.13,1488.454h-1.638L2618.7,1439.3h3.614Z" transform="translate(10952.969 -6798.747)" fill="#2e5b9a"/>
      <path id="Path_1994" data-name="Path 1994" d="M2374.1,1478.3h1.638l13.518-50.9h-3.614Z" transform="translate(11161.785 -6788.588)" fill="#2e5b9a"/>
      <path id="Path_1995" data-name="Path 1995" d="M2286.126,1238.8l-18.214,3.145s-24.211.219-35.286,2.282c-10.065,1.873-11.557,13.313,0,29.068,6.569,8.953,12.113,16.092,23.465,24.138,2.882-2.121,3.994-2.926,4.784-8.017-.82-1.126-2.941-8.178-3.614-9.553-6.276-13.122-14.659-17.892-14.776-19.179,1.4-2.282,37.261,11.908,44.385,3.555C2293.689,1256.267,2286.126,1238.8,2286.126,1238.8Z" transform="translate(11289.492 -6627.579)" fill="#75a1de"/>
      <path id="Path_1996" data-name="Path 1996" d="M2515.173,955.589a19.047,19.047,0,0,0-14.263,3.555c-3.994,4.067-8.514,10.782-8.237,21.856.351,14.059-2.18,14.966.454,18.843,11,4.535,29.814,24.065,25.382,3.131-3.2-15.156,7.037-26.435-1.229-43.244C2516.621,958.354,2515.787,957.037,2515.173,955.589Z" transform="translate(11061.206 -6385.623)" fill="#f37168"/>
      <path id="Path_1997" data-name="Path 1997" d="M2492.734,1006.886c-.219,7.329-1.244,9.494-.454,11.791,4.491.453,12.684,2.253,14.732,5.12,2.341,3.277,4.7,3.745,3.6,1.331s-3.979-5.866.468-17.657,6.569-19.764,2.194-27.971Z" transform="translate(11061.146 -6406.212)" fill="#d54a41"/>
      <path id="Path_1998" data-name="Path 1998" d="M2567.664,870.149a57.331,57.331,0,0,1-3.687-14.849l-7.739,2.282s4.389,9.845.176,13.356c-.893.746-1.931,1.653-3.014,2.75A19.164,19.164,0,0,1,2567.664,870.149Z" transform="translate(11008.716 -6300.182)" fill="#f09959"/>
      <path id="Path_1999" data-name="Path 1999" d="M2580.858,859.548c-.454-.41-1.039-.922-1.639-1.448l-6.305,1.858a.05.05,0,0,1-.015.029,26.171,26.171,0,0,1,1.975,7.71,22.188,22.188,0,0,0,6.291-6.247C2581.049,860.733,2580.946,860.09,2580.858,859.548Z" transform="translate(10992.068 -6302.572)" fill="#e38540"/>
      <path id="Path_2000" data-name="Path 2000" d="M2339.519,970.606c-7.973,2.78-7.081,11.177-14.41,23.553-3.789,6.408-7.315,6.305-7.315,6.305a169.433,169.433,0,0,1-19.662-1.243c-6.744-.819-7.168,1.185-2.487,2.853,9.451,3.379,19.267,7.022,27.181,6.144s21.447-21.066,22.149-26.318C2345.927,974.643,2343.527,969.2,2339.519,970.606Z" transform="translate(11231.418 -6398.43)" fill="#f09959"/>
      <g id="Group_696" data-name="Group 696" transform="translate(13538.829 -5410.516)">
        <path id="Path_2001" data-name="Path 2001" d="M2422.236,1143.329c-.5,0-1.01,0-1.522-.015a75.023,75.023,0,0,1-14.468-1.785c-4.14-.849-6.437-1.3-9.085-.044a2.051,2.051,0,0,1-1.77-3.7c3.891-1.858,7.154-1.2,11.674-.278a72.028,72.028,0,0,0,13.751,1.7c6.861.176,11.045-.849,13.166-3.2,1.887-2.092,2.443-5.618,1.741-11.089-.234-1.873-.483-3.423-.687-4.8-.6-3.877-.995-6.437-.5-10.387.453-3.672,1.667-8.558,4.491-18.052a2.046,2.046,0,0,1,3.921,1.17c-5.252,17.672-4.989,19.4-3.862,26.64.219,1.39.453,2.984.7,4.9.863,6.744-.015,11.294-2.765,14.351C2434.188,1141.9,2429.594,1143.329,2422.236,1143.329Z" transform="translate(-2394.224 -1090.212)" fill="#2e5b9a"/>
      </g>
      <path id="Path_2002" data-name="Path 2002" d="M1959.293,1704.4c-8.4,4.111-12.918,6.466-15.609,6.232-.629-.059-1.156-.117-1.609-.19-3,1.77-7.783,3.862-2.4,4.257,6.334.468,9.377-2.107,13.357-3.277s8.909-1.873,7.037-4.93A5.819,5.819,0,0,1,1959.293,1704.4Z" transform="translate(11534.738 -7025.065)" fill="#d54a41"/>
      <path id="Path_2003" data-name="Path 2003" d="M2464.653,1654.4c-.205,6.656-1.127,13.24-5.194,14.483a6.711,6.711,0,0,1-2.926.263c-.644.79-1.419.8-2.472,1.96-1.58,1.756,8.968.527,10.2,0s1.755-10.9,3.072-13.532C2468.427,1655.41,2466.247,1654.912,2464.653,1654.4Z" transform="translate(11093.659 -6982.38)" fill="#d54a41"/>
      <g id="Group_697" data-name="Group 697" transform="translate(13486.452 -5418.229)">
        <path id="Path_2004" data-name="Path 2004" d="M2075.708,1064.807h-26.684a2.068,2.068,0,0,1-1.858-1.185l-10.782-23.217a2.049,2.049,0,0,1,3.716-1.726l10.24,22.017h25.382a2.054,2.054,0,0,1,2.048,2.048A2.079,2.079,0,0,1,2075.708,1064.807Z" transform="translate(-2036.193 -1037.493)" fill="#75a1de"/>
      </g>
      <path id="Path_2005" data-name="Path 2005" d="M2205.884,1152.352c-5.4-.073-10.738-3.292-13.4-2.823s-11.338,6.481-10.24,6.715,7.973-3.335,8.207-3.379,1.726,2.472,5.4,3.394.029-2.75,11.411.688C2214.662,1159.184,2205.884,1152.352,2205.884,1152.352Z" transform="translate(11325.656 -6551.328)" fill="#f09959"/>
      <path id="Path_2006" data-name="Path 2006" d="M2538.957,913.2l.79,6.378s-6.978.41-10.445,2.37-8.6,7.593-8.6,7.593l4.184-7.212.6-4.608Z" transform="translate(11036.632 -6349.612)" fill="#f2e5de"/>
      <path id="Path_2007" data-name="Path 2007" d="M2388,965.861c-5.179-.966-7.578,3.672-10.943,11.25s-9.1,16.78-10.24,17.979-19.223,0-19.223,0-.541,5.237,0,5.866,3.672.541,3.672.541,1.243.995,2.428,1.785,11.1,2.282,15.712,2.034,8.836-.629,9.45-1.331,13.21-20.086,13.986-27.035S2390.65,966.359,2388,965.861Z" transform="translate(11184.617 -6394.461)" fill="#f2e5de"/>
      <path id="Path_2008" data-name="Path 2008" d="M2471.955,728.083c-9.8.468-8.266,15.214-8.266,15.214s2.545.79,7.885-.088a29.5,29.5,0,0,1-.234-5.632,36.674,36.674,0,0,0,1.4,5.281c1.126.512,2.4.059,4.579-.468a9.646,9.646,0,0,0,6.408,7.344c2.385.746,4.9,1.639,7.71.234s1.273-15.785-.234-18.682c-2.238-4.345-5.969-8.222-12.42-6.174A47.715,47.715,0,0,0,2471.955,728.083Z" transform="translate(11085.376 -6188.56)" fill="#303c60"/>
      <path id="Path_2009" data-name="Path 2009" d="M2637.2,862.168l4.009,5.852s-4.447,11.1,8.47,16.121c10.124,3.935,8.924,10.87,4.36,17.848s2.736,13.064,2.736,13.064,1.112-7.724,10.943-9.187c13.4-1.99,17.2-19.984,7.183-28.98-8.28-7.446-10.8-1.273-16.414-7.958s-16.195-2.165-16.195-2.165l-3.877-5.661Z" transform="translate(10937.175 -6305.134)" fill="#303c60"/>
      <g id="Group_698" data-name="Group 698" transform="translate(13579.112 -5440.903)">
        <path id="Path_2010" data-name="Path 2010" d="M2707.153,913.292a.39.39,0,0,1-.176-.044.357.357,0,0,1-.146-.483c3.365-6.159.614-13.62-.761-15.639-.146-.219-.293-.424-.439-.658-1.361-2.121-3.043-4.755-12.069-6.378-2.179-.395-3.935-1.682-5.793-3.057-3.848-2.823-8.207-6.027-17.687-1.668a.354.354,0,1,1-.293-.644c9.86-4.535,14.4-1.2,18.4,1.741,1.8,1.317,3.5,2.56,5.5,2.926,9.333,1.682,11.118,4.462,12.552,6.7.146.219.278.439.424.644,1.448,2.121,4.33,9.933.8,16.385a.4.4,0,0,1-.322.176Z" transform="translate(-2669.583 -882.497)" fill="#303c60"/>
      </g>
      <g id="Group_699" data-name="Group 699" transform="translate(13561.764 -5450.895)">
        <path id="Path_2011" data-name="Path 2011" d="M2561.474,828.125a15.364,15.364,0,0,1-2.077-.161c-3.423-.512-8.031-2.458-8.4-13.4a.359.359,0,0,1,.351-.366.35.35,0,0,1,.365.351c.146,4.506,1.039,7.841,2.663,9.919a7.494,7.494,0,0,0,5.12,2.809c3.175.468,5.281-.117,6.247-1.741a.351.351,0,0,1,.6.366C2565.468,827.364,2563.83,828.125,2561.474,828.125Z" transform="translate(-2551 -814.198)" fill="#303c60"/>
      </g>
      <path id="Path_2012" data-name="Path 2012" d="M1711.3,1318.31h2.633l10.255-78.31H1718.4Z" transform="translate(11727.622 -6628.604)" fill="#2e5b9a"/>
      <path id="Path_2013" data-name="Path 2013" d="M2247.074,1318.31h-2.633L2234.2,1240h5.793Z" transform="translate(11281.219 -6628.604)" fill="#2e5b9a"/>
      <path id="Path_2014" data-name="Path 2014" d="M3000.354,1323.4c4.55,4.155,2.575,8.324-.79,16.048s-3.965,36.251-3.965,36.251l2.78-.395s-.4-29.317,3.365-37.246,5.354-11.879,8.719-9.3S3000.354,1323.4,3000.354,1323.4Z" transform="translate(10631.206 -6699.803)" fill="#74b570"/>
      <path id="Path_2015" data-name="Path 2015" d="M3009.562,1211.519c.556-2.472,3.833-5.135,8.236-7.4-.658,3.643-2.75,9.582-.585,10.8,2.926,1.638.278-6.656,1.419-11.221a54.037,54.037,0,0,1,13.664-4.476c0,.015-.015.029-.015.044-2.575,6.539-5.939,9.114-4.55,10.109,1.039.746,4.448-6.8,8.924-10.679,3.365-.176,6.218.278,7.9,1.609,2.6,2.063,4.359,3.891,1.741,10.167a11.725,11.725,0,0,1-5.691,2.063c-5.939.6-8.719.79-4.55,2.78,2.034.966,5.457-.058,8.222-.673-.892,1.653-2,3.526-3.35,5.661a20.941,20.941,0,0,1-2.78,3.54,8.8,8.8,0,0,1-4.477-.015c-2.779-1.185-9.9-4.959-11.689-3.365-1.741,1.551,13.21,2.531,12.172,6.481-7.242,4.169-15.536,2.194-17.014-1.638C3015.165,1220.151,3007.894,1218.936,3009.562,1211.519Z" transform="translate(10619.497 -6593.305)" fill="#9cd499"/>
      <path id="Path_2016" data-name="Path 2016" d="M2982.587,1464.415c-7.929-5.94-16.048-.4-20.2,5.939s-1.185,20.6-1.185,20.6,1.58,0,1.58-.6-4.36-16.838,5.939-24.168c6.452-4.579,11.089-2.37,11.689-.2s-2.575,6.144-2.575,6.144Z" transform="translate(10661.451 -6818.025)" fill="#74b570"/>
      <path id="Path_2017" data-name="Path 2017" d="M2986.876,1395.6c7.929,0,10.5,12.289,8.324,19.413s-5.149,20.408-5.149,20.408l-1.975-1.975s7.534-18.623,5.749-26.947-6.144-9.714-6.934-9.714S2986.876,1395.6,2986.876,1395.6Z" transform="translate(10638.949 -6761.44)" fill="#9cd499"/>
      <path id="Path_2018" data-name="Path 2018" d="M3022.69,1518.455a5.8,5.8,0,0,1,2.092-1.755c-.117.585-.249,1.156-.409,1.7-.995,3.248-2.151,7.768-3.116,11.733-.088-.512-.219-1.287-.439-2.5-.044-.278-.088-.6-.117-.922A76.232,76.232,0,0,0,3022.69,1518.455Z" transform="translate(10609.778 -6864.824)" fill="#74b570"/>
      <path id="Path_2019" data-name="Path 2019" d="M3025.179,1463.931c15.054-6.334,7.125-15.039,20.393-9.289a9.789,9.789,0,0,1,3.218,2.838,9.924,9.924,0,0,1-4.2.336c-3.965-.6-2.575,2.575,3.965,3.365a14.237,14.237,0,0,1,3.057.644c3.116,5.983,4.521,13.854-2.077,16.59a14.9,14.9,0,0,1-4.7.966c-2.033-1.609.5-10.972-2.633-9.685-3.014,1.243.936,8.017.4,9.728a43.973,43.973,0,0,1-9.407-1.316,4.709,4.709,0,0,1-2.487-2.867c-.995-4.155,5.544-6.729,5.749-10.3.176-3.277-2.4,7.212-9.231,8.748C3021.053,1470.821,3018.142,1466.9,3025.179,1463.931Z" transform="translate(10609.453 -6810.241)" fill="#9cd499"/>
      <path id="Path_2020" data-name="Path 2020" d="M2834.768,1368.666c1.58-3.365-2.575-4.155-2.385-1.58.176,2.282.19,7.827-2.15,9.333a36.633,36.633,0,0,1-13.678-4.55,1.675,1.675,0,0,1,.176-1.039c1.785-3.57,13.268-6.539,9.714-7.724-2.838-.951-7.812,4.637-11.821,7.461-2.414-1.829-4.023-4.008-4.023-6.437,0-3.292,3.994-7.022,9.173-8.792,2.326.234,4.491,1.507,7.87,3.423,4.989,2.823,3.833-1.741-.878-4.462a14.166,14.166,0,0,1,11.118,6.1s-.278,1.77,1.594,4.52c5.135,7.49-.79,11.879-7.87,11.586A46.247,46.247,0,0,1,2834.768,1368.666Z" transform="translate(10789.142 -6726.182)" fill="#9cd499"/>
      <path id="Path_2021" data-name="Path 2021" d="M3099.87,1476.564c3.877,3,8.178,6.5,13.459,8.865s4.228,10.123,4.228,10.123.79-6.686-3.613-8.982-7.315-5.018-10.65-5.545a49.257,49.257,0,0,1-5.193-1.053s1.053-2.107.439-2.911S3099.87,1476.564,3099.87,1476.564Z" transform="translate(10543.701 -6830.511)" fill="#74b570"/>
      <path id="Path_2022" data-name="Path 2022" d="M3074.739,1236.6c-14.176,3.789-24.562,12.859-26.508,15.053s-1.931,2.823-1.931,2.823l1.492,2.823.7-.351s-1.141-2.385,1.843-5.457a54.1,54.1,0,0,1,15.756-11.352C3070.424,1238.268,3074.739,1236.6,3074.739,1236.6Z" transform="translate(10587.923 -6625.701)" fill="#74b570"/>
      <path id="Path_2023" data-name="Path 2023" d="M2932.478,1659.528h5.413a6.977,6.977,0,0,0,6.978-6.979V1640.1H2925.5v12.449A6.986,6.986,0,0,0,2932.478,1659.528Z" transform="translate(10691.051 -6970.172)" fill="#75a1de"/>
      <rect id="Rectangle_336" data-name="Rectangle 336" width="19.369" height="1.361" transform="translate(13616.565 -5327.833)" fill="#fff"/>
      <rect id="Rectangle_337" data-name="Rectangle 337" width="19.369" height="0.805" transform="translate(13616.565 -5325.347)" fill="#fff"/>
      <path id="Path_2024" data-name="Path 2024" d="M548.57,1614.244h4.623a1.767,1.767,0,0,0,1.77-1.77v-3.8a1.767,1.767,0,0,0-1.77-1.77H548.57a1.767,1.767,0,0,0-1.77,1.77v3.8a1.767,1.767,0,0,0,1.77,1.77Z" transform="translate(12721.765 -6941.829)" fill="#ff8c00"/>
      <path id="Path_2025" data-name="Path 2025" d="M447.17,1614.244h4.623a1.767,1.767,0,0,0,1.77-1.77v-3.8a1.767,1.767,0,0,0-1.77-1.77H447.17a1.767,1.767,0,0,0-1.77,1.77v3.8A1.786,1.786,0,0,0,447.17,1614.244Z" transform="translate(12808.331 -6941.829)" fill="#ff8c00"/>
      <path id="Path_2026" data-name="Path 2026" d="M345.87,1614.244h4.623a1.767,1.767,0,0,0,1.77-1.77v-3.8a1.767,1.767,0,0,0-1.77-1.77H345.87a1.767,1.767,0,0,0-1.77,1.77v3.8A1.776,1.776,0,0,0,345.87,1614.244Z" transform="translate(12894.812 -6941.829)" fill="#ff8c00"/>
      <path id="Path_2027" data-name="Path 2027" d="M3197.044,685.093V680.47a1.767,1.767,0,0,0-1.77-1.77h-3.8a1.767,1.767,0,0,0-1.77,1.77v4.623a1.767,1.767,0,0,0,1.77,1.77h3.8a1.767,1.767,0,0,0,1.77-1.77Z" transform="translate(10465.502 -6149.417)" fill="#ff8c00"/>
      <path id="Path_2028" data-name="Path 2028" d="M3197.044,786.393V781.77a1.767,1.767,0,0,0-1.77-1.77h-3.8a1.767,1.767,0,0,0-1.77,1.77v4.623a1.767,1.767,0,0,0,1.77,1.77h3.8a1.767,1.767,0,0,0,1.77-1.77Z" transform="translate(10465.502 -6235.898)" fill="#ff8c00"/>
      <path id="Path_2029" data-name="Path 2029" d="M3197.044,887.793V883.17a1.767,1.767,0,0,0-1.77-1.77h-3.8a1.767,1.767,0,0,0-1.77,1.77v4.623a1.767,1.767,0,0,0,1.77,1.77h3.8A1.776,1.776,0,0,0,3197.044,887.793Z" transform="translate(10465.502 -6322.464)" fill="#ff8c00"/>
    </g>
  </g>
</svg>
