<svg width="727" height="315" xmlns="http://www.w3.org/2000/svg">
 <!-- Created with Method Draw - http://github.com/duopixel/Method-Draw/ -->

 <g>
  <title>Layer 1</title>
  <ellipse stroke="null" transform="matrix(0.6771785968021867,0,0,0.6902144300461426,-7420.795298634288,-5683.952030898517) " id="svg_65" fill="#f2f2f2" ry="34.9216" rx="527.5" cy="8655.97942" cx="11499.04473"/>
  <path stroke="null" id="svg_66" fill="#2f2e41" d="m352.42063,26.66112c-58.19948,0 -99.9861,38.058 -99.9861,126.85997c0,100.64224 41.7866,127.28284 99.9861,127.28284s102.47541,-29.17779 102.47541,-127.28284c-0.00003,-104.8709 -44.27592,-126.85997 -102.47541,-126.85997zm0.38257,220.73635c-40.31032,0 -61.36993,-24.10428 -61.36993,-93.81139c0,-61.50628 21.92169,-93.94137 62.23204,-93.94137s62.23204,21.30536 62.23204,93.94137c-0.00006,67.94979 -22.78382,93.81139 -63.09414,93.81139z"/>
  <path stroke="null" id="svg_67" fill="#f9a826" d="m217.58464,210.60808l-24.06307,0l0,-72.22361a14.19085,14.46403 0 0 0 -14.19084,-14.46402l-5.63845,0a14.19085,14.46403 0 0 0 -14.19086,14.46403l0,72.2236l-67.87366,0a8.10127,8.25722 0 0 1 -7.16294,-12.11464l71.83673,-138.58149a14.19085,14.46403 0 0 0 -6.48763,-19.83598l-4.2407,-2.0411a14.19085,14.46403 0 0 0 -18.57453,6.26028l-87.61436,167.05436a19.24256,19.61298 0 0 0 -2.2725,9.2462l0,0a19.24259,19.61302 0 0 0 19.2426,19.61302l103.14701,0l0,45.6696a17.01005,17.3375 0 0 0 17.01005,17.3375l0.00003,0a17.01005,17.3375 0 0 0 17.01005,-17.3375l0,-45.66958l24.06305,0a14.52079,14.80032 0 0 0 14.52079,-14.80032l0,0a14.52079,14.80032 0 0 0 -14.52075,-14.80034z"/>
  <path stroke="null" id="svg_68" fill="#f9a826" d="m663.1658,210.60808l-24.06305,0l0,-72.22361a14.19085,14.46403 0 0 0 -14.19086,-14.46402l-5.63845,0a14.19085,14.46403 0 0 0 -14.19086,14.46403l0,72.2236l-67.87366,0a8.10126,8.25721 0 0 1 -7.16294,-12.11464l71.83672,-138.58146a14.19086,14.46404 0 0 0 -6.48762,-19.83601l-4.2407,-2.0411a14.19086,14.46404 0 0 0 -18.57454,6.26028l-87.61436,167.05436a19.24256,19.61298 0 0 0 -2.2725,9.2462l0,0a19.24259,19.61302 0 0 0 19.24259,19.61302l103.14702,0l0,45.6696a17.01005,17.3375 0 0 0 17.01005,17.3375l0,0a17.01005,17.3375 0 0 0 17.01005,-17.3375l0,-45.66958l24.06305,0a14.52079,14.80032 0 0 0 14.52079,-14.80032l0,0a14.52079,14.80032 0 0 0 -14.52072,-14.80034z"/>
  <path stroke="#3f3d56" id="svg_69" stroke-miterlimit="10" fill="none" d="m224.22272,202.15074l-24.06306,0l0,-72.2236a14.19085,14.46403 0 0 0 -14.19085,-14.46404l-5.63845,0a14.19086,14.46404 0 0 0 -14.19086,14.46404l0,72.2236l-67.87366,0a8.10127,8.25722 0 0 1 -7.16294,-12.11464l71.83672,-138.58145a14.19086,14.46404 0 0 0 -6.48762,-19.83602l-4.2407,-2.0411a14.19086,14.46404 0 0 0 -18.57454,6.26024l-87.61436,167.0544a19.24259,19.61301 0 0 0 -2.2725,9.2462l0,0a19.24259,19.61302 0 0 0 19.24259,19.61302l103.14702,0l0,45.6696a17.01005,17.3375 0 0 0 17.01005,17.3375l0.00003,0a17.01005,17.3375 0 0 0 17.01005,-17.3375l0,-45.66958l24.06306,0a14.52079,14.80032 0 0 0 14.52079,-14.80032l0,0a14.52079,14.80032 0 0 0 -14.52076,-14.80036z"/>
  <path stroke="#3f3d56" id="svg_70" stroke-miterlimit="10" fill="none" d="m675.6122,202.15074l-24.06305,0l0,-72.2236a14.19086,14.46404 0 0 0 -14.19086,-14.46404l-5.63845,0a14.19086,14.46404 0 0 0 -14.19086,14.46404l0,72.2236l-67.87366,0a8.10127,8.25722 0 0 1 -7.16294,-12.11464l71.83672,-138.58145a14.19086,14.46404 0 0 0 -6.48762,-19.83602l-4.2407,-2.0411a14.19086,14.46404 0 0 0 -18.57454,6.26024l-87.61436,167.0544a19.24259,19.61301 0 0 0 -2.2725,9.2462l0,0a19.24259,19.61302 0 0 0 19.24259,19.61302l103.14702,0l0,45.6696a17.01005,17.3375 0 0 0 17.01005,17.3375l0,0a17.01005,17.3375 0 0 0 17.01005,-17.3375l0,-45.66958l24.06305,0a14.52079,14.80032 0 0 0 14.52079,-14.80032l0,0a14.52079,14.80032 0 0 0 -14.52072,-14.80036z"/>
  <path stroke="#3f3d56" id="svg_71" stroke-miterlimit="10" fill="none" d="m365.69679,19.04953c-58.19948,0 -99.9861,38.05799 -99.9861,126.85997c0,100.64224 41.7866,127.28284 99.9861,127.28284s102.47541,-29.17779 102.47541,-127.28284c-0.00003,-104.87091 -44.27592,-126.85997 -102.47541,-126.85997zm0.38261,220.73634c-40.31032,0 -61.36993,-24.10427 -61.36993,-93.81138c0,-61.50628 21.92169,-93.94137 62.23204,-93.94137s62.23204,21.30536 62.23204,93.94137c-0.00009,67.94978 -22.78386,93.81138 -63.09417,93.81138l0.00003,0z"/>
  <path stroke="null" id="svg_90" fill="#fbbebe" d="m413.81357,3.70885s2.20237,6.46842 4.21815,4.74614l-1.60666,-8.455l-2.61149,3.70886z"/>
  <path stroke="null" id="svg_91" fill="#57b894" d="m681.82612,200.9678a14.09379,14.3651 0 1 0 1.87687,-27.55007l0.35276,7.39372l-3.43204,-6.33648a14.04062,14.31091 0 0 0 -7.23475,8.09111a13.82018,14.08622 0 0 0 -0.81067,3.88581a14.09111,14.36237 0 0 0 9.24783,14.51591z"/>
  <path stroke="#3f3d56" id="svg_92" stroke-miterlimit="10" fill="none" d="m698.80796,286.72241c-1.21151,-6.28804 4.03822,-11.86258 9.22375,-15.486s11.24455,-7.18361 13.01385,-13.33276c2.54281,-8.83742 -5.03144,-16.93083 -10.92671,-23.91024a84.85078,86.48417 0 0 1 -11.18942,-16.94986c-1.22642,-2.43818 -2.35359,-4.98699 -2.67635,-7.70711c-0.46482,-3.91728 0.7699,-7.81536 2.01386,-11.55193q6.21599,-18.67147 13.29195,-37.03004"/>
  <path stroke="#3f3d56" id="svg_93" stroke-miterlimit="10" fill="none" d="m682.40654,199.06423a14.09379,14.3651 0 1 0 1.87687,-27.55007l0.35276,7.39372l-3.43204,-6.33648a14.04062,14.31091 0 0 0 -7.23475,8.09111a13.82018,14.08622 0 0 0 -0.81067,3.88581a14.0911,14.36236 0 0 0 9.24783,14.51591z"/>
  <path stroke="null" id="svg_94" fill="#57b894" d="m697.08535,158.2011a14.07732,14.34831 0 0 1 10.14409,-9.1092l1.16042,7.02899l2.1514,-7.3823a14.09209,14.36336 0 1 1 -13.45592,9.46251l0.00002,0z"/>
  <path stroke="#3f3d56" id="svg_95" stroke-miterlimit="10" fill="none" d="m697.85925,155.663a14.07732,14.34832 0 0 1 10.14409,-9.10919l1.16042,7.02899l2.1514,-7.38231a14.09209,14.36336 0 1 1 -13.45592,9.46251l0.00002,0z"/>
  <path stroke="null" id="svg_96" fill="#57b894" d="m707.64486,234.13586a14.09209,14.36336 0 0 0 12.47295,-25.55358l-1.65314,5.67305l-1.17223,-7.11185a0.24502,0.24974 0 0 0 -0.03589,-0.01387a14.09285,14.36414 0 1 0 -9.61174,27.00625l0.00004,0z"/>
  <path stroke="#3f3d56" id="svg_97" stroke-miterlimit="10" fill="none" d="m708.31544,231.56503a14.09209,14.36336 0 0 0 12.47295,-25.55358l-1.65314,5.67305l-1.17223,-7.11185a0.24521,0.24993 0 0 0 -0.03589,-0.01387a14.09285,14.36414 0 1 0 -9.61174,27.00625l0.00004,0z"/>
  <path stroke="null" id="svg_98" fill="#57b894" d="m692.97248,257.99148a14.0862,14.35736 0 1 0 2.71588,-11.24868l6.27925,9.63301l-8.57981,-5.11289a13.96097,14.22972 0 0 0 -0.41532,6.72856z"/>
  <path stroke="#3f3d56" id="svg_99" stroke-miterlimit="10" fill="none" d="m693.55291,256.08791a14.0862,14.35736 0 1 0 2.71588,-11.24868l6.27925,9.63301l-8.57981,-5.11289a13.96089,14.22964 0 0 0 -0.41532,6.72856z"/>
  <path stroke="null" id="svg_100" fill="#57b894" d="m6.09915,235.96106a9.25988,9.43814 0 1 0 1.23314,-18.10087l0.23178,4.85781l-2.25492,-4.16318a9.22495,9.40254 0 0 0 -4.75336,5.31603a9.08017,9.25497 0 0 0 -0.53263,2.55305a9.25811,9.43634 0 0 0 6.07598,9.53716z"/>
  <path stroke="#3f3d56" id="svg_101" stroke-miterlimit="10" fill="none" d="m17.25654,292.3034c-0.79599,-4.13135 2.65319,-7.7939 6.06017,-10.17459s7.38787,-4.71976 8.55034,-8.75986c1.67067,-5.80635 -3.30576,-11.12386 -7.17905,-15.70947a55.74834,56.8215 0 0 1 -7.35165,-11.13637a15.03988,15.3294 0 0 1 -1.75842,-5.06371c-0.30541,-2.57373 0.50585,-5.13483 1.32315,-7.58983q4.08402,-12.2675 8.73305,-24.32941"/>
  <path stroke="#3f3d56" id="svg_102" stroke-miterlimit="10" fill="none" d="m6.48051,234.71038a9.25988,9.43813 0 1 0 1.23314,-18.10087l0.23178,4.85781l-2.25492,-4.16321a9.22495,9.40253 0 0 0 -4.75336,5.31603a9.08037,9.25517 0 0 0 -0.53263,2.55305a9.2581,9.43632 0 0 0 6.07599,9.5372z"/>
  <path stroke="null" id="svg_103" fill="#57b894" d="m16.12475,207.86256a9.24905,9.4271 0 0 1 6.66485,-5.98491l0.76242,4.61818l1.41352,-4.85031a9.25874,9.43697 0 1 1 -8.84079,6.21704z"/>
  <path stroke="#3f3d56" id="svg_104" stroke-miterlimit="10" fill="none" d="m16.63321,206.19498a9.24905,9.4271 0 0 1 6.66485,-5.9849l0.76242,4.61818l1.41352,-4.85031a9.25874,9.43697 0 1 1 -8.84079,6.21704z"/>
  <path stroke="null" id="svg_105" fill="#57b894" d="m23.06254,257.75308a9.25876,9.43699 0 0 0 8.19497,-16.78917l-1.08614,3.7273l-0.77018,-4.67261a0.16117,0.16427 0 0 0 -0.02357,-0.00911a9.25926,9.4375 0 1 0 -6.31509,17.74359z"/>
  <path stroke="#3f3d56" id="svg_106" stroke-miterlimit="10" fill="none" d="m23.5031,256.064a9.25876,9.43699 0 0 0 8.19497,-16.78917l-1.08614,3.7273l-0.77018,-4.67261a0.16117,0.16427 0 0 0 -0.02357,-0.00911a9.25926,9.4375 0 1 0 -6.31509,17.7436z"/>
  <path stroke="null" id="svg_107" fill="#57b894" d="m13.42253,273.42666a9.25489,9.43305 0 1 0 1.78437,-7.39059l4.12558,6.32907l-5.63709,-3.35927a9.17262,9.3492 0 0 0 -0.27286,4.4208z"/>
  <path stroke="#3f3d56" id="svg_108" stroke-miterlimit="10" fill="none" d="m13.80387,272.17598a9.25489,9.43305 0 1 0 1.78437,-7.39059l4.12558,6.32907l-5.6371,-3.35927a9.17262,9.3492 0 0 0 -0.27285,4.4208z"/>
  <ellipse stroke="null" transform="matrix(0.6771785968021867,0,0,0.6902144300461426,-7420.795298634288,-5683.952030898517) " id="svg_109" fill="#2f2e41" ry="22" rx="17" cy="8425.78552" cx="11439.34727"/>
  <ellipse stroke="null" transform="matrix(0.6771785968021867,0,0,0.6902144300461426,-7420.795298634288,-5683.952030898517) " id="svg_110" fill="#2f2e41" ry="22" rx="17" cy="8426.28552" cx="11531.84727"/>
  <path stroke="null" id="svg_111" fill="#2f2e41" d="m379.52153,176.85576c0,6.86073 -9.39924,12.42386 -20.99254,12.42386s-20.99254,-5.56313 -20.99254,-12.42386c0,-5.94275 7.04943,-10.91229 16.46898,-12.12707a33.92904,34.58218 0 0 1 4.52355,-0.29679a34.33207,34.99297 0 0 1 7.537,0.82826c7.86882,1.78766 13.45554,6.30856 13.45554,11.5956z"/>
  <ellipse stroke="#3f3d56" transform="matrix(0.6771785968021867,0,0,0.6902144300461426,-7420.795298634288,-5683.952030898517) " id="svg_112" stroke-miterlimit="10" fill="none" ry="22" rx="17" cy="8420.78552" cx="11443.34727"/>
  <ellipse stroke="#3f3d56" transform="matrix(0.6771785968021867,0,0,0.6902144300461426,-7420.795298634288,-5683.952030898517) " id="svg_113" stroke-miterlimit="10" fill="none" ry="22" rx="17" cy="8421.28552" cx="11535.84727"/>
  <ellipse stroke="#3f3d56" transform="matrix(0.6771785968021867,0,0,0.6902144300461426,-7420.795298634288,-5683.952030898517) " id="svg_114" stroke-miterlimit="10" fill="none" ry="18" rx="31" cy="8486.28552" cx="11491.84727"/>
  <path stroke="null" id="svg_115" fill="#fff" d="m366.31655,166.29548a3.34295,3.4073 0 0 1 -0.89388,2.34121a2.9381,2.99465 0 0 1 -2.15343,0.97182l-6.77179,0a3.15858,3.21939 0 0 1 -3.0473,-3.31303a3.32128,3.38521 0 0 1 0.55529,-1.89211a31.84094,32.45388 0 0 1 4.52355,-0.31657a32.27741,32.89875 0 0 1 7.537,0.88347a3.43097,3.49701 0 0 1 0.25056,1.32521z"/>
  <circle stroke="null" transform="matrix(0.6771785968021867,0,0,0.6902144300461426,-7420.795298634288,-5683.952030898517) " id="svg_116" fill="#fff" r="5" cy="8414.78552" cx="11443.34727"/>
  <circle stroke="null" transform="matrix(0.6771785968021867,0,0,0.6902144300461426,-7420.795298634288,-5683.952030898517) " id="svg_117" fill="#fff" r="5" cy="8414.78552" cx="11536.34727"/>
  <circle stroke="null" transform="matrix(0.6771785968021867,0,0,0.6902144300461426,-7420.795298634288,-5683.952030898517) " id="svg_118" opacity="0.3" fill="#f9a826" r="5" cy="8461.78552" cx="11541.34727"/>
  <circle stroke="null" transform="matrix(0.6771785968021867,0,0,0.6902144300461426,-7420.795298634288,-5683.952030898517) " id="svg_119" opacity="0.3" fill="#f9a826" r="5" cy="8461.78552" cx="11419.34727"/>
 </g>
</svg>