<svg xmlns="http://www.w3.org/2000/svg" width="350" height="210" viewBox="0 0 350 210">
  <g id="on_demand_warehousing_blog" data-name="on demand warehousing blog" transform="translate(-20220 13339)">
    <rect id="Rectangle_398" data-name="Rectangle 398" width="350" height="210" transform="translate(20220 -13339)" fill="none"/>
    <g id="_4002756" data-name="4002756" transform="translate(20254 -13394)">
      <g id="Background_Complete" transform="translate(0 55)">
        <g id="Group_702" data-name="Group 702" transform="translate(0 0)">
          <rect id="Rectangle_338" data-name="Rectangle 338" width="281.88" height="0.169" transform="translate(0 184.575)" fill="#ebebeb"/>
          <rect id="Rectangle_339" data-name="Rectangle 339" width="18.66" height="0.169" transform="translate(234.975 193.651)" fill="#ebebeb"/>
          <rect id="Rectangle_340" data-name="Rectangle 340" width="4.905" height="0.169" transform="translate(181.812 195.173)" fill="#ebebeb"/>
          <rect id="Rectangle_341" data-name="Rectangle 341" width="10.824" height="0.169" transform="translate(223.587 188.408)" fill="#ebebeb"/>
          <rect id="Rectangle_342" data-name="Rectangle 342" width="24.354" height="0.169" transform="translate(29.597 189.367)" fill="#ebebeb"/>
          <rect id="Rectangle_343" data-name="Rectangle 343" width="3.552" height="0.169" transform="translate(58.969 189.367)" fill="#ebebeb"/>
          <rect id="Rectangle_344" data-name="Rectangle 344" width="52.824" height="0.169" transform="translate(74.134 191.734)" fill="#ebebeb"/>
          <path id="Path_2033" data-name="Path 2033" d="M150.275,214.431H41.413a3.249,3.249,0,0,1-3.213-3.213v-153A3.249,3.249,0,0,1,41.413,55H150.276a3.249,3.249,0,0,1,3.213,3.213v153a3.212,3.212,0,0,1-3.215,3.213ZM41.413,55.113a3.092,3.092,0,0,0-3.1,3.1v153a3.092,3.092,0,0,0,3.1,3.1H150.276a3.092,3.092,0,0,0,3.1-3.1v-153a3.092,3.092,0,0,0-3.1-3.1Z" transform="translate(-16.664 -55)" fill="#ebebeb"/>
          <path id="Path_2034" data-name="Path 2034" d="M366.575,214.431H257.713a3.249,3.249,0,0,1-3.213-3.213v-153A3.249,3.249,0,0,1,257.713,55H366.576a3.249,3.249,0,0,1,3.213,3.213v153a3.212,3.212,0,0,1-3.215,3.213ZM257.713,55.113a3.092,3.092,0,0,0-3.1,3.1v153a3.092,3.092,0,0,0,3.1,3.1H366.576a3.092,3.092,0,0,0,3.1-3.1v-153a3.092,3.092,0,0,0-3.1-3.1Z" transform="translate(-111.023 -55)" fill="#ebebeb"/>
        </g>
        <g id="Group_713" data-name="Group 713" transform="translate(29.597 11.106)">
          <g id="Group_703" data-name="Group 703" transform="translate(128.086)">
            <rect id="Rectangle_345" data-name="Rectangle 345" width="92.682" height="82.253" fill="#e6e6e6"/>
            <rect id="Rectangle_346" data-name="Rectangle 346" width="87.946" height="77.799" transform="translate(2.368 2.255)" fill="#f0f0f0"/>
            <path id="Path_2035" data-name="Path 2035" d="M304.533,78.7,283.9,156.33V119.8l10.881-41.1Z" transform="translate(-281.532 -76.445)" fill="#fff"/>
            <path id="Path_2036" data-name="Path 2036" d="M314.73,78.7l-20.8,77.744H290.6L311.4,78.7Z" transform="translate(-284.455 -76.445)" fill="#fff"/>
            <path id="Path_2037" data-name="Path 2037" d="M434.054,165.7v12.459L429.826,194.4H426.5Z" transform="translate(-343.74 -114.398)" fill="#fff"/>
            <rect id="Rectangle_347" data-name="Rectangle 347" width="1.466" height="80.956" transform="translate(31.514 0.846)" fill="#e6e6e6"/>
            <rect id="Rectangle_348" data-name="Rectangle 348" width="1.466" height="80.956" transform="translate(60.266 0.846)" fill="#e6e6e6"/>
          </g>
          <g id="Group_704" data-name="Group 704" transform="translate(0 127.579)">
            <rect id="Rectangle_349" data-name="Rectangle 349" width="51.133" height="45.834" fill="#f5f5f5"/>
            <rect id="Rectangle_350" data-name="Rectangle 350" width="17.815" height="45.834" fill="#ebebeb"/>
          </g>
          <g id="Group_705" data-name="Group 705" transform="translate(10.148 82.704)">
            <rect id="Rectangle_351" data-name="Rectangle 351" width="51.133" height="45.834" fill="#ebebeb"/>
            <rect id="Rectangle_352" data-name="Rectangle 352" width="17.815" height="45.834" fill="#e0e0e0"/>
          </g>
          <g id="Group_706" data-name="Group 706" transform="translate(0 36.983)">
            <rect id="Rectangle_353" data-name="Rectangle 353" width="51.133" height="45.834" fill="#f5f5f5"/>
            <rect id="Rectangle_354" data-name="Rectangle 354" width="17.815" height="45.834" fill="#ebebeb"/>
          </g>
          <g id="Group_707" data-name="Group 707" transform="translate(55.587 127.635)">
            <rect id="Rectangle_355" data-name="Rectangle 355" width="51.133" height="45.834" fill="#ebebeb"/>
            <rect id="Rectangle_356" data-name="Rectangle 356" width="17.815" height="45.834" fill="#e0e0e0"/>
          </g>
          <g id="Group_708" data-name="Group 708" transform="translate(61.28 99.898)">
            <rect id="Rectangle_357" data-name="Rectangle 357" width="51.133" height="28.695" fill="#f5f5f5"/>
            <rect id="Rectangle_358" data-name="Rectangle 358" width="17.815" height="28.695" fill="#e6e6e6"/>
          </g>
          <g id="Group_709" data-name="Group 709" transform="translate(57.278 54.515)">
            <rect id="Rectangle_359" data-name="Rectangle 359" width="33.036" height="45.834" fill="#ebebeb"/>
            <rect id="Rectangle_360" data-name="Rectangle 360" width="11.501" height="45.834" fill="#e0e0e0"/>
          </g>
          <g id="Group_710" data-name="Group 710" transform="translate(165.745 127.691)">
            <rect id="Rectangle_361" data-name="Rectangle 361" width="51.133" height="45.834" fill="#f5f5f5"/>
            <rect id="Rectangle_362" data-name="Rectangle 362" width="17.815" height="45.834" transform="translate(33.318)" fill="#e6e6e6"/>
          </g>
          <g id="Group_711" data-name="Group 711" transform="translate(155.598 91.329)">
            <rect id="Rectangle_363" data-name="Rectangle 363" width="51.133" height="37.321" fill="#ebebeb"/>
            <rect id="Rectangle_364" data-name="Rectangle 364" width="17.815" height="37.321" transform="translate(33.318)" fill="#e0e0e0"/>
          </g>
          <g id="Group_712" data-name="Group 712" transform="translate(167.549 73.063)">
            <rect id="Rectangle_365" data-name="Rectangle 365" width="49.273" height="18.266" fill="#f5f5f5"/>
            <rect id="Rectangle_366" data-name="Rectangle 366" width="17.138" height="18.266" transform="translate(32.191)" fill="#e6e6e6"/>
          </g>
        </g>
      </g>
      <g id="Shadow_1_" transform="translate(31.627 252.259)">
        <ellipse id="_x3C_Path_x3E__359_" cx="109.313" cy="6.37" rx="109.313" ry="6.37" transform="translate(0 0)" fill="#f5f5f5"/>
      </g>
      <g id="Bubble" transform="translate(183.503 86.063)">
        <g id="Group_714" data-name="Group 714" transform="translate(0 0)">
          <path id="Path_2038" data-name="Path 2038" d="M343.766,129.381H328.038a2.526,2.526,0,0,1-2.538-2.538v-14.2a2.526,2.526,0,0,1,2.538-2.538h15.673a2.526,2.526,0,0,1,2.538,2.538v14.207a2.478,2.478,0,0,1-2.483,2.536Z" transform="translate(-325.5 -110.1)" fill="#ff8c00"/>
          <path id="Path_2039" data-name="Path 2039" d="M340.3,139.9s1.3,6.37,10.26,9.866c0,0-5.469-3.5-5.13-9.866Z" transform="translate(-331.956 -123.1)" fill="#ff8c00"/>
          <path id="Path_2040" data-name="Path 2040" d="M336,123.788l2.931,4.172,6.032-7.16" transform="translate(-330.081 -114.768)" fill="none"/>
        </g>
      </g>
      <g id="Character_2" transform="translate(163.321 105.51)">
        <g id="Group_726" data-name="Group 726" transform="translate(0 0)">
          <path id="Path_2041" data-name="Path 2041" d="M379.182,147.3c2.762,1.973,5.243,5.354,3.383,14.827s-2.311,11.726-2.311,11.726l-18.04-2.029a66.219,66.219,0,0,1,.62-16.293C364.693,145.388,371.12,141.5,379.182,147.3Z" transform="translate(-321.227 -144.596)" fill="#263238"/>
          <path id="Path_2042" data-name="Path 2042" d="M346.148,242.2s-6.088,32.585-7.724,45.947C336.282,305.567,327.6,331.1,327.6,331.1l3.5.9s12.29-21.7,14.658-41.211c9.753-19.958,10.542-44.481,10.542-44.481Z" transform="translate(-306.234 -187.174)" fill="#eec1bb"/>
          <path id="Path_2043" data-name="Path 2043" d="M315.755,408.794a5,5,0,0,1,1.8-.452h0s2.142-1.24,4.285-6.145h2.368a1.949,1.949,0,0,1,1.861,1.3.715.715,0,0,1,.056.338c0,.564-.113,1.128-.169,1.747a48.715,48.715,0,0,1-1.41,5.638l-.395-.113.733-3.552c.226-1.182-1.015-.056-1.634,1.184-.564,1.24-1.522,2.424-4.115,1.861C316.037,409.808,314.8,409.357,315.755,408.794Z" transform="translate(-300.928 -256.971)" fill="#263238"/>
          <path id="Path_2044" data-name="Path 2044" d="M330.474,401.546c.452-1.184,1.015-3.213,1.015-3.213l-5.131-.733a9.8,9.8,0,0,1-.958,4.172C328.106,401.772,330.474,401.546,330.474,401.546Z" transform="translate(-305.274 -254.966)" fill="#263238"/>
          <path id="Path_2045" data-name="Path 2045" d="M371.8,241.3s.733,33.149,1.917,46.566c1.522,17.533-1.747,44.255-1.747,44.255l3.608.169s7.554-23.734,5.863-43.353c5.412-21.536,1.128-45.722,1.128-45.722Z" transform="translate(-325.516 -186.782)" fill="#eec1bb"/>
          <path id="Path_2046" data-name="Path 2046" d="M361.983,410.081a3.835,3.835,0,0,1,1.747-.62h0s1.973-1.466,3.552-6.6l2.368-.282a1.931,1.931,0,0,1,1.973,1.128.8.8,0,0,1,.113.338,9.051,9.051,0,0,1,0,1.748,43.388,43.388,0,0,1-.789,5.75l-.395-.056.338-3.608c.113-1.24-1.015.056-1.466,1.353s-1.24,2.593-3.89,2.255C362.377,411.039,361.081,410.7,361.983,410.081Z" transform="translate(-321.11 -257.131)" fill="#263238"/>
          <path id="Path_2047" data-name="Path 2047" d="M375.518,401.9c.338-1.184.677-3.326.677-3.326l-5.187-.169a9.547,9.547,0,0,1-.507,4.228C373.207,402.347,375.518,401.9,375.518,401.9Z" transform="translate(-324.949 -255.316)" fill="#263238"/>
          <g id="Group_715" data-name="Group 715" transform="translate(31.909 49.613)">
            <path id="Path_2048" data-name="Path 2048" d="M353.01,232.6l-6.71,46.341s21.817,3.383,30.556,1.41c0,0,2.142-26.779-6.991-46.228Z" transform="translate(-346.3 -232.6)" fill="#263238"/>
          </g>
          <path id="Path_2049" data-name="Path 2049" d="M312.758,196.273l-5.806-5.75s-.226-1.522-.789-1.973-4.567-1.861-5.074-1.579c-.507.338-1.184,3.552-.507,4.172a15.5,15.5,0,0,0,4.679,1.3l6.314,7.5Z" transform="translate(-294.323 -163.065)" fill="#eec1bb"/>
          <g id="Group_716" data-name="Group 716" transform="translate(13.474 22.722)">
            <path id="Path_2050" data-name="Path 2050" d="M339.42,184.9c-2.538,1.353-11.444,13.812-12.741,14.432s-11.388-7.554-11.388-7.554l-1.691,2.875s8.231,11.67,12.91,11.106S340.1,195.328,340.1,195.328Z" transform="translate(-313.6 -184.9)" fill="#ff8c00"/>
            <path id="Path_2051" data-name="Path 2051" d="M339.42,184.9c-2.538,1.353-11.444,13.812-12.741,14.432s-11.388-7.554-11.388-7.554l-1.691,2.875s8.231,11.67,12.91,11.106S340.1,195.328,340.1,195.328Z" transform="translate(-313.6 -184.9)" fill="#ff8c00" opacity="0.1"/>
          </g>
          <path id="Path_2052" data-name="Path 2052" d="M315.64,197.177l-.677-.677-1.861,3.1.677,1.3Z" transform="translate(-299.91 -167.239)" fill="#ff8c00"/>
          <path id="Path_2053" data-name="Path 2053" d="M354.2,203.27c2.086-1.973,3.608-3.664,3.608-3.664l-.169-2.48-.789-2.424a9.987,9.987,0,0,0-2.65,8.569Z" transform="translate(-317.786 -166.454)" opacity="0.2"/>
          <g id="Group_717" data-name="Group 717" transform="translate(34.897 22.378)">
            <path id="Path_2054" data-name="Path 2054" d="M355.152,211.074c-.677-12.4-.395-19.224-.056-22.663.338-3.608.9-3.777.9-3.777s3.946-.395,7.385-.338a61.412,61.412,0,0,1,7.893.846,55.377,55.377,0,0,1,7.329,1.748c-.395,1.128-.789,2.2-1.128,3.268-.452,1.353-.846,2.593-1.184,3.777-.677,2.2-1.184,4.059-1.634,5.75a64.651,64.651,0,0,0-1.861,12.966s4.341,11.332,5.187,19.619l-14.376,1.579-1.973-8.345-1.973,8.626-8.063-2.817Z" transform="translate(-351.6 -184.29)" fill="#ff8c00"/>
            <path id="Path_2055" data-name="Path 2055" d="M355.152,211.074c-.677-12.4-.395-19.224-.056-22.663.338-3.608.9-3.777.9-3.777s3.946-.395,7.385-.338a61.412,61.412,0,0,1,7.893.846,55.377,55.377,0,0,1,7.329,1.748c-.395,1.128-.789,2.2-1.128,3.268-.452,1.353-.846,2.593-1.184,3.777-.677,2.2-1.184,4.059-1.634,5.75a64.651,64.651,0,0,0-1.861,12.966s4.341,11.332,5.187,19.619l-14.376,1.579-1.973-8.345-1.973,8.626-8.063-2.817Z" transform="translate(-351.6 -184.29)" fill="#ff8c00" opacity="0.1"/>
          </g>
          <path id="Path_2056" data-name="Path 2056" d="M391.162,212.093q.254-1.438.677-3.044c.169-.677.395-1.41.564-2.2-.564-1.917-1.128-.395-1.128-.395A18.64,18.64,0,0,0,391.162,212.093Z" transform="translate(-333.884 -171.331)" opacity="0.2"/>
          <path id="Path_2057" data-name="Path 2057" d="M371.836,180.67a1.688,1.688,0,0,1,.564-.226c.395-.338.9-1.071.9-2.988a11.163,11.163,0,0,0-.226-2.2l5.243-.958s-1.8,3.5-.282,6.145a1.112,1.112,0,0,1,.789.958c-.395,3.044-6.878,5.919-6.878,5.919S368.679,182.418,371.836,180.67Z" transform="translate(-324.931 -157.553)" fill="#eec1bb"/>
          <path id="Path_2058" data-name="Path 2058" d="M375,175.258c.113.846.169,1.579.226,2.2a5.763,5.763,0,0,0,5.018-3.157Z" transform="translate(-326.911 -157.554)" opacity="0.2"/>
          <g id="Group_720" data-name="Group 720" transform="translate(43.409 1.403)">
            <path id="Path_2059" data-name="Path 2059" d="M374.751,150.089c-4.567-.226-6.145,2.086-6.709,6.765-.733,5.806.338,10.035,6.088,9.133C381.911,164.69,382.305,150.483,374.751,150.089Z" transform="translate(-367.196 -148.389)" fill="#eec1bb"/>
            <path id="Path_2060" data-name="Path 2060" d="M372.31,161.9a9.759,9.759,0,0,1-1.41,1.8,1.245,1.245,0,0,0,1.184.564Z" transform="translate(-368.532 -153.548)" fill="#d4827d"/>
            <g id="Group_718" data-name="Group 718" transform="translate(6.427 7.169)">
              <ellipse id="Ellipse_50" data-name="Ellipse 50" cx="0.451" cy="0.677" rx="0.451" ry="0.677" transform="translate(1.024 1.753) rotate(-175.522)" fill="#263238"/>
              <path id="Path_2061" data-name="Path 2061" d="M378.889,160.195l-.789-.395S378.438,160.533,378.889,160.195Z" transform="translate(-378.1 -159.8)" fill="#263238"/>
            </g>
            <g id="Group_719" data-name="Group 719" transform="translate(1.804 6.717)">
              <ellipse id="Ellipse_51" data-name="Ellipse 51" cx="0.451" cy="0.677" rx="0.451" ry="0.677" transform="translate(1.011 1.776) rotate(-175.527)" fill="#263238"/>
              <path id="Path_2062" data-name="Path 2062" d="M370.689,159.395,369.9,159S370.238,159.733,370.689,159.395Z" transform="translate(-369.9 -159)" fill="#263238"/>
            </g>
            <path id="Path_2063" data-name="Path 2063" d="M378.8,155.992a2.271,2.271,0,0,1,1.917.789" transform="translate(-371.979 -150.967)" fill="none"/>
            <path id="Path_2064" data-name="Path 2064" d="M371.5,155.224a2.068,2.068,0,0,0-1.8.282" transform="translate(-368.009 -150.593)" fill="none"/>
            <path id="Path_2065" data-name="Path 2065" d="M379.515,156.731s-1.917-3.834-1.466-6.71c0,0-8.795-4.172-9.753,4.961,0,0-.452-8.175,7.385-7.893,7.836.226,7.16,11.67,2.931,14.883C378.669,161.862,380.7,159.1,379.515,156.731Z" transform="translate(-367.394 -147.082)" fill="#263238"/>
            <path id="Path_2066" data-name="Path 2066" d="M386.762,164.488a1.986,1.986,0,0,1,2.255-1.691c1.41.226,1.917,3.157-1.634,3.664C386.875,166.515,386.593,166.008,386.762,164.488Z" transform="translate(-375.431 -153.935)" fill="#eec1bb"/>
            <path id="Path_2067" data-name="Path 2067" d="M377.293,168.1a3.731,3.731,0,0,1-2.593,1.071" transform="translate(-370.19 -156.252)" fill="none"/>
            <path id="Path_2068" data-name="Path 2068" d="M377.355,152.051s-9.809-2.538-10.655,6.652" transform="translate(-366.7 -149.111)" fill="none"/>
          </g>
          <g id="Group_721" data-name="Group 721" transform="translate(45.102 25.371)">
            <path id="Path_2069" data-name="Path 2069" d="M369.926,189.6a61.237,61.237,0,0,0,.452,14.263s2.875-10.486,6.991-14.038l-4.679.677Z" transform="translate(-369.702 -189.6)" fill="#407bff"/>
            <path id="Path_2070" data-name="Path 2070" d="M369.926,189.6a61.237,61.237,0,0,0,.452,14.263s2.875-10.486,6.991-14.038l-4.679.677Z" transform="translate(-369.702 -189.6)" fill="#fff" opacity="0.5"/>
          </g>
          <g id="Group_722" data-name="Group 722" transform="translate(44.522 21.82)">
            <path id="Path_2071" data-name="Path 2071" d="M376.975,183.526l-4.736,3.495V183.3a5.669,5.669,0,0,0-3.552,5.637l3.157-1.466v1.466l.733-1.41,2.48,2.819s3.044-3.552,3.383-4.624C378.723,184.71,376.975,183.526,376.975,183.526Z" transform="translate(-368.673 -183.3)" fill="#407bff"/>
            <path id="Path_2072" data-name="Path 2072" d="M376.975,183.526l-4.736,3.495V183.3a5.669,5.669,0,0,0-3.552,5.637l3.157-1.466v1.466l.733-1.41,2.48,2.819s3.044-3.552,3.383-4.624C378.723,184.71,376.975,183.526,376.975,183.526Z" transform="translate(-368.673 -183.3)" fill="#fff" opacity="0.7"/>
          </g>
          <g id="Group_723" data-name="Group 723" transform="translate(38.331 33.377)">
            <path id="Path_2073" data-name="Path 2073" d="M377.148,225.392l-4.341-20.8a1.018,1.018,0,0,0-.958-.789H358.375a.714.714,0,0,0-.677.789L361.306,225a.911.911,0,0,0,.9.789l14.207.395a.633.633,0,0,0,.733-.791Z" transform="translate(-357.694 -203.8)" fill="#263238"/>
            <path id="Path_2074" data-name="Path 2074" d="M377.148,225.392l-4.341-20.8a1.018,1.018,0,0,0-.958-.789H358.375a.714.714,0,0,0-.677.789L361.306,225a.911.911,0,0,0,.9.789l14.207.395a.633.633,0,0,0,.733-.791Z" transform="translate(-357.694 -203.8)" fill="#fff" opacity="0.1"/>
          </g>
          <path id="Path_2075" data-name="Path 2075" d="M391.917,224.99l-6.934-4.4s-.507-1.466-1.184-1.747c-.62-.282-4.848-.846-5.3-.452-.395.395-.395,3.72.395,4.172s4.51.395,4.848.226l7.78,5.976Z" transform="translate(-328.325 -176.73)" fill="#eec1bb"/>
          <g id="Group_724" data-name="Group 724" transform="translate(57.952 24.977)">
            <path id="Path_2076" data-name="Path 2076" d="M396.444,188.9s-4.51,6.6-3.89,12.234l6.032,9.979-4.059-2.086-1.861,3.439s4.679,7.16,10.6,5.469S396.444,188.9,396.444,188.9Z" transform="translate(-392.496 -188.9)" fill="#ff8c00"/>
            <path id="Path_2077" data-name="Path 2077" d="M396.444,188.9s-4.51,6.6-3.89,12.234l6.032,9.979-4.059-2.086-1.861,3.439s4.679,7.16,10.6,5.469S396.444,188.9,396.444,188.9Z" transform="translate(-392.496 -188.9)" fill="#ff8c00" opacity="0.1"/>
          </g>
          <path id="Path_2078" data-name="Path 2078" d="M394.719,223.895l-2.311,4.285L391.9,227l1.8-3.5Z" transform="translate(-334.284 -179.017)" fill="#ff8c00"/>
          <g id="Group_725" data-name="Group 725" transform="translate(38.805 33.377)">
            <path id="Path_2079" data-name="Path 2079" d="M371.763,203.8c-.507,0-.507,13.868-.507,13.868l-12.121-.338s-1.353-11.726,0-13.53Z" transform="translate(-358.534 -203.8)" fill="#fff"/>
            <path id="Path_2080" data-name="Path 2080" d="M371.763,203.8c-.507,0-.507,13.868-.507,13.868l-12.121-.338s-1.353-11.726,0-13.53Z" transform="translate(-358.534 -203.8)" opacity="0.1"/>
          </g>
          <path id="Path_2081" data-name="Path 2081" d="M291.673,184.126l11.444,4.792a.5.5,0,0,1,.282.677h0a.5.5,0,0,1-.677.282l-11.557-4.9c-.056,0-.056-.056-.113-.056L289.7,183.9l1.747.169A.426.426,0,0,0,291.673,184.126Z" transform="translate(-289.7 -161.742)" fill="#263238"/>
        </g>
      </g>
      <g id="Character_1" transform="translate(56.966 83.749)">
        <g id="_x3C_Group_x3E__30_" transform="translate(0 0)">
          <path id="Path_2082" data-name="Path 2082" d="M194.693,204.078l-11.164,1.015-4.454-2.538s-14.319-8.005-18.04-10.486a11.4,11.4,0,0,1-3.1-4.454,44.514,44.514,0,0,1-1.973-5.187c-.282-.789-.507-1.579-.677-2.255-.452-1.522-.677-2.65-.789-2.931h0v-.055h.056l3.552-1.128,2.931-.958s.113.677.338,1.747a7.691,7.691,0,0,0,.226.958l.169.846c.733,3.268,1.861,7.78,2.706,8.513,1.353,1.182,18.153,12.628,18.717,12.91.62.282,5.976,0,5.976,0Z" transform="translate(-124.362 -136.142)" fill="#e4897b"/>
          <g id="Group_727" data-name="Group 727" transform="translate(28.832 25.202)">
            <path id="Path_2083" data-name="Path 2083" d="M153.435,150.7c5.13-.056,8.4,15.842,8.4,15.842l-6.765,3.383a21.592,21.592,0,0,1-2.875-10.937C152.308,152.842,153.435,150.7,153.435,150.7Z" transform="translate(-152.188 -150.7)" fill="#ff8c00"/>
            <path id="Path_2084" data-name="Path 2084" d="M153.435,150.7c5.13-.056,8.4,15.842,8.4,15.842l-6.765,3.383a21.592,21.592,0,0,1-2.875-10.937C152.308,152.842,153.435,150.7,153.435,150.7Z" transform="translate(-152.188 -150.7)" fill="#ff8c00" opacity="0.5"/>
          </g>
          <path id="Path_2085" data-name="Path 2085" d="M163.663,178.207l-1.8,1.182-2.368,1.522-3.439,2.255-.62.395-.733-2.255.677-.395.452-.226,3.157-1.748,2.48-1.353,1.24-.677.226-.113Z" transform="translate(-124.452 -136.881)" fill="#ff8c00"/>
          <path id="Path_2086" data-name="Path 2086" d="M159.687,179.639a7.226,7.226,0,0,1-1.747,4.792,44.52,44.52,0,0,1-1.973-5.187l-.62.395-.733-2.255.677-.395c-.452-1.522-.677-2.65-.789-2.931h0V174l.789-6.2A32.115,32.115,0,0,1,158,172.874a19.958,19.958,0,0,1,.789,2.2c.056.282.169.564.226.789a9.013,9.013,0,0,1,.282,1.182A8.04,8.04,0,0,1,159.687,179.639Z" transform="translate(-124.365 -132.957)" opacity="0.2"/>
          <path id="Path_2087" data-name="Path 2087" d="M153,401.506l4.736.452.9-10.148L153.9,391.3Z" transform="translate(-123.711 -230.459)" fill="#e4897b"/>
          <path id="Path_2088" data-name="Path 2088" d="M111.3,400.6h4.567l.395-10.6h-4.567Z" transform="translate(-105.519 -229.89)" fill="#e4897b"/>
          <path id="Path_2089" data-name="Path 2089" d="M115.169,407.8h-5.581a.412.412,0,0,0-.395.338l-.9,4.059a.7.7,0,0,0,.507.789h.169c1.8-.056,3.1-.113,5.354-.113,1.41,0,5.581.169,7.5.169s2.142-1.917,1.41-2.086c-3.552-.789-6.2-1.8-7.329-2.819A.909.909,0,0,0,115.169,407.8Z" transform="translate(-104.202 -237.655)" fill="#263238"/>
          <path id="Path_2090" data-name="Path 2090" d="M121.056,408.116c-.056,0-.056-.056-.056-.113s0-.113.056-.113c.169-.113,1.634-1.015,2.142-.733a.31.31,0,0,1,.169.282.536.536,0,0,1-.226.564,1.283,1.283,0,0,1-.9.226A2.83,2.83,0,0,1,121.056,408.116Zm.282-.113a2.335,2.335,0,0,0,1.634-.056.512.512,0,0,0,.169-.395c0-.113-.056-.113-.056-.113a.2.2,0,0,1-.113-.056A3.415,3.415,0,0,0,121.338,408Z" transform="translate(-109.751 -237.351)" fill="#407bff"/>
          <path id="Path_2091" data-name="Path 2091" d="M120.956,407.414c-.056,0-.056-.056-.056-.113a3.368,3.368,0,0,1,.62-1.8.438.438,0,0,1,.452-.113.316.316,0,0,1,.338.282c.113.507-.846,1.466-1.3,1.747h-.058Zm.733-1.8a2.587,2.587,0,0,0-.564,1.41c.452-.338,1.071-1.128,1.015-1.41,0-.056,0-.113-.169-.113h-.056C121.858,405.553,121.8,405.553,121.689,405.61Z" transform="translate(-109.707 -236.592)" fill="#407bff"/>
          <path id="Path_2092" data-name="Path 2092" d="M156.969,407.59h-5.581a.412.412,0,0,0-.395.338l-.9,4.059a.7.7,0,0,0,.507.789h.169c1.8-.056,3.1-.113,5.354-.113,1.41,0,5.581.169,7.5.169s2.142-1.917,1.41-2.086c-3.552-.789-6.2-1.8-7.329-2.819A.679.679,0,0,0,156.969,407.59Z" transform="translate(-122.436 -237.557)" fill="#263238"/>
          <path id="Path_2093" data-name="Path 2093" d="M162.856,407.916c-.056,0-.056-.056-.056-.113s0-.113.056-.113c.169-.113,1.634-1.015,2.142-.733a.31.31,0,0,1,.169.282.536.536,0,0,1-.226.564,1.283,1.283,0,0,1-.9.226A2.831,2.831,0,0,1,162.856,407.916Zm.282-.169a2.336,2.336,0,0,0,1.634-.056.512.512,0,0,0,.169-.395c0-.113-.056-.113-.056-.113a.2.2,0,0,1-.113-.056A5.179,5.179,0,0,0,163.138,407.747Z" transform="translate(-127.986 -237.264)" fill="#407bff"/>
          <path id="Path_2094" data-name="Path 2094" d="M162.756,407.114c-.056,0-.056-.056-.056-.113a3.368,3.368,0,0,1,.62-1.8.438.438,0,0,1,.452-.113.316.316,0,0,1,.338.282c.113.507-.846,1.466-1.3,1.747h-.058Zm.733-1.747a2.587,2.587,0,0,0-.564,1.41c.452-.338,1.071-1.128,1.015-1.41,0-.056,0-.113-.169-.113h-.056a.427.427,0,0,0-.226.112Z" transform="translate(-127.942 -236.461)" fill="#407bff"/>
          <path id="Path_2095" data-name="Path 2095" d="M154.252,391.3l4.736.507-.452,5.243-4.736-.507Z" transform="translate(-124.059 -230.457)" opacity="0.2"/>
          <path id="Path_2096" data-name="Path 2096" d="M111.826,390h4.567l-.226,5.469H111.6Z" transform="translate(-105.65 -229.89)" opacity="0.2"/>
          <path id="Path_2097" data-name="Path 2097" d="M112.332,225.2h24.241c2.311,12.572,9.527,57.165,4.341,96.91l-8.231-1.015s.733-52.71-6.483-72.217c-.846,10.431-1.8,21.536-2.706,27.455-2.086,14.545-6.652,46.284-6.652,46.284H108.5s1.691-30.388,2.48-44.706C111.937,262.408,112.275,228.413,112.332,225.2Z" transform="translate(-104.296 -157.998)" fill="#407bff"/>
          <path id="Path_2098" data-name="Path 2098" d="M140,260.526a63.967,63.967,0,0,1,2.706,10.486c.677-9.3-2.029-19.111-2.029-19.111Z" transform="translate(-118.039 -169.646)" opacity="0.2"/>
          <g id="Group_728" data-name="Group 728" transform="translate(27.429 161.689)">
            <path id="Path_2099" data-name="Path 2099" d="M159.848,397.141,149.7,395.619l.282-2.819,10.6,1.41Z" transform="translate(-149.7 -392.8)" fill="#407bff"/>
            <path id="Path_2100" data-name="Path 2100" d="M159.848,397.141,149.7,395.619l.282-2.819,10.6,1.41Z" transform="translate(-149.7 -392.8)" fill="#fff" opacity="0.6"/>
          </g>
          <g id="Group_729" data-name="Group 729" transform="translate(3.751 161.52)">
            <path id="Path_2101" data-name="Path 2101" d="M117.566,395.657H107.7v-2.931l10.26-.226Z" transform="translate(-107.7 -392.5)" fill="#407bff"/>
            <path id="Path_2102" data-name="Path 2102" d="M117.566,395.657H107.7v-2.931l10.26-.226Z" transform="translate(-107.7 -392.5)" fill="#fff" opacity="0.6"/>
          </g>
          <path id="Path_2103" data-name="Path 2103" d="M115.2,228.818v-3.5l24.693-1.522.169,3.383Z" transform="translate(-107.221 -157.387)" fill="#263238"/>
          <rect id="Rectangle_367" data-name="Rectangle 367" width="1.128" height="5.13" transform="translate(13.109 67.033)" fill="#407bff"/>
          <rect id="Rectangle_368" data-name="Rectangle 368" width="5.13" height="1.128" transform="matrix(-0.073, -0.997, 0.997, -0.073, 30.613, 70.542)" fill="#407bff"/>
          <g id="Group_730" data-name="Group 730" transform="translate(3.131 25.164)">
            <path id="Path_2104" data-name="Path 2104" d="M136.14,191.883l-24.749,1.861c.056-2.142-.056-4.567-.226-7.1-.282-4.736-.9-9.866-1.522-14.714-1.353-10.26-3.044-19.054-3.044-19.054,11.5-2.931,26.946-2.142,26.946-2.142C137.55,165.668,136.14,191.883,136.14,191.883Z" transform="translate(-106.599 -150.634)" fill="#407bff"/>
            <path id="Path_2105" data-name="Path 2105" d="M136.14,191.883l-24.749,1.861c.056-2.142-.056-4.567-.226-7.1-.282-4.736-.9-9.866-1.522-14.714-1.353-10.26-3.044-19.054-3.044-19.054,11.5-2.931,26.946-2.142,26.946-2.142C137.55,165.668,136.14,191.883,136.14,191.883Z" transform="translate(-106.599 -150.634)" fill="#ff8c00" opacity="0.6"/>
          </g>
          <path id="Path_2106" data-name="Path 2106" d="M122.2,142.583c2.255,2.029,7.667,1.3,7.667,1.3s3.383-.958,2.706-1.973c-2.029-.338-2.988-1.24-3.383-2.48a6.1,6.1,0,0,1-.226-2.311c.056-.452.113-.846.169-1.3l-6.765-5.018C123.328,134.126,124.4,140.215,122.2,142.583Z" transform="translate(-110.275 -116.816)" fill="#e4897b"/>
          <path id="Path_2107" data-name="Path 2107" d="M125.4,136.5a5.755,5.755,0,0,0,5.243,5.412,6.1,6.1,0,0,1-.226-2.311Z" transform="translate(-111.67 -119.303)" opacity="0.2"/>
          <g id="Group_731" data-name="Group 731" transform="translate(9.709)">
            <path id="Path_2108" data-name="Path 2108" d="M141.594,113.3c1.634,1.579.958,6.314-2.368,8.738s-3.326-9.3-3.326-9.3S140.579,112.343,141.594,113.3Z" transform="translate(-125.96 -108.901)" fill="#263238"/>
            <path id="Path_2109" data-name="Path 2109" d="M123.535,126.252a5.717,5.717,0,0,0,6.54,2.2,6.054,6.054,0,0,0,3.608-2.988,2.084,2.084,0,0,0,.282-.62c1.634-3.834,2.142-10.6-1.917-13.079a6.189,6.189,0,0,0-8.513,1.917,6.783,6.783,0,0,0-.958,2.706C122.126,120.953,121.617,123.6,123.535,126.252Z" transform="translate(-119.966 -108.097)" fill="#e4897b"/>
            <path id="Path_2110" data-name="Path 2110" d="M134.656,124.658a.543.543,0,0,0,.338.733c.226.056.507-.226.564-.564s-.056-.677-.338-.733S134.712,124.264,134.656,124.658Z" transform="translate(-125.393 -113.887)" fill="#263238"/>
            <path id="Path_2111" data-name="Path 2111" d="M141.856,125.858a.543.543,0,0,0,.338.733c.226.056.507-.226.564-.564s-.056-.677-.338-.733C142.195,125.238,141.912,125.52,141.856,125.858Z" transform="translate(-128.534 -114.411)" fill="#263238"/>
            <path id="Path_2112" data-name="Path 2112" d="M139.12,126.3a14.171,14.171,0,0,0,1.184,3.383,2.03,2.03,0,0,1-1.8,0Z" transform="translate(-127.094 -114.853)" fill="#de5753"/>
            <path id="Path_2113" data-name="Path 2113" d="M132.691,121.491a.339.339,0,0,0,.226-.056,1.818,1.818,0,0,1,1.466-.507c.113.056.226-.056.282-.169s-.056-.226-.169-.282h0a2.195,2.195,0,0,0-1.861.564.16.16,0,0,0,0,.282h0C132.635,121.491,132.635,121.491,132.691,121.491Z" transform="translate(-124.499 -112.299)" fill="#263238"/>
            <path id="Path_2114" data-name="Path 2114" d="M134.788,134.217h0a3.321,3.321,0,0,1-2.706-1.466c-.056-.056,0-.113.056-.169s.113,0,.169.056h0a3.183,3.183,0,0,0,2.48,1.353.121.121,0,0,1,.113.113h0a.121.121,0,0,1-.113.113Z" transform="translate(-124.285 -117.584)" fill="#263238"/>
            <path id="Path_2115" data-name="Path 2115" d="M144.441,123.079c.056,0,.056.056.113.056a.31.31,0,0,0,.169-.282h0a2.081,2.081,0,0,0-1.353-1.466c-.113-.056-.226.056-.282.169h0c-.056.113.056.226.169.282h0a1.657,1.657,0,0,1,1.015,1.182.209.209,0,0,1,.169.058Z" transform="translate(-129.089 -112.703)" fill="#263238"/>
            <path id="Path_2116" data-name="Path 2116" d="M125.77,111.9v2.029a1.474,1.474,0,0,0-.958,1.748,5.358,5.358,0,0,1-2.255,5.074s.056-.733-.564-.62-.9,3.89.056,5.806a12.231,12.231,0,0,1-2.142-5.919c-.507-3.777-.226-6.821.677-8.118Z" transform="translate(-118.874 -108.57)" fill="#263238"/>
            <path id="Path_2117" data-name="Path 2117" d="M118.343,124.691a4.248,4.248,0,0,0,2.086,2.538c1.353.733,2.311-.395,2.255-1.8-.113-1.3-.9-3.213-2.368-3.326A1.958,1.958,0,0,0,118.343,124.691Z" transform="translate(-118.269 -113.018)" fill="#e4897b"/>
            <path id="Path_2118" data-name="Path 2118" d="M119.494,112.764s-1.41-3.326,2.255-5.806c3.608-2.48,12.29.395,12.91,2.368C135.279,111.354,128.74,114.962,119.494,112.764Z" transform="translate(-118.687 -105.996)" fill="#263238"/>
          </g>
          <path id="Path_2119" data-name="Path 2119" d="M121.781,147.172l5.525,3.044.733-4.115,3.89,2.48v5.3l-4.115-2.426-2.875,4.285-5.637-6.258Z" transform="translate(-109.01 -123.491)" fill="#407bff"/>
          <path id="Path_2120" data-name="Path 2120" d="M142.387,228.328l-4.341.226a.677.677,0,0,1-.677-.62L137.2,225a.677.677,0,0,1,.62-.677l4.341-.226a.677.677,0,0,1,.677.62l.169,2.931a.721.721,0,0,1-.62.677Z" transform="translate(-116.818 -157.517)" fill="#ff8b00"/>
          <path id="Path_2121" data-name="Path 2121" d="M121.781,147.172l5.525,3.044.733-4.115,3.89,2.48v5.3l-4.115-2.426-2.875,4.285-5.637-6.258Z" transform="translate(-109.01 -123.491)" fill="#ff8c00" opacity="0.5"/>
          <path id="Path_2122" data-name="Path 2122" d="M122.473,201.944c-1.634,2.48-6.878,2.48-8.851,1.071-.282-4.736-.9-9.866-1.522-14.714Z" transform="translate(-105.868 -141.901)" opacity="0.2"/>
          <path id="Path_2123" data-name="Path 2123" d="M110.226,178.7s1.182,7.611,2.311,9.077,24.805,14.432,24.805,14.432l8.175-.62,3.777,4.285s-10.881,1.691-12.065,1.353a13.433,13.433,0,0,1-2.086-.789s-24.805-9.753-26.891-12.008-4.454-13.7-4.454-13.7Z" transform="translate(-102.247 -137.712)" fill="#e4897b"/>
          <g id="Group_732" data-name="Group 732" transform="translate(0 27.312)">
            <path id="Path_2124" data-name="Path 2124" d="M104.177,154.474c4.341-.9,6.54,17.082,6.54,17.082l-8.852,2.255C101.922,173.811,98.878,155.6,104.177,154.474Z" transform="translate(-101.046 -154.442)" fill="#ff8c00"/>
            <path id="Path_2125" data-name="Path 2125" d="M104.177,154.474c4.341-.9,6.54,17.082,6.54,17.082l-8.852,2.255C101.922,173.811,98.878,155.6,104.177,154.474Z" transform="translate(-101.046 -154.442)" fill="#ff8c00" opacity="0.5"/>
          </g>
          <path id="Path_2126" data-name="Path 2126" d="M101.7,186.168l9.922-2.368v1.691l-9.47,2.762Z" transform="translate(-101.331 -139.937)" fill="#ff8c00"/>
        </g>
      </g>
      <g id="Boxes" transform="translate(85.691 131.051)">
        <g id="Group_746" data-name="Group 746">
          <path id="Path_2127" data-name="Path 2127" d="M157.637,316.939V239.647a16.422,16.422,0,0,0-2.931-9.358L152,226.4h47.976l2.706,3.89a16.422,16.422,0,0,1,2.932,9.357v76.558" transform="translate(-152 -205.823)" fill="none"/>
          <g id="Group_734" data-name="Group 734" transform="translate(102.322 114.95)">
            <g id="Group_733" data-name="Group 733" transform="translate(0.338 3.157)">
              <circle id="Ellipse_52" data-name="Ellipse 52" cx="4.961" cy="4.961" r="4.961" transform="translate(0 0)" fill="#263238"/>
              <circle id="Ellipse_53" data-name="Ellipse 53" cx="2.48" cy="2.48" r="2.48" transform="translate(2.48 2.48)" fill="#fff" opacity="0.4"/>
            </g>
            <path id="Path_2128" data-name="Path 2128" d="M338.179,403.045h0a1.83,1.83,0,0,1-1.747-1.24L333.5,393.8h6.6v7.385a1.966,1.966,0,0,1-1.917,1.86Z" transform="translate(-333.5 -393.8)" fill="#263238"/>
            <path id="Path_2129" data-name="Path 2129" d="M338.179,403.045h0a1.83,1.83,0,0,1-1.747-1.24L333.5,393.8h6.6v7.385a1.966,1.966,0,0,1-1.917,1.86Z" transform="translate(-333.5 -393.8)" fill="#fff" opacity="0.2"/>
          </g>
          <g id="Group_736" data-name="Group 736" transform="translate(47.074 114.95)">
            <g id="Group_735" data-name="Group 735" transform="translate(0.338 3.157)">
              <circle id="Ellipse_54" data-name="Ellipse 54" cx="4.961" cy="4.961" r="4.961" transform="translate(0 0)" fill="#263238"/>
              <circle id="Ellipse_55" data-name="Ellipse 55" cx="2.48" cy="2.48" r="2.48" transform="translate(2.48 2.48)" fill="#fff" opacity="0.4"/>
            </g>
            <path id="Path_2130" data-name="Path 2130" d="M240.179,403.045h0a1.83,1.83,0,0,1-1.748-1.24L235.5,393.8h6.6v7.385A1.966,1.966,0,0,1,240.179,403.045Z" transform="translate(-235.5 -393.8)" fill="#263238"/>
            <path id="Path_2131" data-name="Path 2131" d="M240.179,403.045h0a1.83,1.83,0,0,1-1.748-1.24L235.5,393.8h6.6v7.385A1.966,1.966,0,0,1,240.179,403.045Z" transform="translate(-235.5 -393.8)" fill="#fff" opacity="0.2"/>
          </g>
          <path id="Path_2132" data-name="Path 2132" d="M269.661,383.5v4.679a1.576,1.576,0,0,1-1.579,1.578h-111a1.613,1.613,0,0,1-1.579-1.578V383.5Z" transform="translate(-153.527 -274.356)" fill="#263238"/>
          <path id="Path_2133" data-name="Path 2133" d="M269.661,383.5v4.679a1.576,1.576,0,0,1-1.579,1.578h-111a1.613,1.613,0,0,1-1.579-1.578V383.5Z" transform="translate(-153.527 -274.356)" fill="#fff" opacity="0.4"/>
          <path id="Path_2134" data-name="Path 2134" d="M230.2,383.5v4.679a1.576,1.576,0,0,1-1.579,1.578H157.079a1.613,1.613,0,0,1-1.579-1.578V383.5Z" transform="translate(-153.527 -274.356)" fill="#fff" opacity="0.2"/>
          <g id="Group_738" data-name="Group 738" transform="translate(62.295 114.95)">
            <g id="Group_737" data-name="Group 737" transform="translate(0.338 3.157)">
              <circle id="Ellipse_56" data-name="Ellipse 56" cx="4.961" cy="4.961" r="4.961" transform="translate(0 0)" fill="#263238"/>
              <circle id="Ellipse_57" data-name="Ellipse 57" cx="2.48" cy="2.48" r="2.48" transform="translate(2.48 2.48)" fill="#fff" opacity="0.6"/>
            </g>
            <path id="Path_2135" data-name="Path 2135" d="M267.179,403.045h0a1.83,1.83,0,0,1-1.747-1.24L262.5,393.8h6.6v7.385A1.966,1.966,0,0,1,267.179,403.045Z" transform="translate(-262.5 -393.8)" fill="#263238"/>
            <path id="Path_2136" data-name="Path 2136" d="M267.179,403.045h0a1.83,1.83,0,0,1-1.747-1.24L262.5,393.8h6.6v7.385A1.966,1.966,0,0,1,267.179,403.045Z" transform="translate(-262.5 -393.8)" fill="#fff" opacity="0.4"/>
          </g>
          <g id="Group_740" data-name="Group 740" transform="translate(7.047 114.95)">
            <g id="Group_739" data-name="Group 739" transform="translate(0.338 3.157)">
              <circle id="Ellipse_58" data-name="Ellipse 58" cx="4.961" cy="4.961" r="4.961" transform="translate(0 0)" fill="#263238"/>
              <circle id="Ellipse_59" data-name="Ellipse 59" cx="2.48" cy="2.48" r="2.48" transform="translate(2.48 2.48)" fill="#fff" opacity="0.6"/>
            </g>
            <path id="Path_2137" data-name="Path 2137" d="M169.179,403.045h0a1.83,1.83,0,0,1-1.748-1.24L164.5,393.8h6.6v7.385A1.966,1.966,0,0,1,169.179,403.045Z" transform="translate(-164.5 -393.8)" fill="#263238"/>
            <path id="Path_2138" data-name="Path 2138" d="M169.179,403.045h0a1.83,1.83,0,0,1-1.748-1.24L164.5,393.8h6.6v7.385A1.966,1.966,0,0,1,169.179,403.045Z" transform="translate(-164.5 -393.8)" fill="#fff" opacity="0.4"/>
          </g>
          <g id="Group_741" data-name="Group 741" transform="translate(15.673 72.781)">
            <rect id="Rectangle_369" data-name="Rectangle 369" width="52.542" height="36.419" fill="#407bff"/>
            <rect id="Rectangle_370" data-name="Rectangle 370" width="52.542" height="36.419" fill="#fff" opacity="0.4"/>
            <rect id="Rectangle_371" data-name="Rectangle 371" width="24.411" height="36.419" fill="#fff" opacity="0.2"/>
            <path id="Path_2139" data-name="Path 2139" d="M216.252,375.086h-3.044a.505.505,0,0,1-.507-.507v-4.172a.505.505,0,0,1,.507-.507h3.044a.505.505,0,0,1,.507.507v4.172a.505.505,0,0,1-.507.507Z" transform="translate(-194.152 -341.204)" opacity="0.2"/>
            <path id="Path_2140" data-name="Path 2140" d="M206.552,375.086h-3.044a.505.505,0,0,1-.507-.507v-4.172a.505.505,0,0,1,.507-.507h3.044a.505.505,0,0,1,.507.507v4.172a.505.505,0,0,1-.507.507Z" transform="translate(-189.921 -341.204)" opacity="0.2"/>
            <rect id="Rectangle_372" data-name="Rectangle 372" width="2.988" height="3.777" transform="translate(38.336)" opacity="0.4"/>
            <rect id="Rectangle_373" data-name="Rectangle 373" width="20.464" height="4.736" transform="translate(28.921 15.503)" opacity="0.2"/>
            <rect id="Rectangle_374" data-name="Rectangle 374" width="6.991" height="6.991" transform="translate(1.635 1.861)" opacity="0.2"/>
          </g>
          <g id="Group_742" data-name="Group 742" transform="translate(21.084 36.362)">
            <rect id="Rectangle_375" data-name="Rectangle 375" width="52.542" height="36.419" fill="#407bff"/>
            <rect id="Rectangle_376" data-name="Rectangle 376" width="52.542" height="36.419" opacity="0.4"/>
            <rect id="Rectangle_377" data-name="Rectangle 377" width="24.411" height="36.419" fill="#fff" opacity="0.2"/>
            <path id="Path_2141" data-name="Path 2141" d="M225.752,310.586h-3.044a.505.505,0,0,1-.507-.507v-4.172a.505.505,0,0,1,.507-.507h3.044a.505.505,0,0,1,.507.507v4.172C226.315,310.3,226.09,310.586,225.752,310.586Z" transform="translate(-203.709 -276.648)" opacity="0.2"/>
            <path id="Path_2142" data-name="Path 2142" d="M216.052,310.586h-3.044a.505.505,0,0,1-.507-.507v-4.172a.505.505,0,0,1,.507-.507h3.044a.505.505,0,0,1,.507.507v4.172A.545.545,0,0,1,216.052,310.586Z" transform="translate(-199.477 -276.648)" opacity="0.2"/>
            <rect id="Rectangle_378" data-name="Rectangle 378" width="2.988" height="3.777" transform="translate(38.279)" opacity="0.4"/>
            <rect id="Rectangle_379" data-name="Rectangle 379" width="20.464" height="4.736" transform="translate(28.921 15.56)" opacity="0.2"/>
            <rect id="Rectangle_380" data-name="Rectangle 380" width="6.991" height="6.991" transform="translate(1.579 1.917)" opacity="0.2"/>
          </g>
          <g id="Group_743" data-name="Group 743" transform="translate(53.219 36.362)">
            <rect id="Rectangle_381" data-name="Rectangle 381" width="52.542" height="36.419" fill="#407bff"/>
            <rect id="Rectangle_382" data-name="Rectangle 382" width="52.542" height="36.419" fill="#fff" opacity="0.4"/>
            <rect id="Rectangle_383" data-name="Rectangle 383" width="24.411" height="36.419" fill="#fff" opacity="0.2"/>
            <path id="Path_2143" data-name="Path 2143" d="M282.852,310.586h-3.044a.505.505,0,0,1-.507-.507v-4.172a.505.505,0,0,1,.507-.507h3.044a.505.505,0,0,1,.507.507v4.172C283.415,310.3,283.134,310.586,282.852,310.586Z" transform="translate(-260.752 -276.648)" opacity="0.2"/>
            <path id="Path_2144" data-name="Path 2144" d="M273.152,310.586h-3.044a.505.505,0,0,1-.507-.507v-4.172a.505.505,0,0,1,.507-.507h3.044a.505.505,0,0,1,.507.507v4.172A.545.545,0,0,1,273.152,310.586Z" transform="translate(-256.521 -276.648)" opacity="0.2"/>
            <rect id="Rectangle_384" data-name="Rectangle 384" width="2.988" height="3.777" transform="translate(38.336)" opacity="0.4"/>
            <rect id="Rectangle_385" data-name="Rectangle 385" width="20.464" height="4.736" transform="translate(28.977 15.56)" opacity="0.2"/>
            <rect id="Rectangle_386" data-name="Rectangle 386" width="6.991" height="6.991" transform="translate(1.635 1.917)" opacity="0.2"/>
          </g>
          <g id="Group_744" data-name="Group 744" transform="translate(35.066)">
            <rect id="Rectangle_387" data-name="Rectangle 387" width="52.542" height="36.419" fill="#407bff"/>
            <rect id="Rectangle_388" data-name="Rectangle 388" width="24.411" height="36.419" fill="#fff" opacity="0.2"/>
            <path id="Path_2145" data-name="Path 2145" d="M250.652,245.986h-3.044a.505.505,0,0,1-.507-.507v-4.172a.505.505,0,0,1,.507-.507h3.044a.505.505,0,0,1,.507.507v4.172a.505.505,0,0,1-.507.507Z" transform="translate(-228.552 -212.104)" opacity="0.2"/>
            <path id="Path_2146" data-name="Path 2146" d="M240.852,245.986h-3.044a.505.505,0,0,1-.507-.507v-4.172a.505.505,0,0,1,.507-.507h3.044a.505.505,0,0,1,.507.507v4.172a.505.505,0,0,1-.507.507Z" transform="translate(-224.277 -212.104)" opacity="0.2"/>
            <rect id="Rectangle_389" data-name="Rectangle 389" width="2.988" height="3.777" transform="translate(38.279)" opacity="0.4"/>
            <rect id="Rectangle_390" data-name="Rectangle 390" width="20.464" height="4.736" transform="translate(28.921 15.503)" opacity="0.2"/>
            <rect id="Rectangle_391" data-name="Rectangle 391" width="6.991" height="6.991" transform="translate(1.579 1.861)" opacity="0.2"/>
          </g>
          <g id="Group_745" data-name="Group 745" transform="translate(49.16 72.781)">
            <rect id="Rectangle_392" data-name="Rectangle 392" width="52.542" height="36.419" fill="#263238"/>
            <rect id="Rectangle_393" data-name="Rectangle 393" width="52.542" height="36.419" fill="#fff" opacity="0.2"/>
            <rect id="Rectangle_394" data-name="Rectangle 394" width="24.411" height="36.419" fill="#fff" opacity="0.2"/>
            <path id="Path_2147" data-name="Path 2147" d="M275.652,375.086h-3.044a.505.505,0,0,1-.507-.507v-4.172a.505.505,0,0,1,.507-.507h3.044a.505.505,0,0,1,.507.507v4.172a.505.505,0,0,1-.507.507Z" transform="translate(-253.552 -341.204)" opacity="0.2"/>
            <path id="Path_2148" data-name="Path 2148" d="M265.852,375.086h-3.044a.505.505,0,0,1-.507-.507v-4.172a.505.505,0,0,1,.507-.507h3.044a.505.505,0,0,1,.507.507v4.172a.505.505,0,0,1-.507.507Z" transform="translate(-249.277 -341.204)" opacity="0.2"/>
            <rect id="Rectangle_395" data-name="Rectangle 395" width="2.988" height="3.777" transform="translate(38.279)" opacity="0.4"/>
            <rect id="Rectangle_396" data-name="Rectangle 396" width="20.464" height="4.736" transform="translate(28.921 15.503)" opacity="0.2"/>
            <rect id="Rectangle_397" data-name="Rectangle 397" width="6.991" height="6.991" transform="translate(1.579 1.861)" opacity="0.2"/>
          </g>
        </g>
      </g>
    </g>
  </g>
</svg>
