<?xml version="1.0" encoding="utf-8"?>
<!-- Generator: Adobe Illustrator 19.0.0, SVG Export Plug-In . SVG Version: 6.00 Build 0)  -->
<svg version="1.1" xmlns="http://www.w3.org/2000/svg" xmlns:xlink="http://www.w3.org/1999/xlink" x="0px" y="0px"
	 viewBox="0 0 750 500" style="enable-background:new 0 0 750 500;" xml:space="preserve">
<style type="text/css">
	.st0{opacity:0.5;fill:#C1C1C1;}
	.st1{fill:#0E263F;}
	.st2{fill:none;stroke:#FFD961;stroke-linecap:round;stroke-miterlimit:10;}
	.st3{fill:#D4E8FF;}
	.st4{fill:#102B51;}
	.st5{fill:#ED906B;}
	.st6{fill:#FFBC80;}
	.st7{fill:#FFFFFF;}
	.st8{fill:#C1C1C1;}
	.st9{fill:#684000;}
	.st10{fill:#0A1D35;}
	.st11{fill:#FFD961;}
	.st12{fill:none;stroke:#0A1D35;stroke-width:2;stroke-miterlimit:10;}
	.st13{fill:none;stroke:#132C51;stroke-width:2;stroke-linecap:round;stroke-miterlimit:10;}
	.st14{fill:none;stroke:#C1C1C1;stroke-width:2;stroke-linecap:round;stroke-linejoin:round;stroke-miterlimit:10;}
	.st15{fill:none;stroke:#C1C1C1;stroke-linecap:round;stroke-linejoin:round;stroke-miterlimit:10;}
	.st16{fill:none;stroke:#9ABAD8;stroke-linecap:round;stroke-linejoin:round;stroke-miterlimit:10;}
	.st17{fill:none;stroke:#000000;stroke-width:4;stroke-linecap:round;stroke-miterlimit:10;}
	.st18{fill:none;stroke:#C1C1C1;stroke-width:2;stroke-linecap:round;stroke-miterlimit:10;}
	.st19{fill:#FFC215;}
	.st20{fill:#9B9B9B;}
	.st21{fill:none;stroke:#101E35;stroke-linecap:round;stroke-miterlimit:10;}
	.st22{fill:#2B512D;}
	.st23{clip-path:url(#SVGID_2_);fill:#FFC215;}
	.st24{clip-path:url(#SVGID_4_);fill:#FFC215;}
	.st25{fill:none;stroke:#FFFFFF;stroke-width:0.5;stroke-miterlimit:10;}
	.st26{fill:none;stroke:#C1C1C1;stroke-linecap:round;stroke-miterlimit:10;}
	.st27{fill:#FF2C2C;}
	.st28{fill:#275389;}
	.st29{fill:none;stroke:#000000;stroke-linecap:round;stroke-linejoin:round;stroke-miterlimit:10;}
	.st30{clip-path:url(#SVGID_6_);fill:#FFC215;}
	.st31{clip-path:url(#SVGID_8_);fill:#FFC215;}
	.st32{fill:none;stroke:#FFFFFF;stroke-width:2;stroke-linecap:round;stroke-linejoin:round;stroke-miterlimit:10;}
</style>
<g id="BACKGROUND">
</g>
<g id="OBJECTS">
	<g>
		<ellipse class="st0" cx="247.8" cy="418.7" rx="53.9" ry="9.3"/>
		<g>
			<path class="st1" d="M222.8,182.9l-16.5,25.1c0,0,16.5,23.6,20.1,31c1.2,2.3-9.9,10.4-11.1,8.4c-1.4-2.2-28.4-39-27.5-44
				c1.3-6.8,30.8-49.7,30.8-49.7c2.9-2,6.1-2.7,10.7,3c3.5,4.3,2,14.8,0.2,17C227.8,175.9,222.8,182.9,222.8,182.9z"/>
			<line class="st2" x1="212.6" y1="243.7" x2="224.3" y2="234.7"/>
			<line class="st2" x1="210.9" y1="241.4" x2="222.7" y2="232.3"/>
			<line class="st2" x1="209.1" y1="239.1" x2="221" y2="229.9"/>
			<path class="st1" d="M279.1,180.7l10.7,26.3c0,0-11.9,22.7-15.4,30.1c-1.2,2.3,9.9,10.4,11.1,8.4c1.4-2.2,20-37,19-42
				c-1.3-6.8-19.2-49.2-19.2-49.2c-2.9-2-6.5-3.4-11.1,2.3c-3.5,4.3-2,14.8-0.2,17C275.7,175.9,279.1,180.7,279.1,180.7z"/>
			<line class="st2" x1="290" y1="237" x2="278.1" y2="227.9"/>
			<line class="st2" x1="291.4" y1="234.4" x2="279.8" y2="225.4"/>
			<path d="M258.2,404c0,0-0.1,2.2,0,3.3c0.1,0.8-0.7,5.8-1.3,8.9c-0.2,1.4,0.3,2.4,1.4,2.5c5.1,0.3,19.7,1,22.9,1
				c3.9,0,7.5-0.3,8.2-1.8c1-2.3-0.6-6.5-8.3-8.8c-3.9-1.2-5-6-5-5.2H258.2z"/>
			<path d="M232,404.7c-0.3,4.3,4.9,6.6,4.9,10.7c0,0.8,0.1,2.4-0.3,3c-1.3,1.9-4.5,2.1-7.2,2.1c-3.8,0-7.8-0.3-10.8-1.4
				c-5-1.9-2.1-9.9-2.1-14.3C216.5,402.8,232,404.7,232,404.7z"/>
			<polygon class="st3" points="242.5,153.6 248.7,149.6 254.7,149.7 266.6,154.7 255,205 			"/>
			<path class="st4" d="M253.1,267.4c0.6-1.2-6.1,58.8-8.5,65.7c-6.6,19.4-12.7,72.4-12.7,72.4s-2.3,1-7.1,1.4c-4.5,0.3-8.3-1-8.3-1
				s0-12.1,0-32.3c0-20.2,5.3-46,5.3-49.8c0-26.2-0.4-47.5,1.2-77.3c0,0,15.8-10.9,32.6-10.7c8.9,0.1,17.4,13.6,25.6,10.7
				c2.7,25.2,1.4,46.8,0.5,74.7c-1,29.1-6.7,61.5-5.6,82.9c0,0-2.3,1.8-8.9,2.4c-6.5,0.6-9-1.1-9-1.1s-1.5-38.2,2.4-74.3l-7.3-52.8
				C252.4,275,253.1,267.4,253.1,267.4z"/>
			<path class="st1" d="M222.3,262.9c0,0,16.3,23.4,32.7,0.5c17,19.5,27.7,1.9,27.7,1.9L256,233.9L222.3,262.9z"/>
			<g>
				<path class="st5" d="M268.3,118.9c-0.4,2.7-2.5,6.3-4.5,5.2c-1.6-0.9-3-2.3-2.7-5c0.4-2.8,1.8-4.1,4-4.5
					C267.4,114.1,268.6,116.2,268.3,118.9z"/>
				<path class="st6" d="M267.6,115.4c-0.4-0.5-2.8-0.8-3.5,1.2l0.3-1.9c0,0,0.8-0.4,1.7-0.2C267.2,114.7,267.6,115.4,267.6,115.4z"
					/>
				<path class="st5" d="M232.8,118.9c0.4,2.7,2.5,6.3,4.5,5.2c1.6-0.9,3-2.3,2.7-5c-0.4-2.8-1.8-4.1-4-4.5
					C233.7,114.1,232.4,116.2,232.8,118.9z"/>
				<path class="st6" d="M233.5,115.4c0.4-0.5,2.8-0.8,3.5,1.2l-0.3-1.9c0,0-0.8-0.4-1.7-0.2C233.9,114.7,233.5,115.4,233.5,115.4z"
					/>
				<path class="st6" d="M241.5,131.7c0.9,3-0.3,12.2-0.5,12.8c0,0,3.2,5.5,10.8,5.5c7.6,0,7.6-3.9,7.6-3.9s-2-9.1-1-14L241.5,131.7
					z"/>
				<path class="st5" d="M241.8,133.5c0,0,0.1,1.1,0,2.9c0,0,4.9,5.8,8.4,5.8c3.5,0,8-5.4,8-5.4s-0.1-3.6,0.1-5.1L241.8,133.5z"/>
				<path class="st6" d="M264.4,113.2c0,7.7-6.2,13.9-13.9,13.9c-7.7,0-13.9-6.2-13.9-13.9c0-10.3,6.2-15.2,13.9-15.2
					C258.2,98,264.4,103.1,264.4,113.2z"/>
				<path class="st6" d="M264.4,113.2c0,7.4,0,13.6-2.8,17.6c-1.7,2.4-6.1,6.6-9.3,7.7c-0.8,0.3-3.1,0.1-3.9-0.2
					c-3.2-1.1-7.2-5.2-8.9-7.5c-2.8-4-2.8-10.2-2.8-17.6"/>
				<path class="st7" d="M244.3,129.6c0,0.4,3.5,3.9,6.2,3.9c2.7,0,6.2-3.5,6.2-3.9C256.8,129.2,244.3,129.2,244.3,129.6z"/>
				<ellipse cx="257.3" cy="118.2" rx="1.7" ry="2.3"/>
				<ellipse cx="244.2" cy="118.2" rx="1.7" ry="2.3"/>
				<g>
					<path d="M255,112.5c0,0,0.4-0.1,0.9-0.1c0.6,0,1.3,0,2,0.1c0.7,0.1,1.5,0.3,2,0.4c0.5,0.2,0.9,0.3,0.9,0.3
						c0.1,0.1,0.2,0.2,0.1,0.4c-0.1,0.1-0.2,0.2-0.3,0.2l0,0c0,0-0.3-0.1-0.9-0.2c-0.2-0.1-0.6-0.1-0.9-0.2c-0.3-0.1-0.7-0.1-1-0.2
						c-0.7-0.1-1.4-0.1-1.9-0.2c-0.5,0-0.9,0-0.9,0c-0.2,0-0.3-0.1-0.3-0.3C254.8,112.6,254.9,112.5,255,112.5z"/>
				</g>
				<g>
					<path d="M245.8,113.1c0,0-0.3,0-0.9,0c-0.5,0-1.2,0.1-1.9,0.2c-0.3,0.1-0.7,0.1-1,0.2c-0.3,0.1-0.6,0.1-0.9,0.2
						c-0.5,0.1-0.9,0.2-0.9,0.2l0,0c-0.2,0-0.3-0.1-0.3-0.2c0-0.1,0-0.3,0.2-0.3c0,0,0.3-0.1,0.9-0.3c0.5-0.2,1.2-0.4,2-0.4
						c0.7-0.1,1.5-0.1,2-0.1c0.6,0,0.9,0.1,0.9,0.1c0.2,0,0.3,0.2,0.2,0.3C246.1,113,246,113.1,245.8,113.1z"/>
				</g>
				<path class="st5" d="M248.1,125.5c0.9-0.4,4.1-0.5,4.8,0c0.8,0.5-1.6,1.1-2.4,1.1S247.4,125.9,248.1,125.5z"/>
			</g>
			<path d="M248.7,149.6c0,0,3.6-1.4,6,0.1l1.2,1l-1.3,3.7l-4.3,0.2l-2.6-3.8L248.7,149.6z"/>
			<polyline points="250.2,154.7 250.2,183.8 255,199.7 259.9,185.6 254.6,154.5 			"/>
			<path class="st4" d="M278.6,178.8c1.6,12.7,3.1,38.2,4.2,50.5c0.1,1,6.2,7.3,6.4,9.4c0.5,9-4.8,21.6-4.9,25.8
				c0,0-11.2,5.9-18.9,2.4c-7.9-3.7-9.5-19.5-9.5-19.5s-3.6,18.3-11.2,20.6c-8.2,2.6-24.5-3.4-24.3-8.2c0.4-2.9-3.5-6.4-3.2-12.1
				c0-0.4,4.4-3.5,4.4-3.8c1.1-23,1.2-59.2,1.8-65.3l-4.8-24.9c3.4-3.7,18.5-7.5,21.2-10.6c4.2,2.8,12.1,36.9,15.2,56.7
				c8.4-22.5,7.2-57.1,7.2-57.1c7.1,4.9,16.4,6.9,23.1,11.8L278.6,178.8z"/>
			<path class="st3" d="M241.5,140.8h-0.7l-3.9,3.7l4,13.7l7.8-8.6C248.7,149.6,241.2,145.3,241.5,140.8z"/>
			<path class="st3" d="M258.4,139.8h0.4l4.5,3.2v14.2l-7.5-6.5l-1.2-1C254.7,149.7,259.6,147.3,258.4,139.8z"/>
			<polygon class="st8" points="241,158.2 248.3,150.1 248.7,149.6 249.8,151.9 240.6,159.1 237.6,146.8 			"/>
			<polygon class="st8" points="263.4,157.2 254.7,149.7 254.3,151.7 264,158.1 263.4,143.6 			"/>
			<path class="st9" d="M250.6,103.9c-2,0-3.6-0.8-5.7-1.4c-3.7-0.9-5.5,3.1-5.5,3.1c-2.1,3.5-1.7,14.5-1.7,15.1
				c0,0.6-0.9,0.7-0.9,0c0,0-0.8-7.3-0.3-11.7c0.5-4.4,3-11.3,9-11.7c0,0,3.7-3.4,9.5-2.4c6.9,1.3,9.2,7.1,9.9,12.3
				c0.6,4.8-0.4,11.9-0.4,13.3c0,0.8-0.9,0.7-0.9,0c0-1.2,0.7-12.9-1.8-15.9C257.4,99.5,252.5,103.9,250.6,103.9z"/>
			<path class="st10" d="M250.7,83.6c13.4,0,20.5,17.9,20.5,17.9c-2,6.3-6.3,8.9-6.3,8.9s-0.9-8.1-4.6-11.4
				c-3.7-3.3-15.5-3.8-19.5,0.9c-4.1,4.7-4.4,10.5-4.4,10.5s-4.2-2.6-6.3-8.9C230.1,101.5,237.2,83.6,250.7,83.6z"/>
			<path d="M234,102c0,5.1,5.3,8.9,16.7,8.9c11.4,0,15.8-3.5,15.8-8.9c0-3.1-8.3-7-16.6-7C241.9,94.9,234,98.5,234,102z"/>
			<polygon class="st1" points="237.1,144.9 242.5,181.6 249,182.5 242.9,185.3 255,199.7 244.5,185.5 249.8,182.4 243.3,180.6 
				238.4,150 			"/>
			<polygon class="st1" points="265.3,144.4 267.5,181.4 262.1,182.7 266.2,184.3 255,199.7 267.3,183.9 263.4,182.8 268.7,181.7 
							"/>
			<line class="st2" x1="278.3" y1="155.3" x2="279.8" y2="151.1"/>
			<line class="st2" x1="276.5" y1="154.5" x2="278" y2="150.3"/>
			<line class="st2" x1="274.7" y1="153.6" x2="276.3" y2="149.5"/>
			<line class="st2" x1="225.5" y1="154.7" x2="223.9" y2="150.5"/>
			<line class="st2" x1="227.3" y1="153.8" x2="225.7" y2="149.7"/>
			<line class="st2" x1="229" y1="153" x2="227.5" y2="148.8"/>
			<circle class="st11" cx="248.2" cy="209.6" r="1.6"/>
			<circle class="st11" cx="261.8" cy="209.6" r="1.6"/>
			<circle class="st11" cx="250.7" cy="90.5" r="1.9"/>
			<circle class="st11" cx="248.2" cy="221.8" r="1.6"/>
			<circle class="st11" cx="261.8" cy="221.8" r="1.6"/>
			<circle class="st11" cx="248.2" cy="234" r="1.6"/>
			<circle class="st11" cx="261.8" cy="234" r="1.6"/>
			<polygon class="st11" points="254.4,91.3 247.1,91.3 245.4,89.6 255.9,89.6 			"/>
			<path class="st2" d="M234.2,103.6c4.9-3.1,11.1-4,16.9-4c8.4,0,15.2,4.3,15.2,4.3"/>
		</g>
	</g>
	<g>
		<ellipse class="st0" cx="488.9" cy="419.7" rx="53.9" ry="9.3"/>
		<g>
			<path d="M482.5,405c0,0,0.1,2.2,0,3.3c-0.1,0.8,0.7,5.8,1.3,8.9c0.2,1.4-0.2,2.4-1.3,2.5c-5.1,0.3-19.7,1-22.8,1
				c-3.9,0-7.5-0.3-8.2-1.8c-1-2.3,0.6-6.4,8.3-8.8c3.9-1.2,5-6,5-5.1H482.5z"/>
			<path d="M508.6,405.8c0.3,4.3-4.9,6.6-4.9,10.6c0,0.8-0.1,2.3,0.3,3c1.3,1.9,4.5,2.1,7.1,2.1c3.8,0,7.8-0.3,10.7-1.4
				c5-1.9,2.1-9.9,2.1-14.3C524,403.9,508.6,405.8,508.6,405.8z"/>
			<polygon class="st3" points="498.2,155.5 491.9,151.5 485.9,151.6 474.1,156.5 485.6,206.6 			"/>
			<path class="st4" d="M488.7,280.1c1.7,16.6,5.5,49,7.3,54.2c6.5,19.4,12.7,72.1,12.7,72.1s2.3,1,7.1,1.4c4.5,0.3,8.3-1,8.3-1
				s0-12.1,0-32.2c0-20.1-5.3-45.8-5.3-49.7c0-26.1,0.6-49.7-0.9-79.4c0,0-32.3-0.1-59.5-0.1c-1.6,24.6-0.2,49.1,0.8,76.9
				c1,29,6.6,61.3,5.6,82.7c0,0,2.2,1.8,8.8,2.4c6.5,0.6,9-1.1,9-1.1s1.5-38.1-2.4-74.1l4.4-52.5L488.7,280.1z"/>
			<g>
				<path class="st5" d="M472.4,120.8c0.4,2.7,2.5,6.3,4.5,5.2c1.6-0.9,3-2.3,2.7-5c-0.4-2.7-1.8-4.1-4-4.5
					C473.3,116,472.1,118.1,472.4,120.8z"/>
				<path class="st6" d="M473.1,117.4c0.4-0.5,2.8-0.8,3.5,1.2l-0.3-1.9c0,0-0.8-0.4-1.7-0.2C473.5,116.6,473.1,117.4,473.1,117.4z"
					/>
				<path class="st5" d="M507.8,120.8c-0.4,2.7-2.5,6.3-4.5,5.2c-1.6-0.9-3-2.3-2.7-5c0.4-2.7,1.8-4.1,4-4.5
					C506.9,116,508.1,118.1,507.8,120.8z"/>
				<path class="st6" d="M507.1,117.4c-0.4-0.5-2.8-0.8-3.5,1.2l0.3-1.9c0,0,0.8-0.4,1.7-0.2C506.7,116.6,507.1,117.4,507.1,117.4z"
					/>
				<path class="st6" d="M499.1,133.6c-0.9,3,0.3,12.2,0.5,12.7c0,0-3.2,5.5-10.8,5.5c-7.6,0-7.6-3.9-7.6-3.9s2-9.1,1-14
					L499.1,133.6z"/>
				<path class="st5" d="M498.9,135.3c0,0-0.1,1.1,0,2.9c0,0-4.9,5.8-8.4,5.8c-3.5,0-8-5.4-8-5.4s0.1-3.6-0.1-5.1L498.9,135.3z"/>
				<path class="st6" d="M476.3,115.1c0,7.6,6.2,13.8,13.8,13.8c7.6,0,13.8-6.2,13.8-13.8c0-10.2-6.2-15.2-13.8-15.2
					C482.5,100,476.3,105.1,476.3,115.1z"/>
				<path class="st6" d="M476.3,115.1c0,7.4,0,13.6,2.8,17.6c1.7,2.4,6.1,6.6,9.3,7.6c0.8,0.3,3.1,0.1,3.9-0.1
					c3.2-1.1,7.2-5.2,8.8-7.5c2.8-4,2.8-10.2,2.8-17.6"/>
				<ellipse cx="483.4" cy="120.1" rx="1.7" ry="2.3"/>
				<ellipse cx="496.5" cy="120.1" rx="1.7" ry="2.3"/>
				<g>
					<path class="st11" d="M485.6,115c0,0-0.3,0-0.9,0c-0.5,0-1.2,0.1-1.9,0.2c-0.3,0.1-0.7,0.1-1,0.2c-0.3,0.1-0.6,0.1-0.9,0.2
						c-0.5,0.1-0.9,0.2-0.9,0.2l0,0c-0.2,0-0.3-0.1-0.3-0.2c0-0.1,0-0.3,0.2-0.3c0,0,0.3-0.1,0.9-0.3c0.5-0.2,1.2-0.4,2-0.4
						c0.7-0.1,1.5-0.1,2-0.1c0.5,0,0.9,0.1,0.9,0.1c0.2,0,0.3,0.2,0.2,0.3C485.9,114.9,485.7,115,485.6,115z"/>
				</g>
				<g>
					<path class="st11" d="M494.8,114.4c0,0,0.4-0.1,0.9-0.1c0.5,0,1.3,0,2,0.1c0.7,0.1,1.5,0.3,2,0.4c0.5,0.2,0.9,0.3,0.9,0.3
						c0.1,0.1,0.2,0.2,0.1,0.4c-0.1,0.1-0.2,0.2-0.3,0.2l0,0c0,0-0.3-0.1-0.9-0.2c-0.2-0.1-0.6-0.1-0.9-0.2c-0.3-0.1-0.7-0.1-1-0.2
						c-0.7-0.1-1.4-0.1-1.9-0.2c-0.5,0-0.9,0-0.9,0c-0.2,0-0.3-0.1-0.3-0.3C494.5,114.6,494.6,114.5,494.8,114.4z"/>
				</g>
				<path class="st5" d="M492.5,127.4c-0.9-0.4-4.1-0.5-4.8,0c-0.8,0.5,1.6,1.1,2.4,1.1C490.9,128.5,493.2,127.8,492.5,127.4z"/>
				<path class="st5" d="M495.1,131.9c-3,0.7-7.6,0.6-10.4,0.3c-0.3,0-0.5,0,0,0.2c0.8,0.3,3.1,0.8,5.1,0.8c2.1,0,4.7-0.7,5.4-1.1
					C495.5,131.9,495.4,131.8,495.1,131.9z"/>
			</g>
			<path class="st4" d="M491.9,151.5c0,0-3.6-1.4-6,0.1l-1.2,1l1.3,3.7l4.3,0.2l2.6-3.8L491.9,151.5z"/>
			<path class="st3" d="M457.8,182c-1.6,12.6,1.6,51.2,0.6,63.4c-0.1,1,59.5,0.5,59.5,0.1c-1.1-22.9-1.5-72,3.3-74.5l-4.3-24.7
				c-3.4-3.7-13.4,1.8-16.1-1.4c-4.2,2.8-12,36.8-15.1,56.5c-8.4-22.4-7.1-57-7.1-57c-7.1,4.9-16.4,6.9-23,11.8L457.8,182z"/>
			<path class="st3" d="M499.1,142.7h0.7l3.9,3.7l-4,13.6l-7.7-8.6C491.9,151.5,499.4,147.1,499.1,142.7z"/>
			<path class="st3" d="M482.2,141.6h-0.4l-4.5,3.2V159l7.5-6.4l1.2-1C485.9,151.6,481.1,149.1,482.2,141.6z"/>
			<polygon class="st8" points="499.6,160 492.4,152 491.9,151.5 491.8,154.4 500,160.9 503,148.7 			"/>
			<polygon class="st8" points="477.3,159 485.9,151.6 485.4,154.1 476.7,159.9 477.3,145.4 			"/>
			<path class="st11" d="M490.1,105.8c2,0,3.6-0.8,5.7-1.3c3.7-0.9,5.5,3.1,5.5,3.1c2.1,3.5,1.7,14.4,1.7,15.1c0,0.6,0.9,0.7,0.9,0
				c0,0,0.8-7.3,0.3-11.7c-0.5-4.4-3-11.3-9-11.7c0,0-3.7-3.4-9.4-2.4c-6.9,1.3-9.2,7.1-9.9,12.3c-0.6,4.8,0.4,11.8,0.4,13.3
				c0,0.8,0.9,0.7,0.9,0c0-1.2-0.7-12.9,1.8-15.9C483.3,101.5,488.2,105.8,490.1,105.8z"/>
			<path class="st10" d="M490,85.6c-3.8,0-18.9,16.9-18.9,16.9c2,6.3,4.7,9.8,4.7,9.8s0.9-8.1,4.6-11.4c3.7-3.2,15.4-3.8,19.5,0.9
				c4,4.7,4.4,10.4,4.4,10.4s3.3-3.6,5.3-9.9C509.5,102.5,493.8,85.6,490,85.6z"/>
			<path d="M505.4,104.9c0,5.1-4.1,8-15.5,8c-11.4,0-15.1-2.6-15.1-8c0-3.1,12.4-8,15.3-8S505.4,101.4,505.4,104.9z"/>
			<polygon class="st4" points="486.1,156.3 480,225 485.5,234.4 491.9,225 490.4,156.5 488.7,155 			"/>
			<path d="M517.6,240.2c1.2,0,1.5,8.7,0.2,8.7c-1.2,0-58.4,0.4-59.7,0.4c-0.5,0-0.5-8.5,0.6-8.5
				C460.4,240.8,517.6,240.2,517.6,240.2z"/>
			<path class="st6" d="M462.8,233.7c2.2,3.5,8.1,2.5,9.8,6.9h-3.2c0,0-2.3,2.7,0,8.6c1.3,3.4-9.4,3-10.7-1.6
				c-0.5-1.8-1.1-3.2-1.6-6.6c-0.2-1.5-1.7-2-2.5-2.8"/>
			<path class="st3" d="M462.2,180.6l-10.5,24.3c0,0,4.2,8.6,8.3,16.9c0.3,0.7-0.3,2.5,0.1,3.1c1.3,2.7,2.6,5.2,3.4,7
				c1.2,2.2-9.7,7.9-10.9,5.9c-0.4-0.6-1.8-3-3.6-6.4c-0.3-0.5-2-0.8-2.3-1.3c-4.8-9-10.3-23.1-10.3-26.6c0-5.4,19.2-47.4,19.2-47.4
				C458.4,154.1,462.2,180.6,462.2,180.6z"/>
			<path class="st6" d="M525.7,125.8c-2.1-0.9-5.1-0.2-8.3-1.7c-3.2-1.4-6.2-5.9-9.7-8.6c-1.3-1-2.5-4.1-2.2-5.4
				c0.3-1.2,7.8,2.5,9.8,3.3c2,0.8,7.8,6.6,11.5,7.8C526.7,121.3,526.4,126,525.7,125.8z"/>
			<path class="st3" d="M514.4,145.4l25.3-5c0,0-6.3-2.4-13-6.5c-0.5-0.3-0.7-2-1.2-2.4c-1.7-1-3.3-2.1-4.9-3
				c-2.5-2.3,3.4-12.7,6.9-10.7c1,0.5,3,1.4,5.4,2.7c0.6,0.3,3,0.3,3.6,0.7c11.4,6.3,28.8,18.4,27.6,22.2c-2.1,6.6-47.8,30-47.8,30
				c-3.1,1.7-2.1,1-6.1-5.3c-3-4.7-0.3-15,1.7-17C514,149.2,514.4,145.4,514.4,145.4z"/>
			<path class="st11" d="M487.3,89.6c0-0.4,0.4,0.3,1.2,0.1c0.7-0.2,0.9-1.1,1.5-1.1c0.5,0,0.5,1,1.2,1.1c0.8,0.2,1.4-0.5,1.4-0.1
				c0,1.5,0,3,0,3h0c0,0,0,0.1,0,0.1c0,1.5-1.2,2.6-2.6,2.6c-1.5,0-2.6-1.2-2.6-2.6c0,0,0-0.1,0-0.1h0
				C487.3,92.6,487.3,90.9,487.3,89.6z"/>
			<path class="st12" d="M505.9,105.1c-10.4-3.8-19.9-3.8-31.6-0.2"/>
			<ellipse class="st12" cx="473.6" cy="106.4" rx="0.1" ry="0.2"/>
			<ellipse class="st11" cx="474.9" cy="104.9" rx="0.9" ry="1.6"/>
			<ellipse class="st11" cx="505" cy="104.9" rx="0.9" ry="1.6"/>
			<line class="st13" x1="512.7" y1="240.1" x2="512.7" y2="250.6"/>
			<line class="st13" x1="497.6" y1="240.1" x2="497.6" y2="250.6"/>
			<line class="st13" x1="477.2" y1="240.1" x2="477.2" y2="250.6"/>
			<polyline class="st14" points="482.1,240.5 491.4,240.5 491.4,249.2 481.7,249.2 			"/>
			<line class="st15" x1="491.4" y1="244.7" x2="486.5" y2="244.7"/>
			<path class="st16" d="M497,180c0,0,0,6,0,7.8c0,1.8,12.7,1.8,12.7,0c0-1.8,0-7.8,0-7.8h-4.1l-2.4,2.3L501,180H497z"/>
			<polyline class="st16" points="509.7,180 510.7,180 510.7,175.4 495.7,175.4 495.7,180 497,180 			"/>
			<path class="st4" d="M477.3,145.4v2.4l-13,5.8c0,0-3.4,0.3-3.7,0.3c-0.3,0-0.4-0.1-0.3-0.3c0.1-0.2,0.7-1,0.7-1l16.3-7.9V145.4z"
				/>
			<path class="st4" d="M503.2,146l16.5-2.1l2.9,0.1c0,0,0.8,0.1,0.2,0.4c-0.5,0.3-3.3,2-3.3,2l-16.7,2.6
				C502.9,149.1,503.9,146.5,503.2,146z"/>
			<g>
				<line class="st17" x1="518.8" y1="227.8" x2="504" y2="272.4"/>
				<line class="st17" x1="515.1" y1="238.8" x2="506" y2="235.8"/>
			</g>
			<g>
				<g>
					<path class="st8" d="M467,260.5c0-3.6,2.9-6.5,6.5-6.5c3.6,0,6.5,2.9,6.5,6.5c0,3.6-2.9,6.5-6.5,6.5
						C469.9,267,467,264.1,467,260.5z M468.7,260.5c0,2.7,2.2,4.8,4.8,4.8c2.7,0,4.8-2.2,4.8-4.8s-2.2-4.8-4.8-4.8
						C470.8,255.7,468.7,257.8,468.7,260.5z"/>
				</g>
				<path class="st8" d="M476.5,254.8c-0.9-0.7,1.3-3.5,0.1-4.5c-1.2-1-5.8-1-7,0.2c-1.3,1.3,1.4,3.8,0.4,4.5"/>
				<line class="st18" x1="473.2" y1="248.8" x2="473.2" y2="250.5"/>
			</g>
			<path class="st19" d="M465.3,178.5c0-0.7,0.8,0.6,2.2,0.1c1.3-0.4,1.7-2.1,2.7-2.1c0.9,0,0.9,1.8,2.2,2.1
				c1.5,0.4,2.4-0.9,2.4-0.1c0,2.7,0,5.5,0,5.5h0c0,0.1,0,0.1,0,0.2c0,2.6-2.1,4.8-4.8,4.8c-2.6,0-4.8-2.1-4.8-4.8
				c0-0.1,0-0.1,0-0.2h0C465.3,183.9,465.3,180.9,465.3,178.5z"/>
		</g>
	</g>
	<g>
		<ellipse class="st0" cx="371" cy="429.4" rx="55.6" ry="9.6"/>
		<g>
			<path class="st6" d="M411.5,258.2c-4.9,4.3-3.5,10-4.1,13.9c-0.4,2.6-1.9,5.5,0.4,4.7c4-1.5,3.4-8.1,3.4-8.1s1.3,0.6,1.5,2.3
				c0.4,2.9-3.1,8.9-3.5,11.8c-0.4,3.1,5.9,0.5,8.4-3c4.6-5.8,4.6-16.1,4.6-17c0-2,0-7.9,0-7.9l-11.4-7.4
				C410.9,247.5,412.3,257.4,411.5,258.2z"/>
			<path class="st4" d="M405.8,144.5c5.5,5.1,10.8,13.6,12.2,32.4c1.1,14.5,5.9,50.9,6.1,70.6c0,0.8-1.4,2.2-1.4,2.9
				c0,4.6,0,7.8-0.1,8.9c-0.3,3.2-13-0.9-13-4c0-1-0.2-3.7-0.6-7.6c-0.1-0.8-1.1-1.3-1.1-2.2c-1.9-19-7.4-62.5-7.4-62.5"/>
			<path d="M389.9,412.1c0,2.8-0.9,6.6-2,8.9c-2.1,4.4-1.5,7.5-0.1,8.8c2.2,1.9,19.1,1.7,20.7,0c1.3-1.3,2.6-4.6,0.4-8.9
				c-1.1-2.3-2-5.7-2-8.2"/>
			<path d="M364.2,413.6c0,0,0.1,2.4,0,3.6c-0.1,0.8,0.8,6.2,1.3,9.5c0.3,1.5-0.3,2.6-1.4,2.6c-5.5,0.3-21.1,1.1-24.5,1.1
				c-4.1,0-8.1-0.3-8.8-1.9c-1.1-2.4,0.7-6.9,8.9-9.4c4.1-1.3,5.4-6.4,5.4-5.5H364.2z"/>
			<polygon class="st4" points="382.3,145.6 375.6,141.3 369.2,141.4 356.4,146.7 368.8,200.6 			"/>
			<path class="st4" d="M370.8,279.3c1.9,17.9,17.1,133.2,17.5,135.1c0.3,1.9,20.5,2.2,20.6,0.1c0.7-33.3-4.4-135.8-5.4-172.3
				c0,0-34.6-0.1-63.9-0.1c-1.7,26.4-0.6,88.6-0.6,100.7c0,12.1,4.7,63.3,6.1,70.7c0,0,2.4,1.7,9.5,1.7c7.5,0.1,9.6-1.7,9.6-1.7
				s0.3-40.9,0.7-74.3l4.5-60.1L370.8,279.3z"/>
			<g>
				<path class="st5" d="M354.7,110.5c0.4,2.9,2.7,6.7,4.9,5.6c1.8-0.9,3.2-2.4,2.9-5.4c-0.4-2.9-1.9-4.4-4.3-4.9
					C355.6,105.3,354.3,107.6,354.7,110.5z"/>
				<path class="st6" d="M355.4,106.8c0.5-0.6,3-0.9,3.7,1.3l-0.3-2.1c0,0-0.8-0.4-1.8-0.2C355.8,106,355.4,106.8,355.4,106.8z"/>
				<path class="st5" d="M392.6,110.5c-0.4,2.9-2.7,6.7-4.9,5.6c-1.8-0.9-3.2-2.4-2.8-5.4c0.4-2.9,1.9-4.4,4.3-4.9
					C391.7,105.3,393,107.6,392.6,110.5z"/>
				<path class="st6" d="M391.9,106.8c-0.5-0.6-3-0.9-3.7,1.3l0.3-2.1c0,0,0.8-0.4,1.8-0.2C391.5,106,391.9,106.8,391.9,106.8z"/>
				<path class="st6" d="M383.3,122.1c-0.9,3.2,0.3,13.1,0.6,13.7c0,0-3.4,5.9-11.6,5.9c-8.2,0-8.2-4.1-8.2-4.1s2.2-9.7,1-15
					L383.3,122.1z"/>
				<path class="st5" d="M383.1,124c0,0-0.1,1.1,0,3.1c0,0-5.3,6.2-9,6.2c-3.8,0-8.6-5.8-8.6-5.8s0.1-3.9-0.1-5.5L383.1,124z"/>
				<path class="st6" d="M358.8,102.3c0,8.2,6.6,14.8,14.8,14.8c8.2,0,14.8-6.6,14.8-14.8c0-11-6.6-16.3-14.8-16.3
					C365.5,86,358.8,91.5,358.8,102.3z"/>
				<path class="st6" d="M358.8,102.3c0,7.9,0,14.6,3,18.9c1.8,2.6,6.6,7.1,10,8.2c0.9,0.3,3.3,0.1,4.1-0.2c3.4-1.2,7.8-5.6,9.5-8
					c3-4.3,3-11,3-18.9"/>
				<ellipse cx="367" cy="108.5" rx="1.8" ry="2.4"/>
				<ellipse cx="380.1" cy="108.5" rx="1.8" ry="2.4"/>
				<g>
					<path class="st10" d="M368.8,103.2c0,0-0.4,0-0.9,0.1c-0.3,0-0.6,0.1-0.9,0.1c-0.3,0-0.7,0.1-1.1,0.1c-0.4,0.1-0.7,0.1-1.1,0.2
						c-0.3,0.1-0.7,0.1-0.9,0.2c-0.5,0.1-0.9,0.1-0.9,0.1l-0.1,0c-0.3,0-0.5-0.2-0.6-0.5c0-0.2,0.1-0.4,0.3-0.5c0,0,0.4-0.2,0.9-0.4
						c0.6-0.2,1.4-0.4,2.2-0.5c0.4-0.1,0.8-0.1,1.2-0.1c0.4,0,0.7,0,1,0c0.3,0,0.5,0.1,0.7,0.1c0.2,0,0.3,0.1,0.3,0.1l0,0
						c0.3,0.1,0.4,0.4,0.3,0.7C369.2,103.1,369,103.2,368.8,103.2z"/>
				</g>
				<g>
					<path class="st10" d="M378.6,102.2c0,0,0.1,0,0.3-0.1c0.2,0,0.4-0.1,0.7-0.1c0.3,0,0.7,0,1,0c0.4,0,0.8,0,1.2,0.1
						c0.8,0.1,1.6,0.3,2.2,0.5c0.6,0.2,0.9,0.4,0.9,0.4c0.3,0.1,0.3,0.5,0.2,0.7c-0.1,0.2-0.3,0.3-0.5,0.3l-0.1,0c0,0-0.4,0-0.9-0.1
						c-0.3-0.1-0.6-0.1-0.9-0.2c-0.3-0.1-0.7-0.1-1.1-0.2c-0.4-0.1-0.7-0.1-1.1-0.1c-0.3,0-0.7-0.1-0.9-0.1
						c-0.6-0.1-0.9-0.1-0.9-0.1c-0.3,0-0.5-0.3-0.5-0.6C378.3,102.4,378.4,102.3,378.6,102.2L378.6,102.2z"/>
				</g>
				<path class="st5" d="M376.2,115.5c-1-0.4-4.4-0.5-5.2,0c-0.8,0.5,1.7,1.1,2.6,1.1C374.5,116.6,377,115.9,376.2,115.5z"/>
				<path class="st5" d="M379.1,120.3c-3.2,0.8-8.2,0.7-11.1,0.4c-0.4,0-0.5,0,0,0.2c0.8,0.3,3.3,2.8,5.5,2.8c2.2,0,5-2.7,5.8-3.2
					C379.5,120.3,379.4,120.2,379.1,120.3z"/>
			</g>
			<path class="st3" d="M375.6,141.3c0,0-3.8-1.5-6.4,0.1l-1.2,1.1l1.4,4l4.7,0.2l2.7-4.1L375.6,141.3z"/>
			<path class="st4" d="M339,174.1c-1.7,13.5,1.7,55,0.6,68.1c-0.1,1,63.9,0.5,63.9,0.1c-1.2-24.6-1.6-77.3,3.6-80l-1.1-17.8
				c-3.7-4-17.9-6.8-20.7-10.2c-4.5,3-12.9,39.5-16.2,60.7c-9-24.1-7.7-61.2-7.7-61.2c-7.6,5.2-17.6,7.4-24.7,12.6L339,174.1z"/>
			<path class="st4" d="M383.4,131.9h0.7l4.1,4l-4.3,14.6l-8.3-9.2C375.6,141.3,383.7,136.7,383.4,131.9z"/>
			<path class="st4" d="M365.2,130.7h-0.5l-4.9,3.4v15.2l8.1-6.9l1.2-1.1C369.2,141.4,364,138.8,365.2,130.7z"/>
			<polygon class="st8" points="383.9,150.5 376.1,141.8 375.6,141.3 375.5,144.5 384.3,151.5 387.5,138.3 			"/>
			<polygon class="st8" points="359.9,149.4 369.2,141.4 368.6,144.2 359.3,150.3 359.9,134.9 			"/>
			<path d="M373.6,92.3c2.1,0,3.9-0.9,6.1-1.4c4-1,5.9,3.3,5.9,3.3c2.3,3.7,1.8,15.5,1.8,16.2c0,0.7,0.9,0.8,1,0
				c0,0,0.9-7.8,0.3-12.6c-0.5-4.7-3.2-12.1-9.6-12.6c0,0-4-3.7-10.1-2.6c-7.4,1.4-9.9,7.6-10.6,13.2c-0.6,5.1,0.4,12.7,0.4,14.3
				c0,0.9,1,0.8,1,0c0-1.3-0.7-13.8,2-17.1C366.4,87.6,371.6,92.3,373.6,92.3z"/>
			<path class="st10" d="M373.5,70.6c-1.8,0-12.5,7.2-13.6,8.3c-1,1.1-6.8,9.9-6.8,9.9c2.2,6.7,5.1,10.5,5.1,10.5s0.9-8.7,4.9-12.2
				c4-3.5,16.6-4.1,20.9,1c4.3,5.1,4.7,11.2,4.7,11.2s3.5-3.9,5.7-10.6c0,0-5.7-9-6.7-10.1C386.9,77.6,375.5,70.6,373.5,70.6z"/>
			<path d="M390.1,91.3c0,5.5-4.4,8.6-16.7,8.6c-12.2,0-16.2-2.8-16.2-8.6c0-3.4,13.4-8.6,16.4-8.6
				C376.7,82.7,390.1,87.6,390.1,91.3z"/>
			<polygon class="st3" points="369.4,146.5 365.4,221 371.6,230.2 377.7,221.1 374,146.7 372.2,145.1 			"/>
			<path d="M403.2,236.6c1.3,0,1.6,9.3,0.2,9.3c-1.3,0-62.7,0.4-64.1,0.4c-0.5,0-0.5-9.1,0.6-9.1
				C341.8,237.2,403.2,236.6,403.2,236.6z"/>
			<path class="st11" d="M371,74.8c0-0.4,0.4,0.3,1.2,0.1c0.7-0.2,0.9-1.1,1.5-1.1c0.5,0,0.5,1,1.2,1.1c0.8,0.2,1.4-0.5,1.4-0.1
				c0,1.5,0,3,0,3h0c0,0,0,0.1,0,0.1c0,1.5-1.2,2.6-2.6,2.6c-1.5,0-2.6-1.2-2.6-2.6c0,0,0-0.1,0-0.1h0C371,77.9,371,76.2,371,74.8z"
				/>
			<path class="st8" d="M384.3,159.4c0-0.5,0.6,0.4,1.6,0.1c1-0.3,1.2-1.5,1.9-1.5c0.7,0,0.7,1.3,1.6,1.5c1.1,0.3,1.8-0.7,1.8-0.1
				c0,2,0,4,0,4h0c0,0,0,0.1,0,0.1c0,1.9-1.5,3.4-3.4,3.4c-1.9,0-3.4-1.5-3.4-3.4c0,0,0-0.1,0-0.1h0
				C384.3,163.3,384.3,161.1,384.3,159.4z"/>
			<path class="st12" d="M390.6,91.5c-11.2-4-21.4-4.1-33.9-0.2"/>
			<ellipse class="st12" cx="356" cy="93" rx="0.1" ry="0.2"/>
			<line class="st13" x1="398" y1="236.5" x2="398" y2="247.7"/>
			<line class="st13" x1="381.7" y1="236.5" x2="381.7" y2="247.7"/>
			<line class="st13" x1="359.8" y1="236.5" x2="359.8" y2="247.7"/>
			<polyline class="st14" points="365.1,237 375,237 375,246.3 364.7,246.3 			"/>
			<line class="st15" x1="375" y1="241.5" x2="369.8" y2="241.5"/>
			<path class="st16" d="M381.1,176.9c0,0,0,6.5,0,8.4c0,1.9,13.6,1.9,13.6,0c0-1.9,0-8.4,0-8.4h-4.4l-2.6,2.4l-2.3-2.4H381.1z"/>
			<polyline class="st16" points="394.7,176.9 395.8,176.9 395.8,172 379.7,172 379.7,176.9 381.1,176.9 			"/>
			<path class="st16" d="M348,176.9c0,0,0,6.5,0,8.4c0,1.9,13.6,1.9,13.6,0c0-1.9,0-8.4,0-8.4h-4.4l-2.6,2.4l-2.3-2.4H348z"/>
			<polyline class="st16" points="361.5,176.9 362.6,176.9 362.6,172 346.6,172 346.6,176.9 348,176.9 			"/>
			<path class="st4" d="M359.9,134.9v2.6l-13.9,6.3c0,0-3.6,0.3-4,0.3c-0.4,0-0.4-0.1-0.3-0.3c0.1-0.2,0.7-1.1,0.7-1.1l17.5-8.4
				V134.9z"/>
			<g>
				<path class="st8" d="M396.2,235.7c0-1.6,2-1.9,4.3-1.9c3.4,0,4.5,0.5,4.5,4c0,3.1,0,8.4,0,12.9c0,4.5-3.2,4.7-4.4,4.7
					c-1.2,0-4.4-0.2-4.4-4.7C396.2,245.2,396.2,237.7,396.2,235.7z"/>
				<path class="st20" d="M397.3,234.2c1.2-0.6,1.8,1,1.8,6.4c0,1.1,6.4,1,6.4-0.1c0-1.3,0.2-4.6-0.7-5.8
					C404,233.6,399.5,232.4,397.3,234.2z"/>
				<ellipse cx="402.7" cy="239.7" rx="0.6" ry="0.8"/>
			</g>
			<path d="M396.2,236.6c1.3,0,1.6,9.3,0.2,9.3c-1.3,0-7.5-0.1-8.9-0.1c-0.5,0-0.3-9.1,0.9-9.1C390.3,236.7,396.2,236.6,396.2,236.6
				z"/>
			<g>
				<path class="st8" d="M389.8,236.6c0-0.9,1.1-1,2.4-1c1.8,0,2.5,0.3,2.5,2.2c0,1.7,0,4.6,0,7c0,2.5-1.7,2.6-2.4,2.6
					c-0.7,0-2.4-0.1-2.4-2.6C389.8,241.8,389.8,237.7,389.8,236.6z"/>
				<path class="st20" d="M390.4,235.8c0.7-0.4,1,0.6,1,3.5c0,0.6,3.5,0.5,3.5-0.1c0-0.7,0.1-2.5-0.4-3.2
					C394,235.5,391.5,234.9,390.4,235.8z"/>
				<ellipse cx="393.3" cy="238.8" rx="0.3" ry="0.4"/>
			</g>
			<path d="M389.8,236.6c1.1,0,1,9.3,0.1,9.3c-1.3,0-7.5-0.1-8.9-0.1c-0.5,0-0.3-9.1,0.9-9.1C383.7,236.7,389.8,236.6,389.8,236.6z"
				/>
			<g>
				<path class="st10" d="M341.6,258c-1.1,0.9-7.8,0.9-9,0.1c-1.2-0.8-0.9-19.4,0.2-20.6c1.1-1.1,8.7-1,9.3,0.3
					C342.8,239.3,342.7,257.1,341.6,258z"/>
				<line class="st21" x1="334.5" y1="229.4" x2="334.5" y2="241.8"/>
				<path class="st22" d="M341,243.4c-0.3,0.2-7.1,0.4-7.6,0c-0.4-0.4-0.1-3.9,0.3-4.2c0.4-0.3,7.1-0.3,7.3,0
					C341.3,239.5,341.5,243.1,341,243.4z"/>
			</g>
			<path class="st6" d="M344.4,229.6c2.3,3.8,8.7,2.7,10.5,7.5h-3.4c0,0-2.5,2.9,0,9.2c1.4,3.7-10.1,3.3-11.5-1.7
				c-0.5-1.9-1.2-3.4-1.7-7.1c-0.2-1.6-1.8-2.1-2.7-3"/>
			<path class="st4" d="M343.7,172.6l-11.3,26.1c0,0,4.5,9.3,8.9,18.2c0.4,0.7-0.3,2.7,0.1,3.4c1.4,2.9,2.7,5.6,3.7,7.5
				c1.3,2.4-10.4,8.4-11.8,6.3c-0.4-0.6-1.9-3.3-3.8-6.8c-0.3-0.6-2.2-0.8-2.5-1.4c-5.2-9.7-11.1-24.8-11.1-28.5
				c0-5.7,20.6-50.9,20.6-50.9C339.6,144.2,343.7,172.6,343.7,172.6z"/>
			<path class="st10" d="M357.7,90.7c0,0-0.6-1.7-0.6-1.8c0-0.1,16.5-7.4,16.5-7.4l17,7.3c0,0-0.2,2.3-0.2,2.4
				c0,0.2-16.2-2.8-16.2-2.8L357.7,90.7z"/>
			<ellipse class="st11" cx="357.3" cy="91.3" rx="1" ry="1.7"/>
			<ellipse class="st11" cx="389.7" cy="91.3" rx="1" ry="1.7"/>
			<g>
				<defs>
					<path id="SVGID_1_" d="M321.8,180l8-18.7l6.7,4.5c0,0-6.4,15.4-6.5,16C329.8,182.4,321.8,180,321.8,180z"/>
				</defs>
				<clipPath id="SVGID_2_">
					<use xlink:href="#SVGID_1_"  style="overflow:visible;"/>
				</clipPath>
				<path class="st23" d="M322.8,164.6c0.3-0.7,0.5,0.9,2.1,1.2c1.5,0.2,2.6-1.2,3.5-0.8c0.9,0.4,0.1,2.1,1.1,3
					c1.3,1.1,2.8,0.2,2.4,1c-1.3,2.6-2.5,5.3-2.5,5.3l0,0c0,0.1,0,0.1-0.1,0.2c-1.2,2.5-4.3,3.6-6.8,2.4c-2.5-1.2-3.6-4.3-2.4-6.8
					c0-0.1,0.1-0.1,0.1-0.2l0,0C320.3,169.9,321.7,166.9,322.8,164.6z"/>
			</g>
			<g>
				<defs>
					<path id="SVGID_3_" d="M418.6,182c0,0-1.4-15.6-3-20.3c-0.7-2-6.9,2.5-6.9,2.5s1.7,16.6,1.7,17.2
						C410.3,182,418.6,182,418.6,182z"/>
				</defs>
				<clipPath id="SVGID_4_">
					<use xlink:href="#SVGID_3_"  style="overflow:visible;"/>
				</clipPath>
				<path class="st24" d="M422.1,167c-0.1-0.8-0.8,0.8-2.3,0.5c-1.5-0.2-2.1-1.9-3.2-1.7c-1,0.2-0.7,2-2,2.6
					c-1.5,0.6-2.8-0.6-2.6,0.3c0.5,2.9,0.9,5.8,0.9,5.8l0,0c0,0.1,0,0.1,0,0.2c0.4,2.8,3.1,4.7,5.8,4.2c2.8-0.4,4.7-3.1,4.2-5.8
					c0-0.1,0-0.1-0.1-0.2l0,0C423,172.8,422.5,169.6,422.1,167z"/>
			</g>
			<path class="st25" d="M385.5,160.7c0-0.3,0.4,0.3,1.1,0.1c0.6-0.2,0.8-1,1.3-1c0.4,0,0.4,0.8,1,1c0.7,0.2,1.2-0.5,1.2-0.1
				c0,1.3,0,2.6,0,2.6h0c0,0,0,0.1,0,0.1c0,1.3-1,2.3-2.3,2.3c-1.3,0-2.3-1-2.3-2.3c0,0,0-0.1,0-0.1h0
				C385.5,163.4,385.5,161.9,385.5,160.7z"/>
			<g>
				<g>
					<path class="st10" d="M355.3,146.8c-0.7,1.2-7.1,3.4-8.5,3c-1.4-0.4-4.5-10.1-3.9-11.5c0.6-1.4,7.9-3.8,8.9-2.7
						C353,136.7,356,145.6,355.3,146.8z"/>
					<line class="st21" x1="344.2" y1="136.5" x2="346" y2="141.8"/>
				</g>
				<line class="st26" x1="347" y1="146" x2="353" y2="144"/>
				<line class="st26" x1="347.6" y1="143.9" x2="351.2" y2="142.7"/>
				<line class="st26" x1="348.7" y1="147.2" x2="352.4" y2="146"/>
				<circle class="st27" cx="351.1" cy="137.1" r="0.4"/>
				<circle class="st22" cx="351.4" cy="138.2" r="0.4"/>
			</g>
			<path class="st7" d="M367.6,120.6c-0.2,0.1,1.4,0.9,2,1.4c1,0.3,6.8,0.2,7.9-0.2c2.4-1.6,1.8-1.5,1.8-1.5
				S372.1,120.9,367.6,120.6z"/>
		</g>
	</g>
	<g>
		<ellipse class="st0" cx="611.3" cy="411.2" rx="63" ry="8.8"/>
		<g>
			<path class="st28" d="M629.5,180.9l23.5,20.2c0,0-3,4.6-9.6,12c-0.4,0.4,0.4,1.9,0.1,2.3c-1.1,1.3-2.1,2.4-2.8,3.2
				c-1.6,1.8,4.6,8.8,6.2,7.3c0.4-0.3,1.5-1.1,2.9-2.2c0.3-0.2,2,0.1,2.3-0.1c8.5-6.5,19.2-19.8,19.4-23.8
				c0.3-6.5-33.6-36.3-33.6-36.3c-2.2-2.5-5-3.9-10.6,0.3c-4.2,3.2-5.2,13.1-4.1,15.6C624.3,181.9,629.5,180.9,629.5,180.9z"/>
			<path d="M588.1,397.2c0,0-1.4,3.5-0.9,8.7c0.3,3.6,0.1,5.2-0.8,5.2c-4.2,0.3-16.4,1-19,1c-3.2,0-6.3-0.2-6.8-1.6
				c-0.8-2.1,0.5-6,6.9-8.2c3.2-1.1,4.2-5.6,4.2-4.8L588.1,397.2z"/>
			<path class="st28" d="M593.1,180.9l-24.4,17.5c0,0,3.9,7.3,10.5,14.7c0.4,0.4-0.4,1.9-0.1,2.3c1.1,1.3,2.1,2.4,2.8,3.2
				c1.6,1.8-4.6,8.8-6.2,7.3c-0.4-0.3-1.5-1.1-2.9-2.2c-0.3-0.2-2,0.1-2.3-0.1c-8.5-6.5-20.1-22.6-20.3-26.5
				c-0.3-6.5,34.5-33.5,34.5-33.5c2.2-2.5,5-3.9,10.6,0.3c4.2,3.2,5.2,13.1,4.1,15.6C598.3,181.9,593.1,180.9,593.1,180.9z"/>
			<path d="M625.8,119.4c0,0,8,1.5,8,12.7c0,8.2-1.7,12.5-1.1,15.7c0.1,0.6,0,1.4-1,0.6c-3-2.3-8.9-8.4-8.6-19.6"/>
			<path d="M637.1,397.5c0,0-0.1,2,0,3.1c0.1,0.7-0.6,5.4-1,8.3c-0.2,1.3,0.2,2.2,1,2.3c3.9,0.3,15.2,1,17.7,1c3,0,5-0.2,5.6-1.6
				c0.8-2.1,0.3-6-5.6-8.2c-3-1.1-3.9-5.6-3.9-4.8H637.1z"/>
			<polygon class="st7" points="620.9,164.4 615,160.7 609.5,160.8 598.4,165.4 609.2,212.2 			"/>
			<path class="st4" d="M626,340c2.1,30.7,11.1,57.3,11.2,58.3c0.3,1.7,14.2,1.7,14.2-0.1c0.4-16.6-6.8-44-8.2-78
				c-1-25.4-4.5-66.2-7.1-79.3c-1.6-8.3-48.6-9.8-51.4,0c-3.8,13.2-2.5,44.1-5,83.7c-0.6,10.5-9.4,66.6-8.2,73c0,0,1.7,1.3,7.8,2.3
				c6,0.9,8.1-0.3,8.1-0.3c6.3-27.1,8.1-40.7,10.8-61.6c4-31,10.1-51.1,12.6-64.1C613.2,283.3,623.9,309.8,626,340z"/>
			<g>
				<path class="st5" d="M596.8,133.9c0.3,2.6,2.3,5.8,4.2,4.9c1.5-0.8,2.8-2.1,2.5-4.7c-0.3-2.6-1.7-3.8-3.7-4.2
					C597.6,129.4,596.5,131.4,596.8,133.9z"/>
				<path class="st6" d="M597.4,130.7c0.4-0.5,2.6-0.8,3.2,1.1l-0.2-1.8c0,0-0.7-0.3-1.5-0.2C597.8,130,597.4,130.7,597.4,130.7z"/>
				<path class="st5" d="M629.9,133.9c-0.3,2.6-2.3,5.8-4.2,4.9c-1.5-0.8-2.8-2.1-2.5-4.7c0.3-2.6,1.7-3.8,3.7-4.2
					C629.1,129.4,630.2,131.4,629.9,133.9z"/>
				<path class="st6" d="M629.3,130.7c-0.4-0.5-2.6-0.8-3.2,1.1l0.2-1.8c0,0,0.7-0.3,1.5-0.2C628.9,130,629.3,130.7,629.3,130.7z"/>
				<path class="st6" d="M621.8,144c-0.8,2.8,0.3,11.4,0.5,11.9c0,0-3,5.1-10.1,5.1c-7.1,0-7.1-3.6-7.1-3.6s1.9-8.5,0.9-13.1
					L621.8,144z"/>
				<path class="st5" d="M621.5,145.7c0,0-0.1,1,0,2.7c0,0-4.6,5.4-7.8,5.4c-3.3,0-7.4-5-7.4-5s0.1-3.4-0.1-4.8L621.5,145.7z"/>
				<path class="st6" d="M600.4,126.8c0,7.1,5.8,12.9,12.9,12.9c7.1,0,12.9-5.8,12.9-12.9c0-9.6-5.8-14.2-12.9-14.2
					C606.2,112.6,600.4,117.4,600.4,126.8z"/>
				<path class="st6" d="M600.4,126.8c0,6.9,0,12.7,2.6,16.4c1.6,2.3,5.7,6.1,8.7,7.1c0.7,0.2,2.9,0.1,3.6-0.1c3-1,6.7-4.8,8.3-7
					c2.6-3.8,2.6-9.5,2.6-16.4"/>
				<ellipse cx="607.6" cy="132.2" rx="1.6" ry="2.1"/>
				<ellipse cx="618.9" cy="132.2" rx="1.6" ry="2.1"/>
				<g>
					<path class="st10" d="M609.1,127.7c0,0-0.1,0-0.2,0c-0.1,0-0.3,0-0.6,0.1c-0.2,0-0.5,0.1-0.8,0.1c-0.3,0-0.6,0.1-0.9,0.1
						c-0.3,0.1-0.6,0.1-0.9,0.1c-0.3,0.1-0.6,0.1-0.8,0.1c-0.5,0.1-0.8,0.1-0.8,0.1l-0.1,0c-0.3,0-0.5-0.2-0.6-0.5
						c0-0.2,0.1-0.4,0.3-0.5c0,0,0.3-0.2,0.8-0.4c0.5-0.2,1.2-0.4,1.9-0.5c0.3,0,0.7,0,1-0.1c0.3,0,0.6,0,0.9,0
						c0.3,0,0.5,0.1,0.6,0.1c0.2,0,0.2,0.1,0.2,0.1l0,0c0.3,0.1,0.4,0.4,0.3,0.7C609.5,127.5,609.3,127.6,609.1,127.7z"/>
				</g>
				<g>
					<path class="st10" d="M617.7,126.6c0,0,0.1,0,0.2-0.1c0.2,0,0.4-0.1,0.6-0.1c0.3,0,0.6,0,0.9,0c0.3,0,0.7,0,1,0.1
						c0.7,0.1,1.4,0.3,1.9,0.5c0.5,0.2,0.8,0.4,0.8,0.4c0.3,0.1,0.3,0.5,0.2,0.7c-0.1,0.2-0.3,0.3-0.5,0.3l-0.1,0c0,0-0.3,0-0.8-0.1
						c-0.2-0.1-0.5-0.1-0.8-0.1c-0.3-0.1-0.6-0.1-0.9-0.1c-0.3-0.1-0.6-0.1-0.9-0.1c-0.3,0-0.6-0.1-0.8-0.1c-0.2,0-0.4-0.1-0.6-0.1
						c-0.1,0-0.2,0-0.2,0c-0.3,0-0.5-0.3-0.5-0.6C617.3,126.9,617.5,126.7,617.7,126.6L617.7,126.6z"/>
				</g>
				<path class="st5" d="M615.6,138.3c-0.8-0.4-3.8-0.4-4.5,0c-0.7,0.4,1.5,1,2.3,1C614.1,139.3,616.3,138.6,615.6,138.3z"/>
				<path class="st5" d="M618.1,142.4c-2.8,0.7-7.1,0.6-9.7,0.3c-0.3,0-0.4,0,0,0.2c0.7,0.3,2.9,2.4,4.8,2.4c1.9,0,4.4-2.4,5-2.8
					C618.4,142.4,618.3,142.3,618.1,142.4z"/>
			</g>
			<path class="st28" d="M590.2,195.8c1.7,8.9,2.1,24.4-6.5,45.1c-0.3,0.8,54,0.2,53.9-0.1c-5.1-12.5-7.4-30.4-6-44.1
				c2.4-7.5,6.1-16.8,7.9-17.7l-1-15.5c-3.2-3.4-12.7-6-15.2-8.9c-2.9,2-3.7,5.5-8.3,6.1c-1,2.5-2.7,10.1-3.6,14.2
				c-1.3-3.7-1-11.6-2-14.1c-5.6,0.3-7-6.7-7-6.7c-6.6,4.6-12.4,6.4-18.6,11C583.9,165.1,586.6,186.5,590.2,195.8z"/>
			<path class="st4" d="M621.8,152.5h0.6l3.6,3.5l-3.8,12.7l-7.2-8C615,160.7,622.1,156.7,621.8,152.5z"/>
			<path class="st4" d="M606,151.5h-0.4l-4.2,3v13.2l7-6l1.1-0.9C609.5,160.8,604.9,158.5,606,151.5z"/>
			<polygon class="st8" points="622.3,168.7 615.5,161.2 615,160.7 615,163.4 622.6,169.6 625.4,158.1 			"/>
			<polygon class="st8" points="601.4,167.7 609.5,160.8 608.9,163.2 600.8,168.6 601.4,155.1 			"/>
			<path d="M613.3,118.1c1.8,0,3.4-0.8,5.3-1.3c3.5-0.9,5.1,2.9,5.1,2.9c2,3.3,1.6,13.5,1.6,14.1c0,0.6,0.8,0.7,0.8,0
				c0,0,0.8-6.8,0.3-10.9c-0.5-4.1-2.8-10.5-8.4-10.9c0,0-3.5-3.2-8.8-2.2c-6.5,1.2-8.6,6.6-9.2,11.5c-0.6,4.5,0.3,11.1,0.3,12.4
				c0,0.8,0.9,0.7,0.9,0c0-1.1-0.6-12,1.7-14.8C607,114,611.6,118.1,613.3,118.1z"/>
			<path d="M636.6,236c1.1,0,1.4,8.1,0.2,8.1c-1.2,0-52.1,0.4-53.3,0.4c-0.5,0-0.5-7.9,0.5-7.9C585.6,236.5,636.6,236,636.6,236z"/>
			<line class="st13" x1="634.5" y1="235.9" x2="634.5" y2="245.7"/>
			<line class="st13" x1="601.3" y1="235.9" x2="601.3" y2="245.7"/>
			<polyline class="st19" points="605.9,244.4 614.5,244.4 614.5,236.3 605.9,236.3 605.9,244.4 			"/>
			<line class="st29" x1="614.5" y1="240.2" x2="610" y2="240.2"/>
			<path class="st4" d="M601.4,155.1v2.2l-12.1,5.4c0,0-3.2,0.3-3.5,0.3c-0.3,0-0.4-0.1-0.3-0.3c0.1-0.1,0.6-0.9,0.6-0.9l15.2-7.3
				V155.1z"/>
			<path d="M633,236c1.1,0,1.4,8.1,0.2,8.1c-1.2,0-6.5-0.1-7.7-0.1c-0.5,0-0.2-7.9,0.8-7.9C627.9,236.1,633,236,633,236z"/>
			<path d="M627.4,236c0.9,0,0.9,8.1,0.1,8.1c-1.2,0-6.5-0.1-7.7-0.1c-0.5,0-0.2-7.9,0.8-7.9C622.1,236.1,627.4,236,627.4,236z"/>
			<g>
				<g>
					<path class="st10" d="M597.4,165.5c-0.6,1.1-6.2,2.9-7.4,2.6c-1.2-0.3-3.9-8.8-3.4-10c0.5-1.2,6.8-3.3,7.8-2.4
						C595.4,156.7,598,164.5,597.4,165.5z"/>
					<line class="st21" x1="587.7" y1="156.5" x2="589.3" y2="161.1"/>
				</g>
				<line class="st26" x1="590.2" y1="164.8" x2="595.4" y2="163"/>
				<line class="st26" x1="590.7" y1="163" x2="593.9" y2="161.9"/>
				<line class="st26" x1="591.7" y1="165.9" x2="594.8" y2="164.8"/>
				<circle class="st27" cx="593.7" cy="157.1" r="0.4"/>
				<circle class="st22" cx="594" cy="158" r="0.4"/>
			</g>
			<path class="st7" d="M608.1,142.7c-0.1,0.1,1.2,0.8,1.7,1.2c0.8,0.2,5.9,0.2,6.9-0.2c2.1-1.4,1.5-1.3,1.5-1.3
				S612,143,608.1,142.7z"/>
			<path class="st10" d="M613.4,98.5c-1.5,0-10.4,6-11.2,6.9c-0.9,0.9-5.6,8.2-5.6,8.2c1.8,5.6,4.2,8.7,4.2,8.7s0.8-7.2,4.1-10.1
				c3.3-2.9,13.7-3.4,17.3,0.8c3.6,4.2,3.9,9.3,3.9,9.3s2.9-3.2,4.7-8.8c0,0-4.7-7.4-5.6-8.4C624.4,104.2,615,98.5,613.4,98.5z"/>
			<path d="M627.1,115.6c0,4.5-3.7,7.1-13.8,7.1c-10.1,0-13.4-2.3-13.4-7.1c0-2.8,11.1-7.1,13.6-7.1
				C616.1,108.5,627.1,112.5,627.1,115.6z"/>
			<path class="st11" d="M611.3,102c0-0.3,0.4,0.3,1,0.1c0.6-0.2,0.8-0.9,1.2-0.9c0.4,0,0.4,0.8,1,0.9c0.7,0.2,1.1-0.4,1.1-0.1
				c0,1.2,0,2.5,0,2.5h0c0,0,0,0.1,0,0.1c0,1.2-1,2.2-2.2,2.2c-1.2,0-2.2-1-2.2-2.2c0,0,0-0.1,0-0.1h0
				C611.3,104.5,611.3,103.1,611.3,102z"/>
			<ellipse class="st11" cx="600" cy="115.6" rx="0.8" ry="1.4"/>
			<ellipse class="st11" cx="626.8" cy="115.6" rx="0.8" ry="1.4"/>
			<path class="st6" d="M581.7,219.3c0,0,1.4,0.8,2.2,1c0.8,0.2,5.3-0.3,6.6,1.7c1.3,2,0.2,10.1-3.8,10.9c-5,1-7.8-5.7-10.4-7.2
				C576.3,225.7,577.2,221.7,581.7,219.3z"/>
			<path class="st6" d="M640.9,219.3c0,0-1.4,0.8-2.2,1c-0.8,0.2-5.3-0.3-6.6,1.7c-1.3,2-0.2,10.1,3.8,10.9c5,1,7.8-5.7,10.4-7.2
				C646.2,225.7,645.3,221.7,640.9,219.3z"/>
			<path class="st4" d="M611.5,174.9c0,0-2.4,8.1-1.7,17c0.8,8.9,0.8,37.7,0.6,44.1l1.1-33.2V174.9z"/>
			<path class="st8" d="M619.6,176.2c0-0.5,0.5,0.4,1.5,0.1c0.9-0.3,1.1-1.4,1.8-1.4c0.6,0,0.6,1.2,1.4,1.4c1,0.3,1.6-0.6,1.6-0.1
				c0,1.8,0,3.6,0,3.6h0c0,0,0,0.1,0,0.1c0,1.7-1.4,3.2-3.2,3.2c-1.7,0-3.2-1.4-3.2-3.2c0,0,0-0.1,0-0.1h0
				C619.6,179.8,619.6,177.8,619.6,176.2z"/>
			<polygon class="st4" points="627.6,189.2 628.5,189.2 628.5,185.4 616.1,185.4 616.1,189.2 617.1,189.2 620.4,189.2 622.2,191.1 
				624.2,189.3 			"/>
			<g>
				<defs>
					<path id="SVGID_5_" d="M658.1,182.5c0,0-10-10.4-13.9-12.8c-1.7-1-3.5,5.8-3.5,5.8s10.8,10.9,11.1,11.4
						C652.1,187.3,658.1,182.5,658.1,182.5z"/>
				</defs>
				<clipPath id="SVGID_6_">
					<use xlink:href="#SVGID_5_"  style="overflow:visible;"/>
				</clipPath>
				<path class="st30" d="M651.9,169.7c-0.5-0.5-0.1,1-1.4,1.7c-1.2,0.7-2.6-0.2-3.3,0.6c-0.6,0.7,0.7,1.9,0.1,3
					c-0.7,1.3-2.3,1.2-1.7,1.7c2,1.8,4,3.6,4,3.6l0,0c0,0,0.1,0.1,0.1,0.1c1.9,1.7,4.9,1.6,6.6-0.3c1.7-1.9,1.6-4.9-0.3-6.6
					c0,0-0.1-0.1-0.1-0.1l0,0C655.9,173.3,653.7,171.3,651.9,169.7z"/>
			</g>
			<g>
				<defs>
					<path id="SVGID_7_" d="M564.1,180.6c0,0,10.6-9.8,14.6-12c1.7-0.9,3.2,6,3.2,6s-11.4,10.3-11.8,10.7
						C569.8,185.8,564.1,180.6,564.1,180.6z"/>
				</defs>
				<clipPath id="SVGID_8_">
					<use xlink:href="#SVGID_7_"  style="overflow:visible;"/>
				</clipPath>
				<path class="st31" d="M571,168.2c0.5-0.4,0,1,1.3,1.8c1.1,0.8,2.6,0,3.2,0.8c0.6,0.7-0.8,1.8-0.2,3c0.6,1.4,2.2,1.3,1.6,1.8
					c-2.1,1.7-4.2,3.4-4.2,3.4l0,0c0,0-0.1,0.1-0.1,0.1c-2,1.6-5,1.3-6.6-0.7c-1.6-2-1.3-5,0.7-6.6c0,0,0.1-0.1,0.2-0.1l0,0
					C566.8,171.6,569.1,169.7,571,168.2z"/>
			</g>
			<circle class="st19" cx="622.3" cy="189" r="0.6"/>
			<polygon class="st4" points="606.2,189.2 607,189.2 607,185.4 594.6,185.4 594.6,189.2 595.7,189.2 599,189.2 600.8,191.1 
				602.8,189.3 			"/>
			<circle class="st19" cx="600.8" cy="189" r="0.6"/>
			<path class="st19" d="M607,183.5c0-0.4-0.3-0.7-0.7-0.7h-10.8c-0.4,0-0.7,0.3-0.7,0.7l0,0c0,0.4,0.3,0.7,0.7,0.7h10.8
				C606.7,184.2,607,183.9,607,183.5L607,183.5z"/>
			<line class="st13" x1="620.3" y1="235.9" x2="620.3" y2="245.7"/>
			<g>
				<g>
					<path class="st8" d="M622.2,255.4c0-3.5,2.8-6.3,6.3-6.3c3.5,0,6.3,2.8,6.3,6.3c0,3.5-2.8,6.3-6.3,6.3
						C625,261.7,622.2,258.9,622.2,255.4z M623.8,255.4c0,2.6,2.1,4.7,4.7,4.7c2.6,0,4.7-2.1,4.7-4.7c0-2.6-2.1-4.7-4.7-4.7
						C625.9,250.7,623.8,252.8,623.8,255.4z"/>
				</g>
				<path class="st8" d="M631.4,249.9c-0.9-0.6,1.3-3.4,0.1-4.3c-1.2-1-5.6-0.9-6.7,0.2c-1.2,1.2,1.3,3.7,0.4,4.4"/>
				<line class="st18" x1="628.1" y1="244.1" x2="628.1" y2="245.8"/>
			</g>
		</g>
	</g>
	<g>
		<ellipse class="st0" cx="130.2" cy="411.2" rx="51.1" ry="8.8"/>
		<g>
			<g>
				<path class="st9" d="M134.6,119.2c-7.6,2.1-13.2,7.1-14.6,14c-0.7,3.6,0,12.2,3.8,14.3c0,0,9.1,0,13.4,2.6
					C137.2,150.2,140,117.7,134.6,119.2z"/>
				<path class="st9" d="M144.3,119.2c7.6,2.1,13.2,7.1,14.6,14c0.7,3.6,0,12.2-3.8,14.3c0,0-9.1,0-13.4,2.6
					C141.7,150.2,139,117.7,144.3,119.2z"/>
				<path d="M121.5,397.7c0,0,0.1,2,0,3.1c-0.1,0.7,0.7,5.4,1.2,8.2c0.2,1.3-0.2,2.2-1.2,2.3c-4.7,0.3-18.2,1-21.1,1
					c-3.6,0-6.9-0.2-7.6-1.6c-0.9-2.1,0.6-5.9,7.7-8.1c3.6-1.1,4.6-5.5,4.6-4.8H121.5z"/>
				<path d="M147.1,398.3c0.3,4-4.6,6.1-4.5,9.8c0,0.7-0.1,2.2,0.3,2.7c1.2,1.7,4.1,1.9,6.6,1.9c3.5,0,7.2-0.2,9.9-1.3
					c4.6-1.8,2-9.1,2-13.2C161.4,396.6,147.1,398.3,147.1,398.3z"/>
				<polygon class="st28" points="147,167 141.2,163.3 135.7,163.4 124.7,167.9 135.4,214.3 				"/>
				<path class="st4" d="M137.7,270.2c0.2,3.6,2.4,31,7.4,63.1c5,32.6,2.1,65.8,2.1,65.8s2.1,0.9,6.5,1.2c4.1,0.3,7.7-0.9,7.7-0.9
					s5.1-51.1,3.1-69.8c-3.1-29.1,4.7-74,0.7-88c0,0-15-5.3-30.5-5.2c-8.2,0.1-15.5,4.2-23.1,5.2c-0.7,9.6-5.2,49.6-4.1,85.8
					c0.9,32.3-2.1,61-2.5,70.3c0,0,2.1,1.6,8.2,2.2c6,0.6,8.3-1,8.3-1s8.7-52,8.6-71.4c-0.1-20.2,5.8-57.1,5.8-57.1L137.7,270.2z"/>
				<g>
					<path class="st5" d="M123.2,135c0.3,2.5,2.3,5.8,4.2,4.8c1.5-0.8,2.8-2.1,2.5-4.6c-0.3-2.5-1.7-3.8-3.7-4.2
						C124,130.5,122.9,132.4,123.2,135z"/>
					<path class="st6" d="M123.8,131.8c0.4-0.5,2.6-0.8,3.2,1.1l-0.2-1.8c0,0-0.7-0.3-1.5-0.2C124.2,131.1,123.8,131.8,123.8,131.8z
						"/>
					<path class="st5" d="M155.9,135c-0.3,2.5-2.3,5.8-4.2,4.8c-1.5-0.8-2.8-2.1-2.5-4.6c0.3-2.5,1.7-3.8,3.7-4.2
						C155.1,130.5,156.2,132.4,155.9,135z"/>
					<path class="st6" d="M155.3,131.8c-0.4-0.5-2.6-0.8-3.2,1.1l0.2-1.8c0,0,0.7-0.3,1.5-0.2C154.9,131.1,155.3,131.8,155.3,131.8z
						"/>
					<path class="st6" d="M147.9,146.8c-0.8,2.8,0.3,11.3,0.5,11.8c0,0-3,5-10,5c-7,0-7-3.6-7-3.6s1.9-8.4,0.9-12.9L147.9,146.8z"/>
					<path class="st5" d="M147.7,148.4c0,0-0.1,1,0,2.7c0,0-4.5,5.4-7.8,5.4c-3.2,0-7.4-5-7.4-5s0.1-3.3-0.1-4.7L147.7,148.4z"/>
					<path class="st6" d="M126.8,129.7c0,7.1,5.7,12.8,12.8,12.8c7.1,0,12.8-5.7,12.8-12.8c0-9.5-5.7-14-12.8-14
						C132.5,115.7,126.8,120.4,126.8,129.7z"/>
					<path class="st6" d="M126.8,129.7c0,6.8,0,12.5,2.6,16.3c1.6,2.2,5.6,6.1,8.6,7.1c0.7,0.2,2.8,0.1,3.6-0.1
						c2.9-1,6.7-4.8,8.2-6.9c2.6-3.7,2.6-9.4,2.6-16.3"/>
					<path class="st7" d="M145.3,144.8c0,0.4-3.2,3.6-5.7,3.6c-2.5,0-5.7-3.2-5.7-3.6C133.8,144.5,145.3,144.5,145.3,144.8z"/>
					<ellipse cx="133.4" cy="134.3" rx="1.6" ry="2.1"/>
					<ellipse cx="145.5" cy="134.3" rx="1.6" ry="2.1"/>
					<g>
						<path d="M135.4,129.6c0,0-0.3,0-0.8,0c-0.5,0-1.1,0.1-1.8,0.2c-0.3,0.1-0.6,0.1-0.9,0.1c-0.3,0.1-0.6,0.1-0.8,0.2
							c-0.5,0.1-0.8,0.2-0.8,0.2l0,0c-0.2,0-0.3-0.1-0.3-0.2c0-0.1,0-0.3,0.2-0.3c0,0,0.3-0.1,0.8-0.3c0.5-0.2,1.2-0.3,1.8-0.4
							c0.7-0.1,1.4-0.1,1.9-0.1c0.5,0,0.8,0.1,0.8,0.1c0.2,0,0.3,0.2,0.2,0.3C135.7,129.5,135.5,129.6,135.4,129.6z"/>
					</g>
					<g>
						<path d="M143.9,129c0,0,0.3-0.1,0.8-0.1c0.5,0,1.2,0,1.9,0.1c0.7,0.1,1.3,0.2,1.8,0.4c0.5,0.2,0.8,0.3,0.8,0.3
							c0.1,0.1,0.2,0.2,0.1,0.4c-0.1,0.1-0.2,0.2-0.3,0.2l0,0c0,0-0.3-0.1-0.8-0.2c-0.2-0.1-0.5-0.1-0.8-0.2
							c-0.3-0.1-0.6-0.1-0.9-0.1c-0.6-0.1-1.3-0.1-1.8-0.2c-0.5,0-0.8,0-0.8,0c-0.2,0-0.3-0.1-0.3-0.3
							C143.6,129.2,143.7,129.1,143.9,129z"/>
					</g>
					<path class="st5" d="M141.8,141.1c-0.8-0.4-3.8-0.4-4.5,0c-0.7,0.4,1.5,1,2.2,1C140.3,142.1,142.5,141.4,141.8,141.1z"/>
				</g>
				<path class="st28" d="M113.7,190.2c-1.1,8.3-0.6,13.1-1,29.3c-0.2,6.5-0.8,18.8-1.1,22c0,0.5,53.6,0,53.6,0s-3.6-10.7-3.7-21.5
					c-0.1-17.8,3.1-28.7,3-30.1L169,167c-3.2-3.4-17.1-6.9-19.6-9.8c-3.9,2.6-11.1,34-14,52.2c-7.7-20.7-6.6-52.7-6.6-52.7
					c-6.5,4.5-15.1,6.4-21.3,10.9L113.7,190.2z"/>
				<path class="st4" d="M147.9,155.2h0.6l3.6,3.4l-3.4,11.6l-7.4-7C141.2,163.3,148.2,159.3,147.9,155.2z"/>
				<path class="st4" d="M132.3,154.2h-0.4l-4.2,2.9v13.1l7-6l1.1-0.9C135.7,163.4,131.2,161.1,132.3,154.2z"/>
				<path class="st9" d="M139.6,121.1c1.8,0,3.3-0.8,5.3-1.2c3.4-0.8,5.1,2.8,5.1,2.8c2,3.2,1.5,13.3,1.6,13.9c0,0.6,0.8,0.7,0.8,0
					c0,0,0.8-6.7,0.3-10.8c-0.5-4.1-2.7-10.4-8.3-10.8c0,0-3.5-3.2-8.7-2.2c-6.4,1.2-8.5,6.5-9.1,11.4c-0.6,4.4,0.3,10.9,0.3,12.3
					c0,0.8,0.9,0.7,0.9,0c0-1.1-0.6-11.9,1.7-14.7C133.3,117.1,137.8,121.1,139.6,121.1z"/>
				<path class="st10" d="M139.5,102.4c-12.4,0-18.9,16.5-18.9,16.5c1.9,5.8,5.8,8.2,5.8,8.2s0.8-7.5,4.2-10.5
					c3.5-3,14.3-3.5,18,0.8c3.7,4.4,4,9.7,4,9.7s3.9-2.4,5.8-8.2C158.4,118.9,151.8,102.4,139.5,102.4z"/>
				<path d="M154.8,119.4c0,4.7-4.9,8.2-15.4,8.2c-10.5,0-14.5-3.3-14.5-8.2c0-2.9,7.7-6.4,15.3-6.5
					C147.5,112.8,154.8,116.2,154.8,119.4z"/>
				<circle class="st11" cx="129.2" cy="218.5" r="1.5"/>
				<circle class="st11" cx="139.5" cy="108.8" r="1.8"/>
				<polygon class="st11" points="136,109.5 142.7,109.5 144.3,108 134.6,108 				"/>
				<path class="st2" d="M154.6,120.9c-4.5-2.8-10.3-3.7-15.5-3.7c-7.7,0-14,4-14,4"/>
				<path class="st6" d="M113.3,209.4c7.2-0.2,21.8-4.1,33.7-4.1c0.8,0,11,2.7,11,3.9c0.1,3.6-9.3,8.2-10.1,6.8
					c-6.5,0.2-45.7,13.3-48.5,8.7c-3.7-6.2,4.6-50,8.1-57c2.7-1.9,6-3.2,10.3,2.1c3.2,4,1.8,13.6,0.2,15.7
					C116.4,187.5,113.3,209.4,113.3,209.4z"/>
				<path class="st6" d="M164.7,209.4c-7.2-0.2-18.7-0.5-30.6-0.5c-3.1,0.1-1.9,11.4-0.7,9.6c6.5,0.2,42.3,9.5,44.4,4.5
					c1.4-3.4-4.4-48.3-7.9-55.3c-2.7-1.9-6-3.2-10.3,2.1c-3.2,4-1,13.2-0.2,15.7C160.8,189.5,164.7,209.4,164.7,209.4z"/>
				<path class="st28" d="M107.6,167.6c-0.6,1.1-2.9,7.6-4.2,14.9c-0.1,0.5-1.1,1.4-1.2,1.9c-0.8,2.7-1.3,4.9-1.5,5.9
					c-0.6,3.5,16.8,0.8,17-0.5c0.2-1.2,4.3-12.8,4.3-12.8s-1.8-9.2-1.4-9.8c0.4-0.6-4.2-2.2-4.2-2.2S108.6,165.9,107.6,167.6z"/>
				<path class="st28" d="M169.9,167.6c1,1.2,3,9,4.3,16.2c0.1,0.5,1.2,1.1,1.4,1.6c0.6,2.2,1.1,4.1,1.3,5c0.6,3.5-16.8,0.8-17-0.5
					c-0.2-1.2-4.3-12.8-4.3-12.8s1.8-9.2,1.4-9.8c-0.4-0.6,4.2-2.2,4.2-2.2S168.6,166.1,169.9,167.6z"/>
				<polygon class="st4" points="124.7,159.2 124.7,161.7 111.7,166.8 109,166.7 109.6,165.5 124.1,158.8 				"/>
				
					<ellipse transform="matrix(0.9002 -0.4356 0.4356 0.9002 -60.873 65.2234)" class="st19" cx="111.8" cy="165.4" rx="0.7" ry="0.4"/>
				<polygon class="st4" points="153.4,159.6 153.4,162.1 166.4,167.2 169.1,167.1 168.4,166 154,159.2 				"/>
				
					<ellipse transform="matrix(-0.9 -0.4358 0.4358 -0.9 243.6139 387.4951)" class="st19" cx="166.2" cy="165.8" rx="0.7" ry="0.4"/>
				<path class="st7" d="M135.7,163.4l2.2,9.2l3.3-9.3C141.2,163.3,136.5,163.5,135.7,163.4z"/>
			</g>
			<g>
				<g>
					<path class="st8" d="M104.8,260.6c0-3.4,2.8-6.1,6.1-6.1c3.4,0,6.1,2.8,6.1,6.1c0,3.4-2.8,6.1-6.1,6.1
						C107.5,266.8,104.8,264,104.8,260.6z M106.3,260.6c0,2.5,2.1,4.6,4.6,4.6c2.5,0,4.6-2.1,4.6-4.6c0-2.5-2.1-4.6-4.6-4.6
						C108.4,256,106.3,258.1,106.3,260.6z"/>
				</g>
				<path class="st8" d="M113.8,255.3c-0.9-0.6,1.3-3.3,0.1-4.2c-1.2-1-5.5-0.9-6.6,0.2c-1.2,1.2,1.3,3.6,0.4,4.3"/>
				<line class="st18" x1="110.6" y1="249.5" x2="110.6" y2="251.1"/>
			</g>
			<path class="st19" d="M146.8,182.2c0-0.7,0.8,0.6,2.1,0.1c1.3-0.4,1.6-1.9,2.5-2c0.9,0,0.9,1.7,2.1,2c1.4,0.4,2.3-0.9,2.3-0.1
				c0,2.6,0,5.2,0,5.2h0c0,0.1,0,0.1,0,0.2c0,2.5-2,4.5-4.5,4.5c-2.5,0-4.5-2-4.5-4.5c0-0.1,0-0.1,0-0.2h0
				C146.8,187.4,146.8,184.5,146.8,182.2z"/>
			<line class="st32" x1="121.5" y1="182.9" x2="131.5" y2="182.9"/>
			<path d="M165.8,240.9c1.1,0,1.4,8.2,0.2,8.2c-1.2,0-54.2,0.4-55.4,0.4c-0.5,0-0.5-8,0.5-8c0.7,0,10.7-0.1,21.9-0.2
				C148.2,241.1,165.8,240.9,165.8,240.9z"/>
			<line class="st13" x1="148" y1="240.9" x2="148" y2="250.8"/>
			<line class="st13" x1="128.7" y1="240.9" x2="128.7" y2="250.8"/>
			<polyline class="st8" points="133.4,240.9 142.1,240.9 142.1,249.9 133,249.9 133,240.8 			"/>
			<line class="st29" x1="142.1" y1="245.2" x2="137.6" y2="245.2"/>
			<g>
				<g>
					<path class="st10" d="M167.7,250.4c-1,0.8-7.2,0.7-8.3-0.1c-1.1-0.7-0.7-10.1,0.3-11.2c1-1,8-0.8,8.6,0.4
						C168.8,240.9,168.6,249.6,167.7,250.4z"/>
					<line class="st21" x1="161.2" y1="238" x2="161.2" y2="243.1"/>
				</g>
				<line class="st26" x1="160.8" y1="247.1" x2="166.5" y2="247.2"/>
				<line class="st26" x1="161.9" y1="245.5" x2="165.4" y2="245.6"/>
				<line class="st26" x1="161.9" y1="248.7" x2="165.4" y2="248.8"/>
				<circle class="st27" cx="167" cy="240.7" r="0.4"/>
				<circle class="st22" cx="167" cy="241.7" r="0.4"/>
			</g>
			<path class="st5" d="M135.7,218.8l7.5-3.4c0,0,8.2-6.4,14.4-6.6l0.5,0.5c0,0-7.4,0.2-11.2,4.9c-1.8,2.2-5.6,2.9-6.7,5.4
				C140.2,219.5,136.9,219,135.7,218.8z"/>
		</g>
	</g>
</g>
</svg>
