<svg xmlns="http://www.w3.org/2000/svg" xmlns:xlink="http://www.w3.org/1999/xlink" width="1115" height="556" viewBox="0 0 1115 556">
  <defs>
    <clipPath id="clip-path">
      <path id="Path_2056" data-name="Path 2056" d="M452.149,331.753a14.141,14.141,0,0,1-14.118,14.118H309.818A14.141,14.141,0,0,1,295.7,331.753V236.818A14.141,14.141,0,0,1,309.818,222.7H417.431a14.141,14.141,0,0,1,14.118,14.118Z" transform="translate(-295.7 -222.7)"/>
    </clipPath>
  </defs>
  <g id="Group_408" data-name="Group 408" transform="translate(-9826 13903)">
    <rect id="Rectangle_386" data-name="Rectangle 386" width="1115" height="556" transform="translate(9826 -13903)" fill="none"/>
    <g id="OBJECTS" transform="translate(10050.553 -13878.737)">
      <g id="XMLID_1_">
        <path id="Path_2031" data-name="Path 2031" d="M569.6,473.28C464,585.5,279.751,569.224,205.128,546.318c-196.93-60.505-215.8-371.1-33.566-379.166,56.328-2.449,86,61.946,227.183-29.82,116.4-75.632,223.581,31.981,235.25,119.282C643.935,332.389,624.631,414.791,569.6,473.28Z" transform="translate(-7.189 -56.802)" fill="#c4e1f3"/>
        <path id="XMLID_6_" d="M216,240.339a27.322,27.322,0,0,1,27.083-24.49,29.481,29.481,0,0,1,10.8,2.161,32.771,32.771,0,0,1,29.82-19.016h1.729a27.275,27.275,0,0,1,51.285,9.364,29.965,29.965,0,0,1,7.2-1.008,27.3,27.3,0,0,1,25.066,16.423,19.161,19.161,0,0,1,6.483-1.152,19.531,19.531,0,0,1,19.448,17.431H216Z" transform="translate(67.942 -24.826)" fill="#fff"/>
        <g id="XMLID_7_" transform="translate(80.674)">
          <rect id="XMLID_395_" width="121.443" height="169.991" transform="translate(77.648 325.432)" fill="#dff1ff"/>
          <g id="XMLID_8_" transform="translate(96.664 54.167)">
            <rect id="XMLID_394_" width="70.878" height="248.215" transform="translate(0 31.837)" fill="#dff1ff"/>
            <rect id="XMLID_389_" width="54.311" height="13.83" transform="translate(8.932 18.008)" fill="#dff1ff"/>
            <rect id="XMLID_388_" width="32.269" height="23.626" transform="translate(20.024)" fill="#dff1ff"/>
            <rect id="Rectangle_318" data-name="Rectangle 318" width="3.313" height="155.441" transform="translate(9.22 46.82)" fill="#c4e1f3"/>
            <rect id="Rectangle_319" data-name="Rectangle 319" width="3.313" height="155.441" transform="translate(18.872 56.616)" fill="#c4e1f3"/>
            <rect id="XMLID_387_" width="3.313" height="155.441" transform="translate(28.668 66.268)" fill="#c4e1f3"/>
            <rect id="Rectangle_320" data-name="Rectangle 320" width="3.313" height="155.441" transform="translate(38.464 76.064)" fill="#c4e1f3"/>
          </g>
          <path id="XMLID_19_" d="M213.1,305.2l127.637,47.828V466.835H213.1Z" transform="translate(-14.009 28.443)" fill="#dff1ff"/>
          <g id="XMLID_20_" transform="translate(412.444 9.364)">
            <rect id="Rectangle_321" data-name="Rectangle 321" width="95.368" height="419.503" transform="translate(0 68.429)" fill="#dff1ff"/>
            <rect id="Rectangle_322" data-name="Rectangle 322" width="48.404" height="18.728" transform="translate(37.456 49.701)" fill="#dff1ff"/>
            <path id="XMLID_25_" d="M397.5,80.1l25.355,13.686V129.8H397.5Z" transform="translate(-345.206 -80.1)" fill="#dff1ff"/>
            <rect id="Rectangle_323" data-name="Rectangle 323" width="73.327" height="5.762" transform="translate(12.533 85.716)" fill="#c8e2f9"/>
            <rect id="Rectangle_324" data-name="Rectangle 324" width="73.327" height="5.762" transform="translate(12.533 101.13)" fill="#c8e2f9"/>
            <rect id="Rectangle_325" data-name="Rectangle 325" width="73.327" height="5.762" transform="translate(12.533 116.545)" fill="#c8e2f9"/>
            <rect id="Rectangle_326" data-name="Rectangle 326" width="73.327" height="5.762" transform="translate(12.533 131.959)" fill="#c8e2f9"/>
            <rect id="Rectangle_327" data-name="Rectangle 327" width="73.327" height="5.762" transform="translate(12.533 147.373)" fill="#c8e2f9"/>
            <rect id="Rectangle_328" data-name="Rectangle 328" width="73.327" height="5.762" transform="translate(12.533 162.788)" fill="#c8e2f9"/>
            <rect id="Rectangle_329" data-name="Rectangle 329" width="73.327" height="5.762" transform="translate(12.533 178.202)" fill="#c8e2f9"/>
            <rect id="Rectangle_330" data-name="Rectangle 330" width="73.327" height="5.762" transform="translate(12.533 193.617)" fill="#c8e2f9"/>
          </g>
          <rect id="XMLID_386_" width="85.716" height="205.862" transform="translate(326.728 289.561)" fill="#dff1ff"/>
          <g id="XMLID_26_" transform="translate(336.668 305.84)">
            <g id="XMLID_36_" transform="translate(14.118)">
              <rect id="Rectangle_331" data-name="Rectangle 331" width="9.508" height="15.847" transform="translate(42.21)" fill="#c8e2f9"/>
              <rect id="Rectangle_332" data-name="Rectangle 332" width="9.508" height="15.847" transform="translate(14.118)" fill="#c8e2f9"/>
              <rect id="Rectangle_333" data-name="Rectangle 333" width="9.508" height="15.847" fill="#c8e2f9"/>
            </g>
            <g id="XMLID_45_" transform="translate(0 27.371)">
              <g id="XMLID_41_">
                <rect id="XMLID_42_" width="9.508" height="15.847" transform="translate(56.327)" fill="#c8e2f9"/>
                <rect id="XMLID_43_" width="9.508" height="15.847" transform="translate(42.21)" fill="#c8e2f9"/>
                <rect id="XMLID_44_" width="9.508" height="15.847" fill="#c8e2f9"/>
              </g>
            </g>
            <g id="XMLID_50_" transform="translate(0 54.743)">
              <g id="XMLID_47_">
                <rect id="XMLID_48_" width="9.508" height="15.847" transform="translate(42.21)" fill="#c8e2f9"/>
                <rect id="XMLID_49_" width="9.508" height="15.847" fill="#c8e2f9"/>
              </g>
            </g>
            <g id="XMLID_51_" transform="translate(0 81.97)">
              <rect id="Rectangle_334" data-name="Rectangle 334" width="9.508" height="15.847" transform="translate(56.327)" fill="#c8e2f9"/>
              <rect id="XMLID_380_" width="9.508" height="15.847" transform="translate(42.21)" fill="#c8e2f9"/>
              <rect id="Rectangle_335" data-name="Rectangle 335" width="9.508" height="15.847" transform="translate(28.236)" fill="#dedfe0"/>
              <rect id="XMLID_379_" width="9.508" height="15.847" fill="#c8e2f9"/>
            </g>
          </g>
          <rect id="Rectangle_336" data-name="Rectangle 336" width="85.716" height="418.206" transform="translate(0 77.792)" fill="#dff1ff"/>
          <rect id="Rectangle_337" data-name="Rectangle 337" width="54.167" height="44.37" transform="translate(15.847 43.362)" fill="#dff1ff"/>
          <rect id="Rectangle_338" data-name="Rectangle 338" width="27.66" height="22.617" transform="translate(29.1 21.753)" fill="#dff1ff"/>
          <rect id="XMLID_378_" width="11.813" height="26.507" transform="translate(37.023)" fill="#dff1ff"/>
          <g id="XMLID_52_" transform="translate(10.084 94.071)">
            <g id="XMLID_60_" transform="translate(14.118 81.97)">
              <rect id="XMLID_377_" width="9.508" height="15.847" transform="translate(42.21)" fill="#c4e1f3"/>
              <rect id="Rectangle_339" data-name="Rectangle 339" width="9.508" height="15.847" transform="translate(14.118)" fill="#c4e1f3"/>
              <rect id="XMLID_376_" width="9.508" height="15.847" fill="#c4e1f3"/>
            </g>
            <g id="XMLID_61_" transform="translate(0 54.743)">
              <rect id="XMLID_375_" width="9.508" height="15.847" transform="translate(56.327)" fill="#c4e1f3"/>
              <rect id="Rectangle_340" data-name="Rectangle 340" width="9.508" height="15.847" transform="translate(42.21)" fill="#c4e1f3"/>
              <rect id="Rectangle_341" data-name="Rectangle 341" width="9.508" height="15.847" fill="#c4e1f3"/>
            </g>
            <g id="XMLID_65_" transform="translate(0 27.371)">
              <rect id="Rectangle_342" data-name="Rectangle 342" width="9.508" height="15.847" transform="translate(42.21)" fill="#c4e1f3"/>
              <rect id="Rectangle_343" data-name="Rectangle 343" width="9.508" height="15.847" fill="#c4e1f3"/>
            </g>
            <g id="XMLID_69_">
              <rect id="XMLID_374_" width="9.508" height="15.847" transform="translate(56.327)" fill="#c4e1f3"/>
              <rect id="Rectangle_344" data-name="Rectangle 344" width="9.508" height="15.847" transform="translate(42.21)" fill="#dff1ff"/>
              <rect id="Rectangle_345" data-name="Rectangle 345" width="9.508" height="15.847" transform="translate(28.236)" fill="#c4e1f3"/>
              <rect id="Rectangle_346" data-name="Rectangle 346" width="9.508" height="15.847" fill="#c4e1f3"/>
            </g>
          </g>
          <g id="XMLID_72_" transform="translate(83.987 337.101)">
            <g id="XMLID_77_">
              <rect id="XMLID_373_" width="9.508" height="15.847" transform="translate(92.487)" fill="#dedfe0"/>
              <rect id="XMLID_372_" width="9.508" height="15.847" transform="translate(77.072)" fill="#dff1ff"/>
              <rect id="XMLID_371_" width="9.508" height="15.847" transform="translate(61.658)" fill="#dff1ff"/>
              <rect id="Rectangle_347" data-name="Rectangle 347" width="9.508" height="15.847" transform="translate(30.829)" fill="#dff1ff"/>
              <rect id="Rectangle_348" data-name="Rectangle 348" width="9.508" height="15.847" transform="translate(15.414)" fill="#dff1ff"/>
              <rect id="Rectangle_349" data-name="Rectangle 349" width="9.508" height="15.847" fill="#dedfe0"/>
            </g>
            <g id="XMLID_78_" transform="translate(0 24.202)">
              <rect id="XMLID_370_" width="9.508" height="15.847" transform="translate(77.072)" fill="#dff1ff"/>
              <rect id="XMLID_369_" width="9.508" height="15.847" transform="translate(46.243)" fill="#dff1ff"/>
              <rect id="Rectangle_350" data-name="Rectangle 350" width="9.508" height="15.847" transform="translate(30.829)" fill="#c4e1f3"/>
              <rect id="Rectangle_351" data-name="Rectangle 351" width="9.508" height="15.847" transform="translate(15.414)" fill="#dff1ff"/>
              <rect id="Rectangle_352" data-name="Rectangle 352" width="9.508" height="15.847" fill="#dff1ff"/>
            </g>
            <g id="XMLID_83_" transform="translate(15.414 48.404)">
              <rect id="XMLID_368_" width="9.508" height="15.847" transform="translate(77.072)" fill="#dff1ff"/>
              <rect id="XMLID_145_" width="9.508" height="15.847" transform="translate(61.658)" fill="#dff1ff"/>
              <rect id="Rectangle_353" data-name="Rectangle 353" width="9.508" height="15.847" transform="translate(15.414)" fill="#dedfe0"/>
              <rect id="Rectangle_354" data-name="Rectangle 354" width="9.508" height="15.847" fill="#c4e1f3"/>
            </g>
            <g id="XMLID_89_" transform="translate(0 72.606)">
              <rect id="XMLID_144_" width="9.508" height="15.847" transform="translate(92.487)" fill="#dff1ff"/>
              <rect id="XMLID_143_" width="9.508" height="15.847" transform="translate(61.658)" fill="#dff1ff"/>
              <rect id="XMLID_142_" width="9.508" height="15.847" transform="translate(46.243)" fill="#dedfe0"/>
              <rect id="Rectangle_355" data-name="Rectangle 355" width="9.508" height="15.847" transform="translate(30.829)" fill="#dedfe0"/>
              <rect id="Rectangle_356" data-name="Rectangle 356" width="9.508" height="15.847" transform="translate(15.414)" fill="#c4e1f3"/>
              <rect id="Rectangle_357" data-name="Rectangle 357" width="9.508" height="15.847" fill="#c4e1f3"/>
            </g>
          </g>
        </g>
        <g id="XMLID_93_" transform="translate(0 326.728)">
          <path id="XMLID_98_" d="M74.174,303.281H41.041a1.441,1.441,0,0,1,0-2.881H74.174a1.361,1.361,0,0,1,1.441,1.441A1.549,1.549,0,0,1,74.174,303.281Z" transform="translate(-9.78 -300.4)" fill="#558efa"/>
          <path id="XMLID_99_" d="M69.474,324.281H36.341a1.441,1.441,0,1,1,0-2.881H69.474a1.361,1.361,0,0,1,1.441,1.441A1.444,1.444,0,0,1,69.474,324.281Z" transform="translate(-11.85 -291.147)" fill="#558efa"/>
          <path id="XMLID_100_" d="M53.474,312.281H20.341a1.441,1.441,0,1,1,0-2.881H53.474a1.361,1.361,0,0,1,1.441,1.441A1.444,1.444,0,0,1,53.474,312.281Z" transform="translate(-18.9 -296.435)" fill="#558efa"/>
          <path id="XMLID_101_" d="M64.747,312.281H50.341a1.441,1.441,0,1,1,0-2.881H64.747a1.361,1.361,0,0,1,1.441,1.441A1.444,1.444,0,0,1,64.747,312.281Z" transform="translate(-5.682 -296.435)" fill="#558efa"/>
          <path id="XMLID_102_" d="M66.747,334.281H52.341a1.441,1.441,0,0,1,0-2.881H66.747a1.361,1.361,0,0,1,1.441,1.441A1.444,1.444,0,0,1,66.747,334.281Z" transform="translate(-4.801 -286.741)" fill="#558efa"/>
        </g>
        <rect id="XMLID_141_" width="629.542" height="13.254" transform="translate(26.507 494.99)" fill="#aab5ba"/>
        <g id="XMLID_103_" transform="translate(557.656 446.874)">
          <path id="Path_2032" data-name="Path 2032" d="M406,408.216h0c3.457,9.076,14.406,15.847,24.346,15.126h0C426.745,414.267,415.94,407.5,406,408.216Z" transform="translate(-406 -373.065)" fill="#1d6468"/>
          <path id="Path_2033" data-name="Path 2033" d="M450.665,409.023h0c-10.372-2.881-23.914,3.025-29.965,13.254h0C431.072,425.158,444.47,419.107,450.665,409.023Z" transform="translate(-399.523 -373.008)" fill="#1d6468"/>
          <path id="Path_2034" data-name="Path 2034" d="M409.9,391.5h0a75.841,75.841,0,0,0,5.042,19.448,68.671,68.671,0,0,0,9.8,17.719h0a21.592,21.592,0,0,0,1.441-4.61,31.945,31.945,0,0,0,.432-5.33,37.154,37.154,0,0,0-.576-5.618,41.877,41.877,0,0,0-1.729-5.618c-.864-1.873-1.729-3.6-2.737-5.33a54.906,54.906,0,0,0-3.457-4.61,31.416,31.416,0,0,0-4.034-3.6A39.7,39.7,0,0,0,409.9,391.5Z" transform="translate(-404.282 -380.407)" fill="#257c86"/>
          <path id="Path_2035" data-name="Path 2035" d="M448.56,396.2h0a20.849,20.849,0,0,0-5.042.576c-.432.144-.864.144-1.3.288l-1.3.432a19.247,19.247,0,0,0-2.593,1.009l-.72.288-.576.288c-.432.288-.864.432-1.3.72a23.442,23.442,0,0,0-2.449,1.585,37.534,37.534,0,0,0-4.466,3.89,36.189,36.189,0,0,0-3.6,4.61,23.306,23.306,0,0,0-1.441,2.593,5.121,5.121,0,0,0-.576,1.3l-.288.576-.288.72-.864,2.593a4.207,4.207,0,0,0-.288,1.3c-.144.432-.144.864-.288,1.3a30.457,30.457,0,0,0-.288,5.042h0a87.625,87.625,0,0,0,15.27-13.254A85.719,85.719,0,0,0,448.56,396.2Z" transform="translate(-399.435 -378.337)" fill="#257c86"/>
          <path id="Path_2036" data-name="Path 2036" d="M431.767,383.8h0c-9.508,12.389-14.406,34.574-10.8,49.845h0C430.47,421.256,435.224,398.926,431.767,383.8Z" transform="translate(-399.93 -383.8)" fill="#1d6468"/>
        </g>
        <g id="XMLID_105_" transform="translate(51.285 201.396)">
          <g id="XMLID_106_">
            <rect id="XMLID_109_" width="158.466" height="66.268" transform="translate(360.726 180.219)" fill="#d87012"/>
            <g id="XMLID_110_">
              <path id="XMLID_111_" d="M406.675,377.072A18.844,18.844,0,0,1,387.8,395.944H82.972A18.844,18.844,0,0,1,64.1,377.072h0A18.844,18.844,0,0,1,82.972,358.2H387.8a18.937,18.937,0,0,1,18.872,18.872Z" transform="translate(-50.27 -149.601)" fill="#d87012"/>
              <g id="XMLID_112_">
                <path id="XMLID_113_" d="M377.789,425.78V244.7a30.4,30.4,0,0,0-30.4-30.4H99.9a30.4,30.4,0,0,0-30.4,30.4V425.924H377.789Z" transform="translate(-47.891 -213.003)" fill="#d87012"/>
                <path id="XMLID_116_" d="M81.025,256.121a30.4,30.4,0,0,1,30.4-30.4h247.5a30.921,30.921,0,0,1,14.982,3.89A30.287,30.287,0,0,0,347.536,214.2H99.9a30.4,30.4,0,0,0-30.4,30.4V425.824H80.881v-169.7Z" transform="translate(-47.891 -213.048)" fill="#ff9f03"/>
                <g id="XMLID_117_">
                  <path id="XMLID_120_" d="M481.239,371.146A20.443,20.443,0,0,1,460.782,391.6H303.757A20.443,20.443,0,0,1,283.3,371.146V233.857A20.443,20.443,0,0,1,303.757,213.4h127.2a20.443,20.443,0,0,1,20.457,20.457Z" transform="translate(46.309 -213.4)" fill="#ffb104"/>
                  <path id="XMLID_123_" d="M303.757,221.467H430.962a20.443,20.443,0,0,1,20.457,20.457l29.1,134.264a19.377,19.377,0,0,0,.72-5.042l-29.82-137.289A20.443,20.443,0,0,0,430.962,213.4H303.757A20.443,20.443,0,0,0,283.3,233.857v8.067A20.351,20.351,0,0,1,303.757,221.467Z" transform="translate(46.309 -213.4)" fill="#fcc860"/>
                  <path id="XMLID_126_" d="M524.645,405.516c0,5.906-1.873,7.491-13.109,7.491H448.149a53.413,53.413,0,0,0-5.762-20.312,52.345,52.345,0,0,0-92.775,0,53.415,53.415,0,0,0-5.762,20.312H283.2V319.8H498.426c11.381,0,13.109,7.923,13.109,13.83Z" transform="translate(46.265 -166.52)" fill="#ffb104"/>
                  <path id="XMLID_127_" d="M475.912,374.522c0-1.873-.576-4.322-4.034-4.322H418l5.33,28.668h52.438c3.457,0,4.034-.432,4.034-2.3Z" transform="translate(105.658 -144.314)" fill="#0a1b2c"/>
                  <path id="XMLID_128_" d="M58.534,374.522c0-1.873.576-4.322,4.034-4.322H116.3l-5.33,28.668H58.534c-3.457,0-4.034-.432-4.034-2.3Z" transform="translate(-54.5 -144.314)" fill="#0a1b2c"/>
                  <ellipse id="Ellipse_32" data-name="Ellipse 32" cx="11.957" cy="26.795" rx="11.957" ry="26.795" transform="translate(528.999 166.423) rotate(-5.687)" fill="#d87012"/>
                  <path id="XMLID_132_" d="M467.948,385.614c0,4.178-1.3,5.33-9.508,5.33H437.552a52.345,52.345,0,0,0-92.775,0H294.5V324.1H449.076c8.067,0,9.508,5.762,9.508,9.94Z" transform="translate(51.244 -164.626)" fill="#fcc860"/>
                  <g id="XMLID_133_" transform="translate(347.473 13.398)">
                    <path id="XMLID_134_" d="M452.149,331.753a14.141,14.141,0,0,1-14.118,14.118H309.818A14.141,14.141,0,0,1,295.7,331.753V236.818A14.141,14.141,0,0,1,309.818,222.7H417.431a14.141,14.141,0,0,1,14.118,14.118Z" transform="translate(-295.7 -222.7)" fill="#fff"/>
                    <g id="XMLID_135_">
                      <g id="XMLID_136_" clip-path="url(#clip-path)">
                        <g id="XMLID_137_" transform="translate(26.139 11.764)">
                          <path id="XMLID_138_" d="M360.076,273.7h-1.152c-13.4-.72-18.584-8.644-18.728-8.932l-5.762-6.915a.509.509,0,1,1,.72-.72l5.762,7.059c.144.144,5.042,7.923,18.008,8.5,8.932.432,13.254-4.61,13.254-4.754a.509.509,0,0,1,.72.72C372.753,268.946,368.575,273.7,360.076,273.7Z" transform="translate(-304.821 -219.341)" fill="#fff"/>
                          <g id="XMLID_139_">
                            <g id="XMLID_140_" transform="translate(0.131)">
                              <path id="XMLID_146_" d="M399.391,329.149c-18.3-14.838-40.337-17.431-42.354-17.575A156.627,156.627,0,0,0,341.623,289.1L325.2,295.006S331.107,315.9,352,326.7a18.534,18.534,0,0,0,6.483,2.3c6.771,2.737,17,4.466,26.075,7.491C395.357,340.385,407.746,335.92,399.391,329.149Zm-41.921-16.855h0a.141.141,0,0,1-.144-.144Z" transform="translate(-308.972 -205.208)" fill="#7ec193"/>
                              <path id="XMLID_151_" d="M355.662,354.038v1.008c-.72,4.754-12.965,2.161-24.922-.576-6.195-1.441-12.245-3.025-16.711-3.6-.576,0,1.585-22.906,4.61-43.218h0c.432-2.161.864-4.178,1.3-6.195,0,0,7.779-19.016,14.55-20.457h0a14.367,14.367,0,0,1,2.3.288,17.422,17.422,0,0,1,2.593.72c3.169,1.008,6.627.864,9.8,2.017a3.417,3.417,0,0,1,1.729,1.3c3.025,3.169,5.906,11.237,6.483,17,1.729,14.694-1.441,34.863-1.729,43.65a72.357,72.357,0,0,0,0,7.923h0Z" transform="translate(-313.935 -208.777)" fill="#7ec193"/>
                              <path id="XMLID_154_" d="M384.553,329.2c-9.076-3.169-19.3-4.754-26.075-7.491a18.532,18.532,0,0,1-6.483-2.3c-14.406-7.491-21.609-19.736-24.778-26.507l-2.017.72s5.906,20.889,26.8,31.693a18.531,18.531,0,0,0,6.483,2.3c6.771,2.737,17,4.466,26.075,7.491,10.228,3.457,21.9-.288,15.991-6.483C397.518,330.644,390.747,331.22,384.553,329.2Z" transform="translate(-308.972 -203.534)" fill="#6aaa7c"/>
                              <g id="XMLID_155_" transform="translate(14.643)">
                                <path id="XMLID_156_" d="M378.516,280.506c-2.017,5.762-4.9,10.8-8.211,13.4-.288.144-.432.288-.72.432-4.322,2.737-11.957,3.457-19.3,2.449-6.915-.864-13.4-3.313-16.711-6.771-7.779-8.067-8.067-34.43,1.3-40.481,7.491-4.9,30.541-2.737,40.049,2.881l.72,18.728.144,1.152h0a11.125,11.125,0,0,1,1.441-.144h.72a17.817,17.817,0,0,1,2.593.288.529.529,0,0,1-.144.432,3.279,3.279,0,0,1,1.3,2.161A5.516,5.516,0,0,1,378.516,280.506Z" transform="translate(-322.477 -223.842)" fill="#f3c29e"/>
                                <path id="Path_2037" data-name="Path 2037" d="M349.5,266.736c-.144.864,2.161,1.873,4.9,2.161,2.881.288,5.186-.144,5.33-1.008s-2.161-1.873-4.9-2.161c-2.881-.288-5.33.144-5.33,1.008" transform="translate(-312.911 -215.546)" fill="#ef728d"/>
                                <path id="Path_2038" data-name="Path 2038" d="M334.254,281.4a24.448,24.448,0,0,1-4.754,4.754,14.367,14.367,0,0,0,12.533,9.8,17.719,17.719,0,0,1,.864-3.169,41.152,41.152,0,0,1,1.729-3.89,19.408,19.408,0,0,1,5.33-6.483,7.927,7.927,0,0,1,1.3-1.008l-12.533-9.8a22.228,22.228,0,0,1-.72,2.449,29.324,29.324,0,0,1-2.449,5.474c-.576.72-.864,1.3-1.3,1.873" transform="translate(-321.721 -212.919)" fill="#f3c29e"/>
                                <path id="Path_2039" data-name="Path 2039" d="M344.67,276.454l-6.195-4.754a22.22,22.22,0,0,1-.72,2.449,29.315,29.315,0,0,1-2.449,5.474,12.022,12.022,0,0,1-1.152,1.729,24.45,24.45,0,0,1-4.754,4.754,16.076,16.076,0,0,0,5.186,7.2,34.3,34.3,0,0,1,10.084-16.855" transform="translate(-321.765 -212.875)" fill="#ec999b"/>
                                <path id="Path_2040" data-name="Path 2040" d="M336.622,273.4a75.014,75.014,0,0,1-4.322,8.067c1.729,4.178,3.313,14.838,8.067,15.847.432-1.152,2.161-7.923,2.881-9.22a19.41,19.41,0,0,1,5.33-6.483V278.73l-2.593-1.152Z" transform="translate(-320.487 -212.126)" fill="#ec999b"/>
                                <path id="Path_2041" data-name="Path 2041" d="M355.86,286.892c-9.652-2.737-17.143-10.8-20.168-19.592-2.737.432-4.754,1.441-7.491,1.152.864,5.186,2.593,9.94,5.186,12.533,5.186,5.33,18.44,8.067,28.092,6.771a17.664,17.664,0,0,1-5.618-.864" transform="translate(-322.294 -214.813)" fill="#ec999b"/>
                                <path id="Path_2042" data-name="Path 2042" d="M371.391,252.517c-7.347-4.322-22.617-6.627-32.7-5.186a28.828,28.828,0,0,0-2.881,5.618c-.288,1.873,2.017,9.364,2.017,9.364s7.347-2.449,8.932-6.339c0,0,15.7,4.034,25.066,4.322Z" transform="translate(-318.953 -223.801)" fill="#ec999b"/>
                                <path id="Path_2043" data-name="Path 2043" d="M377.974,260.735c5.762-.576,10.516-5.618,9.8-11.381,0-.144-.576-6.195-.72-6.195-14.694-2.3-27.083-11.669-48.26,1.3a7.6,7.6,0,0,0-8.355-.144c-4.61,2.737-5.186,13.974-2.161,18.152l11.669-7.491c.144.144,23.05,7.2,38.032,5.762" transform="translate(-323.087 -227.841)" fill="#0a1b2c"/>
                                <path id="Path_2044" data-name="Path 2044" d="M333.24,241.7c-13.974,6.051-7.635,46.531-.432,45.235,12.245-2.3,2.449-4.322,3.169-15.847s5.618-2.737,5.618-2.737.576-11.525,3.313-13.686c2.881-2.305.432-3.89,0-4.034-.288-.288-11.669-8.932-11.669-8.932" transform="translate(-323.732 -226.093)" fill="#0a1b2c"/>
                                <path id="Path_2045" data-name="Path 2045" d="M346.313,253.262,347.9,247.5a25.772,25.772,0,0,0-7.2,1.729c-3.746,2.161-6.195,11.381-6.195,11.381l.288,4.466s.144,8.788.864,10.084,2.449,2.881,2.161,2.017c-.432-.864,1.3-13.109,1.441-15.558s3.025-1.3,7.059-8.356h0" transform="translate(-319.518 -223.537)" fill="#0a1b2c"/>
                                <path id="XMLID_157_" d="M336.121,243.861c-1.585-1.3-2.881-2.161-2.881-2.161-13.974,6.051-7.635,46.531-.432,45.235a26.683,26.683,0,0,0,3.6-.864C330.935,280.6,327.334,252.937,336.121,243.861Z" transform="translate(-323.732 -226.093)" fill="#24455b"/>
                                <path id="XMLID_160_" d="M324.925,265.489s33.278-10.8,44.8-14.118l23.05-6.339s1.3-4.466-6.339-3.169a43.15,43.15,0,0,1-14.118,0l-10.66-7.635s-7.779-7.059-20.024-.72c-8.067,4.322-13.254,7.779-13.254,7.779a23.017,23.017,0,0,0-4.178,12.677C324.061,263.761,324.925,265.489,324.925,265.489Z" transform="translate(-324.061 -230.866)" fill="#ffb104"/>
                                <path id="XMLID_163_" d="M331.3,254.073a23.017,23.017,0,0,1,4.178-12.677,113.7,113.7,0,0,1,13.254-7.779,28.6,28.6,0,0,1,6.339-2.3c-3.457-.72-8.067-.576-13.542,2.3-8.067,4.322-13.254,7.779-13.254,7.779a23.017,23.017,0,0,0-4.178,12.677c0,9.8.72,11.381.72,11.381s2.737-.864,6.771-2.161C331.447,261.564,331.3,258.827,331.3,254.073Z" transform="translate(-324.1 -230.831)" fill="#fcd763"/>
                                <path id="XMLID_166_" d="M374.173,238.676a43.15,43.15,0,0,1-14.118,0l-.72-.576c-2.449,4.034-5.042,7.923-7.635,11.813,2.305-.72,4.322-1.3,5.762-1.729l23.05-6.339S381.809,237.38,374.173,238.676Z" transform="translate(-311.939 -227.679)" fill="#d3780b"/>
                                <path id="XMLID_167_" d="M352.119,259.8c-.288,0-.432-.144-.72-.288a.962.962,0,0,1,0-1.441,5.335,5.335,0,0,1,7.059-.432.939.939,0,1,1-1.008,1.585,3.57,3.57,0,0,0-4.61.144C352.552,259.8,352.408,259.8,352.119,259.8Z" transform="translate(-312.215 -219.561)" fill="#6c351f"/>
                                <path id="Path_2046" data-name="Path 2046" d="M353.508,262.793c-.144,1.441.288,2.737,1.008,2.881s1.441-1.008,1.585-2.593c.144-1.441-.288-2.737-1.008-2.881-.72,0-1.441,1.152-1.585,2.593" transform="translate(-311.155 -217.942)" fill="#6c351f"/>
                                <path id="Path_2047" data-name="Path 2047" d="M335,258.1" transform="translate(-319.297 -218.867)" fill="#f3c29e"/>
                                <path id="Path_2048" data-name="Path 2048" d="M337.7,258.635c-.432-1.441-4.61-2.449-7.347-1.152-2.737,1.441-1.3,9.508,1.3,10.949,2.017,1.152,6.339-.144,5.33.864" transform="translate(-321.996 -219.402)" fill="#f3c29e"/>
                                <path id="Path_2049" data-name="Path 2049" d="M333.724,261.681c.288,1.585-.144,3.025-.864,3.169s-.432-1.3-.576-3.025c-.288-1.585-1.008-2.881-.288-3.025.72,0,1.585,1.3,1.729,2.881" transform="translate(-320.758 -218.559)" fill="#6c351f"/>
                                <path id="XMLID_170_" d="M373.412,273.284c-2.017,5.762-4.9,10.8-8.211,13.4-.288.144-.432.288-.72.432-4.322,2.737-8.5,4.178-15.847,3.169a17.8,17.8,0,0,1-5.762-8.932c-1.008-3.746-3.89-17.287-3.457-18.152a41.363,41.363,0,0,0,5.474,4.034c13.11,6.051,19.16,3.025,27.371-2.017h.72a17.817,17.817,0,0,1,2.593.288.529.529,0,0,1-.144.432,3.279,3.279,0,0,1,1.3,2.161C376.869,270.979,374.708,272.564,373.412,273.284Z" transform="translate(-317.372 -216.62)" fill="#7ec193"/>
                                <path id="XMLID_173_" d="M375.853,266.557a8.246,8.246,0,0,1-2.449,2.161c-2.017,5.762-4.9,10.8-8.211,13.4-.288.144-.432.288-.72.432-4.322,2.737-8.5,4.178-15.847,3.169a17.8,17.8,0,0,1-5.762-8.932c-.576-2.3-2.017-8.5-2.737-13.109a5.205,5.205,0,0,1-.72-.576c-.288,1.008,2.593,14.406,3.457,18.152a17.1,17.1,0,0,0,5.762,8.932c7.347,1.008,11.525-.432,15.847-3.169a3.145,3.145,0,0,1,.72-.432c3.313-2.593,6.339-7.635,8.211-13.4A5.169,5.169,0,0,0,376.574,268,4.507,4.507,0,0,0,375.853,266.557Z" transform="translate(-317.365 -216.664)" fill="#6aaa7c"/>
                                <path id="XMLID_174_" d="M362.9,274.5c-.144,0-.432-.144-.432-.288a.425.425,0,0,1,.288-.576c.144,0,4.322-1.3,3.89-5.042a2.672,2.672,0,0,0-1.008-1.729c-1.585-1.152-4.322-.72-4.322-.72-.288,0-.432-.144-.576-.432a13.351,13.351,0,0,1-.144-2.881.382.382,0,0,1,.432-.432.46.46,0,0,1,.432.432,7.137,7.137,0,0,0,.144,2.161,6.469,6.469,0,0,1,4.61,1.008,3.4,3.4,0,0,1,1.3,2.3c.72,4.754-4.466,6.195-4.61,6.195Z" transform="translate(-308.018 -216.972)" fill="#6c351f"/>
                              </g>
                              <path id="XMLID_177_" d="M355.639,354.973c-2.449.432-10.372-2.017-9.8-.144-4.61.864-9.8.432-14.982-.432-6.195-1.008-12.245-2.593-16.711-3.313-.72-.144,1.008-24.922,4.61-43.506h0c.432-2.161.864-4.178,1.3-6.195,0,0,7.779-19.016,14.55-20.457h0a3.251,3.251,0,0,1,2.3.288c.144,0,.288.144.432.288,0,0-9.94,11.669-.72,20.024,3.746,3.457,7.779,10.66,7.779,10.66s-13.4-1.008-16.855,3.025c-3.313,4.034-8.067,21.321-4.9,26.219,4.466,6.915,25.643,7.2,33.134,12.533h0a2.531,2.531,0,0,1,.72.576A.974.974,0,0,1,355.639,354.973Z" transform="translate(-313.912 -208.848)" fill="#6aaa7c"/>
                            </g>
                            <g id="XMLID_178_" transform="translate(0 117.909)">
                              <path id="Path_2050" data-name="Path 2050" d="M392.6,315.431s.864-.144,1.873,1.008a2.377,2.377,0,0,1,.432,2.449,3.067,3.067,0,0,1,2.449,1.873,1.715,1.715,0,0,1-.72,2.593s-1.008-.864-5.474-1.441-6.915,1.441-6.915,1.441-3.6,2.449-3.746,6.483h0s2.881,2.881,2.737,4.61-1.3,2.593-2.161,1.3-5.474-7.779-5.474-7.779h0c-2.593-3.025-1.008-9.94,1.585-11.381,6.771-3.746,12.389-4.322,14.262-3.6a2.23,2.23,0,0,1,1.152,2.449" transform="translate(-287.216 -312.714)" fill="#f3c29e"/>
                              <g id="XMLID_179_" transform="translate(0 23.606)">
                                <g id="XMLID_180_" transform="translate(60.929 85.86)">
                                  <path id="Path_2051" data-name="Path 2051" d="M356.8,392.9s-.288-.288-.576.864c-.288,1.3.144,6.195,1.008,7.2s21.321,1.441,21.9-.576c.576-1.873-16.279-9.8-16.279-9.8Z" transform="translate(-356.138 -387.863)" fill="#0a2544"/>
                                  <path id="Path_2052" data-name="Path 2052" d="M363.547,388.7l.576,3.89a7.718,7.718,0,0,1-7.347,1.152l-.576-3.89Z" transform="translate(-356.111 -388.7)" fill="#f2c5ba"/>
                                </g>
                                <path id="Path_2053" data-name="Path 2053" d="M344.465,330.785,314.357,329.2s-3.313,13.542,6.915,24.2c5.042,5.042,21.465,6.771,27.227,7.2a103.867,103.867,0,0,0,16.423.144l8.5,55.9s9.508-.144,10.949-3.89l-2.017-63.1a.446.446,0,0,1-.288-.144C381.921,340.725,372.269,333.522,344.465,330.785Z" transform="translate(-313.845 -329.056)" fill="#3e74ca"/>
                                <path id="Path_2054" data-name="Path 2054" d="M374.962,412.367,367.183,355.9a124.723,124.723,0,0,1-16.423-.144c-5.762-.432-22.329-2.017-27.227-7.2a26.281,26.281,0,0,1-7.491-19.3l-1.585-.144s-3.313,13.542,6.915,24.2c5.042,5.042,21.465,6.771,27.227,7.2a103.867,103.867,0,0,0,16.423.144l7.779,56.472s10.516.576,11.957-3.313l-.576-1.585C381.156,414.384,374.962,412.367,374.962,412.367Z" transform="translate(-313.8 -329.1)" fill="#2f64af"/>
                              </g>
                            </g>
                          </g>
                        </g>
                        <path id="XMLID_181_" d="M366.8,271.846c-4.466,4.61-12.821,5.042-18.872,4.466-.576,0-.576.864,0,1.008,6.195.72,14.838,0,19.592-4.754A.509.509,0,0,0,366.8,271.846Z" transform="translate(-272.877 -201.113)" fill="#6aaa7c"/>
                        <path id="XMLID_186_" d="M357.493,270.691c-4.322,1.441-8.644,0-12.677-1.873a.483.483,0,1,0-.432.864c4.178,2.017,8.788,3.6,13.4,2.017C358.357,271.411,358.069,270.546,357.493,270.691Z" transform="translate(-274.37 -202.406)" fill="#9fd3ae"/>
                        <path id="XMLID_189_" d="M343.2,302.595c-4.322-5.762-6.483-14.838-15.27-14.694-.576,0-.576,1.008,0,1.008,8.355-.288,10.372,8.644,14.406,14.118C342.77,303.6,343.635,303.027,343.2,302.595Z" transform="translate(-281.689 -193.973)" fill="#9fd3ae"/>
                        <path id="XMLID_192_" d="M374.411,314.419c-8.067-2.593-16.135-7.2-24.778-6.915-.576,0-.576,1.008,0,1.008,8.644-.288,16.567,4.178,24.49,6.771C374.7,315.571,374.987,314.707,374.411,314.419Z" transform="translate(-272.128 -185.341)" fill="#9fd3ae"/>
                        <path id="Path_2055" data-name="Path 2055" d="M376.388,327.608a2.34,2.34,0,0,1-3.025,1.729h0a2.34,2.34,0,0,1-1.729-3.025l2.737-10.949a2.34,2.34,0,0,1,3.025-1.729h0a2.34,2.34,0,0,1,1.729,3.025Z" transform="translate(-262.293 -182.684)" fill="#ffb104"/>
                        <path id="XMLID_196_" d="M378.388,314.1v.144l-2.737,10.949a2.435,2.435,0,0,1-4.034,1.152,2.3,2.3,0,0,0,1.873,2.737,2.581,2.581,0,0,0,3.025-1.729l2.737-10.949A2.75,2.75,0,0,0,378.388,314.1Z" transform="translate(-262.275 -182.429)" fill="#fc9609"/>
                        <path id="XMLID_199_" d="M323.7,330.8s-.72,8.5,14.262,10.372c14.982,2.017,25.355,1.3,29.244,5.906s6.915,65.115,6.915,65.115" transform="translate(-283.365 -175.071)" fill="none"/>
                      </g>
                      <g id="Group_407" data-name="Group 407" clip-path="url(#clip-path)">
                        <path id="Path_2057" data-name="Path 2057" d="M395.711,324.766a6.706,6.706,0,0,1-5.474,7.779h0a6.707,6.707,0,0,1-7.779-5.474l-5.33-29.965a6.706,6.706,0,0,1,5.474-7.779h0a6.706,6.706,0,0,1,7.779,5.474Z" transform="translate(-259.862 -193.383)" fill="#0a1b2c"/>
                      </g>
                    </g>
                  </g>
                  <path id="Path_2059" data-name="Path 2059" d="M433.39,305.324a5.4,5.4,0,0,1-4.178,6.339h0a5.4,5.4,0,0,1-6.339-4.178l-5.042-23.914a5.4,5.4,0,0,1,4.178-6.339h0a5.4,5.4,0,0,1,6.339,4.178Z" transform="translate(105.538 -185.321)" fill="#0a1b2c"/>
                  <path id="XMLID_201_" d="M426.3,289.7l-9.8,3.6s-7.2.864-7.2,7.2,4.466,19.736,4.466,19.736" transform="translate(101.825 -179.782)" fill="none"/>
                  <circle id="XMLID_202_" cx="5.33" cy="5.33" r="5.33" transform="translate(511.269 135.993)" fill="#0a1b2c"/>
                  <ellipse id="Ellipse_33" data-name="Ellipse 33" cx="7.203" cy="15.991" rx="7.203" ry="15.991" transform="translate(534.797 176.697) rotate(-5.681)" fill="#fff"/>
                  <g id="XMLID_203_" transform="translate(396.165 203.413)">
                    <circle id="XMLID_205_" cx="46.964" cy="46.964" r="46.964" transform="translate(0 0.144)" fill="#0a1b2c"/>
                    <path id="XMLID_206_" d="M334.83,401.708A47.061,47.061,0,0,1,379.2,354.744c-.864,0-1.729-.144-2.737-.144a46.964,46.964,0,1,0,0,93.927,18.367,18.367,0,0,0,2.737-.144A46.6,46.6,0,0,1,334.83,401.708Z" transform="translate(-329.5 -354.6)" fill="#183349"/>
                    <circle id="XMLID_209_" cx="23.77" cy="23.77" r="23.77" transform="translate(23.194 23.338)" fill="#aab5ba"/>
                    <circle id="XMLID_212_" cx="10.228" cy="10.228" r="10.228" transform="translate(36.735 36.879)" fill="#aab5ba"/>
                  </g>
                  <path id="XMLID_215_" d="M437.771,332.405a2.4,2.4,0,0,1-2.449,2.3H308.549a2.4,2.4,0,0,1-2.449-2.3h0a2.4,2.4,0,0,1,2.449-2.3H435.322a2.312,2.312,0,0,1,2.449,2.3Z" transform="translate(56.355 -161.982)" fill="#ffb104"/>
                  <path id="XMLID_218_" d="M344.691,344.232a5.318,5.318,0,0,1-5.33,5.33H313.43a5.318,5.318,0,0,1-5.33-5.33h0a5.318,5.318,0,0,1,5.33-5.33h25.931a5.228,5.228,0,0,1,5.33,5.33Z" transform="translate(57.236 -158.107)" fill="#d87012"/>
                  <path id="XMLID_221_" d="M351.031,415.789V258.763A26.376,26.376,0,0,0,324.668,232.4H110.163A26.376,26.376,0,0,0,83.8,258.763V415.789Z" transform="translate(-41.59 -205.029)" fill="#ff9f03"/>
                  <g id="XMLID_222_" transform="translate(116.833 203.413)">
                    <circle id="XMLID_223_" cx="46.964" cy="46.964" r="46.964" transform="translate(0 0.144)" fill="#0a1b2c"/>
                    <path id="XMLID_224_" d="M140.93,401.708A47.061,47.061,0,0,1,185.3,354.744c-.864,0-1.729-.144-2.737-.144a46.964,46.964,0,0,0,0,93.927,18.367,18.367,0,0,0,2.737-.144A46.6,46.6,0,0,1,140.93,401.708Z" transform="translate(-135.6 -354.6)" fill="#183349"/>
                    <circle id="XMLID_227_" cx="23.77" cy="23.77" r="23.77" transform="translate(23.194 23.338)" fill="#aab5ba"/>
                    <circle id="XMLID_230_" cx="10.228" cy="10.228" r="10.228" transform="translate(36.735 36.879)" fill="#aab5ba"/>
                  </g>
                </g>
              </g>
            </g>
          </g>
          <path id="XMLID_231_" d="M360.2,274.175a28.551,28.551,0,0,1-5.186-.576c-10.516-2.3-20.168-10.66-21.9-16.567-.144-.288.144-.576.432-.72s.576.144.72.432c1.585,5.618,10.949,13.542,21.033,15.7,4.9,1.008,11.669,1.152,16.711-4.61a.509.509,0,1,1,.72.72A15.582,15.582,0,0,1,360.2,274.175Z" transform="translate(68.24 -194.51)" fill="#fff"/>
        </g>
        <g id="XMLID_232_" transform="translate(123.892 277.892)">
          <g id="XMLID_244_" transform="translate(113.069)">
            <g id="XMLID_234_">
              <path id="XMLID_235_" d="M212.054,346.4a4.353,4.353,0,0,1-2.3-.72,3.959,3.959,0,0,1-1.729-3.169L206,296.985a4.023,4.023,0,0,1,2.881-4.034l39.761-12.389a4.105,4.105,0,0,1,3.6.576,3.959,3.959,0,0,1,1.729,3.169l2.017,45.523a4.023,4.023,0,0,1-2.881,4.034L213.35,346.254C212.918,346.254,212.486,346.4,212.054,346.4Zm2.161-46.675,1.729,37.167,31.837-9.94-1.729-37.167Z" transform="translate(-173.428 -260.394)" fill="#fcc860"/>
              <path id="XMLID_238_" d="M222.108,349.036h0a3.751,3.751,0,0,1-2.161-.576L187.39,328.147a3.811,3.811,0,0,1-1.873-3.313L183.5,279.311a4.528,4.528,0,0,1,2.017-3.746,4.309,4.309,0,0,1,4.178,0l32.558,20.313a3.81,3.81,0,0,1,1.873,3.313l2.017,45.091V345A4.027,4.027,0,0,1,222.108,349.036ZM193.44,322.385l24.2,15.126-1.585-35.727-24.2-15.126Z" transform="translate(-183.338 -262.744)" fill="#fcc860"/>
              <path id="XMLID_241_" d="M220,307.269a4.065,4.065,0,0,1-2.161-.576L185.278,286.38a4.159,4.159,0,0,1-1.873-3.89,3.876,3.876,0,0,1,2.737-3.313L225.9,266.644a4.414,4.414,0,0,1,3.313.432l32.558,20.312a4.3,4.3,0,0,1,1.873,3.89,3.876,3.876,0,0,1-2.737,3.313l-39.761,12.533C220.717,307.125,220.285,307.269,220,307.269Zm-23.05-23.194,23.626,14.694,29.676-9.364-23.626-14.694Z" transform="translate(-183.387 -266.5)" fill="#fcc860"/>
            </g>
          </g>
          <path id="XMLID_254_" d="M216.643,279.834c0,2.3-1.441,4.034-3.169,4.034h-85.86c-1.729,0-3.313-1.873-3.313-4.034h0c0-2.3,1.441-4.034,3.313-4.034h85.86c1.729,0,3.169,1.873,3.169,4.034Z" transform="translate(-96.352 -262.402)" fill="#fcc860"/>
          <path id="XMLID_255_" d="M216.643,310.234c0,2.3-1.441,4.034-3.169,4.034h-85.86c-1.729,0-3.313-1.873-3.313-4.034h0c0-2.3,1.441-4.034,3.313-4.034h85.86c1.729,0,3.169,1.729,3.169,4.034Z" transform="translate(-96.352 -249.008)" fill="#fcc860"/>
          <path id="XMLID_256_" d="M148.694,295.934c0,2.3-1.441,4.034-3.313,4.034H108.069c-1.729,0-3.169-1.873-3.169-4.034h0c0-2.3,1.441-4.034,3.169-4.034h37.312c1.873,0,3.313,1.729,3.313,4.034Z" transform="translate(-104.9 -255.309)" fill="#fcc860"/>
          <path id="XMLID_257_" d="M190.25,295.934c0,2.3-1.441,4.034-3.169,4.034H149.769c-1.729,0-3.169-1.873-3.169-4.034h0c0-2.3,1.441-4.034,3.169-4.034h37.312c1.729,0,3.169,1.729,3.169,4.034Z" transform="translate(-86.527 -255.309)" fill="#fcc860"/>
        </g>
        <g id="XMLID_258_" transform="translate(30.219 57.912)">
          <g id="XMLID_259_" transform="translate(0 120.722)">
            <circle id="Ellipse_34" data-name="Ellipse 34" cx="10.372" cy="10.372" r="10.372" transform="translate(9.974 9.22)" fill="#558efa"/>
            <circle id="Ellipse_35" data-name="Ellipse 35" cx="2.881" cy="2.881" r="2.881" transform="translate(3.203 9.22)" fill="#558efa"/>
            <circle id="Ellipse_36" data-name="Ellipse 36" cx="2.881" cy="2.881" r="2.881" transform="translate(9.83 29.964)" fill="#558efa"/>
            <circle id="Ellipse_37" data-name="Ellipse 37" cx="2.881" cy="2.881" r="2.881" transform="translate(21.931 30.829)" fill="#558efa"/>
            <circle id="Ellipse_38" data-name="Ellipse 38" cx="2.881" cy="2.881" r="2.881" transform="translate(31.007 10.66)" fill="#558efa"/>
            <circle id="Ellipse_39" data-name="Ellipse 39" cx="2.881" cy="2.881" r="2.881" transform="translate(23.948 2.305)" fill="#558efa"/>
            <circle id="Ellipse_40" data-name="Ellipse 40" cx="4.178" cy="4.178" r="4.178" transform="translate(34.032 24.346)" fill="#558efa"/>
            <path id="Path_2060" data-name="Path 2060" d="M44.52,220.222a4.137,4.137,0,1,0-4.61-3.6A4.3,4.3,0,0,0,44.52,220.222Z" transform="translate(-39.877 -191.266)" fill="#558efa"/>
            <circle id="Ellipse_41" data-name="Ellipse 41" cx="4.178" cy="4.178" r="4.178" transform="translate(8.966)" fill="#558efa"/>
            <rect id="Rectangle_358" data-name="Rectangle 358" width="2.305" height="32.99" transform="translate(26.46 3.884) rotate(27.362)" fill="#558efa"/>
            <rect id="Rectangle_359" data-name="Rectangle 359" width="36.447" height="2.305" transform="matrix(0.883, 0.47, -0.47, 0.883, 5.865, 10.477)" fill="#558efa"/>
            <rect id="Rectangle_360" data-name="Rectangle 360" width="2.305" height="31.405" transform="matrix(0.376, 0.927, -0.927, 0.376, 33.704, 11.996)" fill="#558efa"/>
            <rect id="Rectangle_361" data-name="Rectangle 361" width="31.405" height="2.305" transform="translate(14.6 3.547) rotate(67.934)" fill="#558efa"/>
          </g>
          <g id="XMLID_260_" transform="translate(568.063 187.278)">
            <circle id="Ellipse_42" data-name="Ellipse 42" cx="7.779" cy="7.779" r="7.779" transform="translate(5.474 6.051)" fill="#558efa"/>
            <circle id="Ellipse_43" data-name="Ellipse 43" cx="2.161" cy="2.161" r="2.161" transform="translate(19.016 20.601)" fill="#558efa"/>
            <circle id="Ellipse_44" data-name="Ellipse 44" cx="2.161" cy="2.161" r="2.161" transform="translate(19.88 4.322)" fill="#558efa"/>
            <circle id="Ellipse_45" data-name="Ellipse 45" cx="2.161" cy="2.161" r="2.161" transform="translate(11.669 0.576)" fill="#558efa"/>
            <circle id="Ellipse_46" data-name="Ellipse 46" cx="2.161" cy="2.161" r="2.161" transform="translate(0 12.533)" fill="#558efa"/>
            <circle id="Ellipse_47" data-name="Ellipse 47" cx="2.161" cy="2.161" r="2.161" transform="translate(2.737 20.024)" fill="#558efa"/>
            <circle id="Ellipse_48" data-name="Ellipse 48" cx="3.025" cy="3.025" r="3.025" fill="#558efa"/>
            <circle id="Ellipse_49" data-name="Ellipse 49" cx="3.025" cy="3.025" r="3.025" transform="translate(22.906 11.381)" fill="#558efa"/>
            <circle id="Ellipse_50" data-name="Ellipse 50" cx="3.025" cy="3.025" r="3.025" transform="translate(11.237 23.482)" fill="#558efa"/>
            <rect id="Rectangle_362" data-name="Rectangle 362" width="1.729" height="24.634" transform="translate(4.801 23.236) rotate(-132.281)" fill="#558efa"/>
            <rect id="Rectangle_363" data-name="Rectangle 363" width="27.227" height="1.729" transform="translate(21.135 24.012) rotate(-131.676)" fill="#558efa"/>
            <rect id="Rectangle_364" data-name="Rectangle 364" width="1.729" height="23.338" transform="matrix(-0.03, -0.999, 0.999, -0.03, 1.826, 15.744)" fill="#558efa"/>
            <rect id="Rectangle_365" data-name="Rectangle 365" width="23.338" height="1.729" transform="matrix(-0.031, -0.999, 0.999, -0.031, 13.161, 26.667)" fill="#558efa"/>
          </g>
          <g id="XMLID_270_" transform="translate(387.562 66.412)">
            <path id="Path_2061" data-name="Path 2061" d="M320.059,170.964a10.92,10.92,0,1,0,15.27-2.3A10.858,10.858,0,0,0,320.059,170.964Z" transform="translate(-304.94 -156.99)" fill="#558efa"/>
            <path id="Path_2062" data-name="Path 2062" d="M334.985,169.394a2.982,2.982,0,1,0,4.178-.576A2.762,2.762,0,0,0,334.985,169.394Z" transform="translate(-297.681 -156.284)" fill="#558efa"/>
            <path id="Path_2063" data-name="Path 2063" d="M320.685,162.462a2.982,2.982,0,1,0,4.178-.576A2.988,2.988,0,0,0,320.685,162.462Z" transform="translate(-303.981 -159.292)" fill="#558efa"/>
            <path id="Path_2064" data-name="Path 2064" d="M314.185,168.562a2.982,2.982,0,1,0,4.178-.576A2.988,2.988,0,0,0,314.185,168.562Z" transform="translate(-306.845 -156.605)" fill="#558efa"/>
            <path id="Path_2065" data-name="Path 2065" d="M320.485,183.362a2.982,2.982,0,1,0,4.178-.576A2.988,2.988,0,0,0,320.485,183.362Z" transform="translate(-304.069 -150.084)" fill="#558efa"/>
            <path id="Path_2066" data-name="Path 2066" d="M328.386,183.762a2.982,2.982,0,1,0,4.178-.576A2.988,2.988,0,0,0,328.386,183.762Z" transform="translate(-300.589 -149.908)" fill="#558efa"/>
            <path id="Path_2067" data-name="Path 2067" d="M309.762,177.927a4.322,4.322,0,1,0,6.051-.864A4.353,4.353,0,0,0,309.762,177.927Z" transform="translate(-308.905 -152.716)" fill="#558efa"/>
            <circle id="Ellipse_51" data-name="Ellipse 51" cx="4.322" cy="4.322" r="4.322" transform="translate(27.076)" fill="#558efa"/>
            <path id="Path_2068" data-name="Path 2068" d="M335.062,176.627a4.322,4.322,0,1,0,6.051-.864A4.353,4.353,0,0,0,335.062,176.627Z" transform="translate(-297.758 -153.289)" fill="#558efa"/>
            <rect id="Rectangle_366" data-name="Rectangle 366" width="2.305" height="34.574" transform="translate(31.514 36.402) rotate(160.409)" fill="#558efa"/>
            <rect id="Rectangle_367" data-name="Rectangle 367" width="38.176" height="2.305" transform="translate(41.17 15.767) rotate(160.962)" fill="#558efa"/>
            <rect id="Rectangle_368" data-name="Rectangle 368" width="2.305" height="32.846" transform="translate(20.073 36.093) rotate(-159.084)" fill="#558efa"/>
            <rect id="Rectangle_369" data-name="Rectangle 369" width="32.846" height="2.305" transform="translate(40.384 27.459) rotate(-159.12)" fill="#558efa"/>
          </g>
          <g id="XMLID_280_" transform="translate(593.129 281.926)">
            <circle id="XMLID_292_" cx="11.669" cy="11.669" r="11.669" transform="translate(7.923 11.813)" fill="#558efa"/>
            <circle id="XMLID_295_" cx="3.169" cy="3.169" r="3.169" transform="translate(26.651 5.33)" fill="#558efa"/>
            <circle id="XMLID_298_" cx="3.169" cy="3.169" r="3.169" transform="translate(2.449 9.94)" fill="#558efa"/>
            <circle id="XMLID_301_" cx="3.169" cy="3.169" r="3.169" transform="translate(0 23.482)" fill="#558efa"/>
            <circle id="XMLID_304_" cx="3.169" cy="3.169" r="3.169" transform="translate(21.609 36.159)" fill="#558efa"/>
            <circle id="XMLID_307_" cx="3.169" cy="3.169" r="3.169" transform="translate(31.693 29.388)" fill="#558efa"/>
            <circle id="XMLID_310_" cx="4.61" cy="4.61" r="4.61" transform="translate(2.737 37.744)" fill="#558efa"/>
            <circle id="XMLID_313_" cx="4.61" cy="4.61" r="4.61" transform="translate(11.237)" fill="#558efa"/>
            <circle id="XMLID_316_" cx="4.61" cy="4.61" r="4.61" transform="translate(33.278 12.677)" fill="#558efa"/>
            <rect id="XMLID_317_" width="2.593" height="37.167" transform="translate(36.373 32.34) rotate(123.903)" fill="#558efa"/>
            <rect id="XMLID_318_" width="41.057" height="2.593" transform="matrix(-0.567, 0.824, -0.824, -0.567, 31.769, 8.312)" fill="#558efa"/>
            <rect id="XMLID_319_" width="2.593" height="35.295" transform="translate(26.347 39.463) rotate(164.389)" fill="#558efa"/>
            <rect id="XMLID_320_" width="35.295" height="2.593" transform="translate(38.434 19.038) rotate(164.436)" fill="#558efa"/>
          </g>
          <g id="XMLID_321_" transform="translate(248.105 93.351)">
            <circle id="Ellipse_52" data-name="Ellipse 52" cx="7.779" cy="7.779" r="7.779" transform="translate(5.474 6.051)" fill="#558efa"/>
            <circle id="Ellipse_53" data-name="Ellipse 53" cx="2.161" cy="2.161" r="2.161" transform="translate(19.16 20.601)" fill="#558efa"/>
            <circle id="Ellipse_54" data-name="Ellipse 54" cx="2.161" cy="2.161" r="2.161" transform="translate(19.88 4.466)" fill="#558efa"/>
            <circle id="Ellipse_55" data-name="Ellipse 55" cx="2.161" cy="2.161" r="2.161" transform="translate(11.669 0.72)" fill="#558efa"/>
            <circle id="Ellipse_56" data-name="Ellipse 56" cx="2.161" cy="2.161" r="2.161" transform="translate(0.144 12.533)" fill="#558efa"/>
            <circle id="Ellipse_57" data-name="Ellipse 57" cx="2.161" cy="2.161" r="2.161" transform="translate(2.881 20.168)" fill="#558efa"/>
            <circle id="Ellipse_58" data-name="Ellipse 58" cx="3.025" cy="3.025" r="3.025" fill="#558efa"/>
            <circle id="Ellipse_59" data-name="Ellipse 59" cx="3.025" cy="3.025" r="3.025" transform="translate(22.906 11.381)" fill="#558efa"/>
            <circle id="Ellipse_60" data-name="Ellipse 60" cx="3.025" cy="3.025" r="3.025" transform="translate(11.237 23.626)" fill="#558efa"/>
            <rect id="Rectangle_370" data-name="Rectangle 370" width="1.729" height="24.634" transform="translate(4.94 23.288) rotate(-132.281)" fill="#558efa"/>
            <rect id="Rectangle_371" data-name="Rectangle 371" width="27.227" height="1.729" transform="matrix(-0.665, -0.747, 0.747, -0.665, 21.035, 24.008)" fill="#558efa"/>
            <rect id="Rectangle_372" data-name="Rectangle 372" width="1.729" height="23.338" transform="matrix(-0.03, -0.999, 0.999, -0.03, 1.954, 15.686)" fill="#558efa"/>
            <rect id="Rectangle_373" data-name="Rectangle 373" width="23.338" height="1.729" transform="matrix(-0.031, -0.999, 0.999, -0.031, 13.143, 26.618)" fill="#558efa"/>
          </g>
          <g id="XMLID_322_" transform="translate(501.219)">
            <circle id="Ellipse_61" data-name="Ellipse 61" cx="5.474" cy="5.474" r="5.474" transform="translate(5.474 5.618)" fill="#558efa"/>
            <circle id="Ellipse_62" data-name="Ellipse 62" cx="1.441" cy="1.441" r="1.441" transform="translate(4.898 2.593)" fill="#558efa"/>
            <circle id="Ellipse_63" data-name="Ellipse 63" cx="1.441" cy="1.441" r="1.441" transform="translate(2.593 13.83)" fill="#558efa"/>
            <circle id="Ellipse_64" data-name="Ellipse 64" cx="1.441" cy="1.441" r="1.441" transform="translate(7.923 17.287)" fill="#558efa"/>
            <circle id="Ellipse_65" data-name="Ellipse 65" cx="1.441" cy="1.441" r="1.441" transform="translate(17.287 10.228)" fill="#558efa"/>
            <circle id="Ellipse_66" data-name="Ellipse 66" cx="1.441" cy="1.441" r="1.441" transform="translate(16.135 4.754)" fill="#558efa"/>
            <ellipse id="Ellipse_67" data-name="Ellipse 67" cx="2.589" cy="2.071" rx="2.589" ry="2.071" transform="translate(14.82 18.085)" fill="#558efa"/>
            <circle id="Ellipse_68" data-name="Ellipse 68" cx="2.161" cy="2.161" r="2.161" transform="translate(0 7.203)" fill="#558efa"/>
            <circle id="Ellipse_69" data-name="Ellipse 69" cx="2.161" cy="2.161" r="2.161" transform="translate(9.364)" fill="#558efa"/>
            <rect id="Rectangle_374" data-name="Rectangle 374" width="1.152" height="17.287" transform="translate(17.784 5.406) rotate(56.497)" fill="#558efa"/>
            <rect id="Rectangle_375" data-name="Rectangle 375" width="19.16" height="1.152" transform="matrix(0.544, 0.839, -0.839, 0.544, 6.566, 3.208)" fill="#558efa"/>
            <rect id="Rectangle_376" data-name="Rectangle 376" width="1.152" height="16.423" transform="translate(19.071 11.071) rotate(96.956)" fill="#558efa"/>
            <rect id="Rectangle_377" data-name="Rectangle 377" width="16.423" height="1.152" transform="translate(12.432 2.262) rotate(96.962)" fill="#558efa"/>
          </g>
          <g id="XMLID_332_" transform="translate(134.298 74.191)">
            <circle id="Ellipse_70" data-name="Ellipse 70" cx="5.474" cy="5.474" r="5.474" transform="translate(5.474 5.618)" fill="#558efa"/>
            <circle id="Ellipse_71" data-name="Ellipse 71" cx="1.441" cy="1.441" r="1.441" transform="translate(4.898 2.593)" fill="#558efa"/>
            <circle id="Ellipse_72" data-name="Ellipse 72" cx="1.441" cy="1.441" r="1.441" transform="translate(2.593 13.83)" fill="#558efa"/>
            <circle id="Ellipse_73" data-name="Ellipse 73" cx="1.441" cy="1.441" r="1.441" transform="translate(7.923 17.287)" fill="#558efa"/>
            <circle id="Ellipse_74" data-name="Ellipse 74" cx="1.441" cy="1.441" r="1.441" transform="translate(17.287 10.228)" fill="#558efa"/>
            <circle id="Ellipse_75" data-name="Ellipse 75" cx="1.441" cy="1.441" r="1.441" transform="translate(16.135 4.754)" fill="#558efa"/>
            <circle id="Ellipse_76" data-name="Ellipse 76" cx="2.161" cy="2.161" r="2.161" transform="translate(14.694 17.575)" fill="#558efa"/>
            <circle id="Ellipse_77" data-name="Ellipse 77" cx="2.161" cy="2.161" r="2.161" transform="translate(0 7.203)" fill="#558efa"/>
            <circle id="Ellipse_78" data-name="Ellipse 78" cx="2.161" cy="2.161" r="2.161" transform="translate(9.508)" fill="#558efa"/>
            <rect id="Rectangle_378" data-name="Rectangle 378" width="1.152" height="17.287" transform="matrix(0.553, 0.834, -0.834, 0.553, 17.88, 5.465)" fill="#558efa"/>
            <rect id="Rectangle_379" data-name="Rectangle 379" width="19.16" height="1.152" transform="matrix(0.544, 0.839, -0.839, 0.544, 6.597, 3.155)" fill="#558efa"/>
            <rect id="Rectangle_380" data-name="Rectangle 380" width="1.152" height="16.423" transform="translate(19.137 11.027) rotate(96.956)" fill="#558efa"/>
            <rect id="Rectangle_381" data-name="Rectangle 381" width="16.423" height="1.152" transform="translate(12.353 2.201) rotate(96.962)" fill="#558efa"/>
          </g>
          <g id="XMLID_342_" transform="translate(375.887 172.152)">
            <circle id="Ellipse_79" data-name="Ellipse 79" cx="5.474" cy="5.474" r="5.474" transform="translate(5.474 5.618)" fill="#558efa"/>
            <circle id="Ellipse_80" data-name="Ellipse 80" cx="1.441" cy="1.441" r="1.441" transform="translate(4.898 2.593)" fill="#558efa"/>
            <circle id="Ellipse_81" data-name="Ellipse 81" cx="1.441" cy="1.441" r="1.441" transform="translate(2.593 13.83)" fill="#558efa"/>
            <circle id="Ellipse_82" data-name="Ellipse 82" cx="1.441" cy="1.441" r="1.441" transform="translate(7.923 17.287)" fill="#558efa"/>
            <circle id="Ellipse_83" data-name="Ellipse 83" cx="1.441" cy="1.441" r="1.441" transform="translate(17.287 10.372)" fill="#558efa"/>
            <circle id="Ellipse_84" data-name="Ellipse 84" cx="1.441" cy="1.441" r="1.441" transform="translate(16.135 4.754)" fill="#558efa"/>
            <circle id="Ellipse_85" data-name="Ellipse 85" cx="2.161" cy="2.161" r="2.161" transform="translate(14.694 17.575)" fill="#558efa"/>
            <circle id="Ellipse_86" data-name="Ellipse 86" cx="2.161" cy="2.161" r="2.161" transform="translate(0 7.203)" fill="#558efa"/>
            <circle id="Ellipse_87" data-name="Ellipse 87" cx="2.161" cy="2.161" r="2.161" transform="translate(9.364)" fill="#558efa"/>
            <rect id="Rectangle_382" data-name="Rectangle 382" width="1.152" height="17.287" transform="matrix(0.553, 0.834, -0.834, 0.553, 17.804, 5.555)" fill="#558efa"/>
            <rect id="Rectangle_383" data-name="Rectangle 383" width="19.16" height="1.152" transform="matrix(0.544, 0.839, -0.839, 0.544, 6.595, 3.187)" fill="#558efa"/>
            <rect id="Rectangle_384" data-name="Rectangle 384" width="1.152" height="16.423" transform="translate(19.035 11.076) rotate(96.956)" fill="#558efa"/>
            <rect id="Rectangle_385" data-name="Rectangle 385" width="16.423" height="1.152" transform="translate(12.378 2.253) rotate(96.962)" fill="#558efa"/>
          </g>
        </g>
        <g id="XMLID_352_" transform="translate(70.733 412.156)">
          <path id="Path_2069" data-name="Path 2069" d="M140.457,401.025h0c-5.906,15.27-24.2,26.651-41.057,25.5h0C105.306,411.253,123.746,399.872,140.457,401.025Z" transform="translate(-54.165 -341.528)" fill="#1d6468"/>
          <path id="Path_2070" data-name="Path 2070" d="M68,402.279h0c17.575-4.9,40.337,5.186,50.709,22.329h0C100.99,429.506,78.372,419.566,68,402.279Z" transform="translate(-68 -341.485)" fill="#1d6468"/>
          <path id="Path_2071" data-name="Path 2071" d="M130.024,372.9h0a118.984,118.984,0,0,1-8.644,32.846,119.458,119.458,0,0,1-16.567,29.964h0a54.7,54.7,0,0,1-2.593-7.779A44.887,44.887,0,0,1,101.5,419a53.556,53.556,0,0,1,1.152-9.508,79.614,79.614,0,0,1,2.881-9.508A73.783,73.783,0,0,1,110,391.052a64.869,64.869,0,0,1,5.906-7.779,45.406,45.406,0,0,1,6.771-6.195A38.111,38.111,0,0,1,130.024,372.9Z" transform="translate(-53.24 -353.884)" fill="#257c86"/>
          <path id="Path_2072" data-name="Path 2072" d="M70.3,380.7h0a43.636,43.636,0,0,1,8.5.864,12.006,12.006,0,0,1,2.161.576c.72.288,1.441.432,2.161.72a27.045,27.045,0,0,1,4.322,1.729l1.152.432,1.008.576c.72.432,1.441.72,2.161,1.152,1.441.864,2.737,1.729,4.178,2.593a63.571,63.571,0,0,1,7.491,6.483,68.451,68.451,0,0,1,6.195,7.923c.864,1.441,1.729,2.881,2.449,4.322.432.72.72,1.441,1.152,2.161l.576,1.152.432,1.152c.576,1.441,1.008,3.025,1.441,4.466.144.72.432,1.441.576,2.161l.432,2.161a44.564,44.564,0,0,1,.432,8.644h0c-9.22-6.051-17.863-13.974-25.787-22.329C83.409,399.14,75.918,390.208,70.3,380.7Z" transform="translate(-66.987 -350.447)" fill="#257c86"/>
          <path id="Path_2073" data-name="Path 2073" d="M91.186,359.7h0c15.991,20.745,24.2,58.344,18.3,83.987h0C93.491,422.942,85.279,385.343,91.186,359.7Z" transform="translate(-58.628 -359.7)" fill="#1d6468"/>
        </g>
      </g>
      <path id="XMLID_364_" d="M329.077,343.281a2.89,2.89,0,0,1-2.881,2.881H98.581a2.89,2.89,0,0,1-2.881-2.881h0a2.89,2.89,0,0,1,2.881-2.881H326.2a2.89,2.89,0,0,1,2.881,2.881Z" transform="translate(14.938 43.952)" fill="#ffb104"/>
      <path id="XMLID_367_" d="M329.077,249.281a2.89,2.89,0,0,1-2.881,2.881H98.581a2.89,2.89,0,0,1-2.881-2.881h0a2.89,2.89,0,0,1,2.881-2.881H326.2a2.89,2.89,0,0,1,2.881,2.881Z" transform="translate(14.938 2.536)" fill="#ffb104"/>
    </g>
  </g>
</svg>
